<svg xmlns="http://www.w3.org/2000/svg" width="512" height="512" viewBox="0 0 512 512"><path fill="#FEBF10" d="M275.6,187.6c-1.5-1.4-3.2-2.7-4.5-4.2c-1.1-0.1-2.1-0.5-2.9-1.3c-1.2,1.1-2.6,1.5-4,1.4c-8.7,5.6-18.5,12-24.2,20.4c4.9,4.7,8.1,11.5,11,17.8c5.9-3.5,11-8.5,16.2-13c5-4.3,11.5-8.1,16.1-13.2C280.8,192.9,278.3,190.1,275.6,187.6z"/><path fill="#D6E5E5" d="M171.1 268.8c-.9-8.6-1.6-17.2-2.4-25.7-2-19.5-4.7-39-6.3-58.6-1.3-15.6-6.1-31.3-3.9-46.9-2.3-.1-4.7-.1-7.1-.2-6.1-.2-12.3-.4-18.5-.5 3.1 25.9 7.7 51.6 10.3 77.6 1.3 12.6 3.3 25.1 3.9 37.7.5 8.9.1 18 2 26.8 1.1.8 1.8 2.1 1.8 3.9v3c0 .3 0 .6-.1 1 .9 8.2 17.5 7.9 20.3.6C173.4 281.5 171.8 274.7 171.1 268.8zM170.9 465c-2.2 1.9-5.8 2.1-7.6.1-7.4 0-14.8-.4-22.2-1.3.3 2.2.8 4.3 1.3 6.4.6 2.5 1.3 5 2 7.5 8.7-1.4 17.6-1.2 26.2-3.3 0 0 0 0 .1 0 0-.2 0-.4 0-.7.2-3 .8-5.9 1.1-8.8C171.6 464.9 171.3 465 170.9 465zM195.3 442.9c-1-3.7-2-7.4-2.6-11.3-1.8-11.7-3.6-23.4-5.4-35.1-3.6-23.4-8.2-47.2-8.3-70.9 0 0 0 0 0-.1-6.5 3.7-14.3 5.1-22 3.3.5 42.1 15.9 82.7 16.1 124.8 8-.4 16-1.1 24-2.1C197.2 448.7 195.9 445.2 195.3 442.9z"/><path fill="#C56528" d="M146,328.6c0-1.5,0.5-2.8,1.3-3.7c-22.8-13.6-28.5-52.2-12-72.3c0.3-0.3,0.5-0.6,0.8-0.8c-0.8-12.2-2.7-24.3-3.8-36.5c-2.4-26-7.2-51.7-10.3-77.6c0-0.2,0-0.4,0-0.6c-2.1,0.1-4.2,0.2-6.3,0.3c-11.8,0.8-23.7,2.7-34.5,7.6c-5.5,2.5-11,5.7-15.4,9.9c-5.1,4.7-8.6,11.1-12.8,16.6c2.4,14.3,4.2,28.7,5.4,43.1c2.5,31,2.3,62,0.3,93c-1.6,23.4-4.2,46.9-0.4,70.3c3.6,22.4,13.6,43.2,32.5,56.5c12.9,9.1,27.6,14.4,43,17.1c2.5-1.6,5.1-0.8,6.7,1c7.2,0.9,14.5,1.3,21.8,1.4C161.8,411.6,146.2,370.9,146,328.6z"/><path fill="#FEBF10" d="M182.9 285.2c-.3 2-.7 3.9-1.4 5.8-2.6 6.9-8.8 11.4-16 12.4-11.8 1.6-24.3-4.4-25.4-16.3-1.4-4.3-2.2-8.7-2.6-13.2-3 16.5 3.8 37 18.6 43 10.8 4.4 22.3-.8 26.4-11.5C184.9 299 185 291.8 182.9 285.2zM366 265.4c0 1.8 0 3.5-.1 5.3 0 0 0 0 0 0h0c0 .5 0 1-.1 1.5-.1.8-.3 1.4-.6 2 .2 11.3-6.6 22.2-18.9 24.1-6.9 1-15.3-.8-20.2-6.2-2.6-2.9-4.4-6-5.9-9.3-.8-.5-1.5-1.3-1.9-2.4.3 2.1.7 4.1 1.2 6 2.8 11.6 9.8 21.7 22.5 23.2 10.2 1.2 21.5-3.6 26.1-13.1C372.9 287.2 371.6 274.7 366 265.4z"/><path fill="#D6E5E5" d="M355 263c-.5-5.6-1.8-11.2-2.5-16.8-1-7.8-2.2-15.5-3.2-23.3-2-15.7-3.1-31.5-4.8-47.2-1.1-9.9-2.5-19.7-3.6-29.6-.5-4.6-2.4-13.6-.5-19.3-9.4.8-18.8 1.9-28.2 3 .3 12.3 1.9 24.5 3.7 36.6.9 6.2 1.9 12.5 2.6 18.7.7 6.1.8 12.4 1.6 18.5 1.8 13.4 2.7 26.9 4.5 40.3 1 7.6 1.1 15.5 2.2 23.1.4.6.8 1.3 1 2.1.2.9.5 1.9.7 2.9.3.6.5 1.2.6 2 2.2 7.4 6.2 14.7 15.4 13.3 9.1-1.4 11.8-10.8 9-18.6C352.4 266.4 353.3 264.3 355 263zM368.3 169.2c-.5-7.8-5.3-15-14-12.9-.4.1-.8.1-1.1.2 1.1 8.5 2 17.1 3 25.7.1.8.2 1.6.3 2.4C364.1 183.6 368.9 177.5 368.3 169.2z"/><path fill="#F6851F" d="M320.8 115.7c0-1.1-.1-2.3-.2-3.4-.3-1.9-.7-3.9-1.9-5.4-3.1-3.9-9.4-4.7-14-3.9-3.2.6-11.7 2-12.5 6.1-.7 3.9.7 7.8 1.5 11.7 7.3-.7 14.5-1.5 21.8-2.3 1.5-.2 3.1-.3 4.6-.5.5-.4 1-.8 1.7-1C319.7 117.8 320.8 117.6 320.8 115.7zM261.2 59.4c-7.3-4-15.2-7.5-23.7-8-6.2-.4-12.5.1-18.6 1.1-24.5 3.7-59.5 17.8-59.9 47.3 0 .5-.1 1-.2 1.4 3.8-.3 7.5-.4 11.2.3 2.2-24.6 39-28.9 58.5-30.4 16.9-1.3 35.3-.4 49.6 9.9 3.2 2.3 10.8 8.1 14.7 13.9 2-.9 4.2-1.6 6.3-2.1 0-.4 0-.8.1-1.1C288.8 78.7 275.6 67.2 261.2 59.4zM171.4 113.3c-7.3-2.9-15.3-.7-22.8.2-4 .4-10.3.1-13.2 3.6-1.9 2.4-2.4 5.7-2.5 8.8 15 .1 30 .5 45 .7C176.9 121.2 177.3 115.6 171.4 113.3z"/><path fill="#C56528" d="M455 299.4c-1.9-15.2-4.1-30.5-5.4-45.8-.3-3.7-.6-7.5-.8-11.2-.3 2.6-2.1 5.3-5 5.3-17.5.1-34.6 4-52 6-3 .3-5.7-2.2-5.9-5.1-.9-11-1-22-1-33 0-3 2-4.9 4.3-5.5.7-1.4 2.1-2.4 4.3-2.4 6.9 0 13.8-.1 20.7-.3 6.1-.2 12.3.5 18.3.1 2.1-.1 4 .8 5.2 2.2 2.1-3.1 7.1-4.7 9.2-.5.2.3.3.7.4 1-1.1-20-3.7-41.4-15.6-57.8-14.2-19.6-38.6-25.9-61.7-26.5-6-.2-12.1 0-18.1.3.4 1.4.2 2.9-1.1 4.3 0 0 0 .1 0 .1-.1.8-.1.5-.1 1.4 0 1.9 0 3.8.2 5.7.2 2.7.4 5.3.7 8 14.4-2.9 26.4 7 27.4 21.9 1 14-7.5 26.7-21.7 28 1 10.7 1.9 21.4 3.4 32.1.9 6.7 2.3 13.6 3.4 20.5.6.2 1.2.5 1.8.9 14.4 10.7 20.5 35.2 12.5 51.4-1.1 2.2-2.3 4.2-3.8 6 .7.8 1.1 1.9 1.1 3.2.2 22 5.2 43.7 7.5 65.5 2.1 20.2 5.4 40.4 6.4 60.7 2-.2 4.1-.4 6.1-.7 1.3-2.3 3.9-3.8 6.9-2.1.4.2.8.5 1.2.8 24.9-4.5 46.5-15.6 52.4-44C462.6 360.3 458.8 329.1 455 299.4zM337.4 417c-.9-11.3-2.3-22.5-3.5-33.7-2.3-22.2-5.5-44.6-5.9-67-9.2-5.1-15.9-14.3-18.5-25-4.1-16.8-4.2-36.6 3-52.6.1-.1.1-.2.2-.3-1.2-10.6-2.1-21.2-3.5-31.8-1.7-13-2.6-26.1-4.5-39.1-1.8-12-3.3-24.1-3.7-36.2-2.6.3-5.2.6-7.8.8-32.3 3.2-64.7 5.3-97.1 5.7-8.9.1-17.7.1-26.6 0-1.7 9.8.1 19.9 1.7 29.6 1.9 11.2 2.6 22.5 3.9 33.8 2.6 21.5 4.2 43.1 6.7 64.6 1.5.1 3 .8 4.2 2.2 9.8 11.5 12.1 29.5 5.8 43.2-1.5 3.2-3.5 6.1-5.8 8.6 2.1.4 3.9 2 3.9 4.8.1 25.1 5.1 50.1 8.9 74.9 1.8 11.8 2.6 24.4 5.8 36 1.2 4.5 3 9.6 3.3 14.5 13.2-1.8 26.3-4 39.5-5.7 30.5-4.1 61.2-5.9 91.9-6.8C338.2 430.8 337.9 423.9 337.4 417zM228.9 201.2c7.2-12.9 21.6-21.6 33.5-29.6 2-1.3 5-1 6.9.5 1.7-1.2 4.1-1.6 5.9-.6 1.6 1 2.4 2.1 3.4 3.6 1.1 1.7 2.8 2.8 4.3 4.2 3.9 3.8 7.5 7.8 11.2 11.7 1.6 1.6 2.7 4.4 1.3 6.6-5.6 8.4-14.5 13.7-22 20.2-7.2 6.3-14.2 12.7-23.1 16.5-3 1.3-5.8-.8-7-3.4-3.2-6.5-6.4-17.5-13.3-20.9C226.1 208.1 226.5 203.6 228.9 201.2zM260.3 361.3c-8.6 3.2-25.7 6.3-31.4-3.2-3.1 1-6.9-.4-6.9-4.6-.1-23.7-1.9-47.3-1-71 .1-3.4 2.8-5.3 5.4-5.7.6-1.8 2.1-3.3 4.6-3.2 8.2.1 16.3 1.1 24.5 2.1 2.3.3 4.4 2.7 4.4 5 0 25 0 50.2 4 75C264.4 358.2 262.5 360.5 260.3 361.3zM280.6 285.6c-14.9 0-21-14.5-19.6-27.5.3-3 2.5-4.3 4.7-4.3 5.7-12.5 32.1-16.1 34.8 2.6C302.3 268 294.2 285.6 280.6 285.6z"/><path fill="#D6E5E5" d="M397,446.3c-5.6,0.6-11.3,1-16.9,1.2c0.7,4.1,0.3,8.5,1.3,12.6c1.6-0.5,3.2-1.1,4.7-1.7c3.6-1.2,7.2-2,10.9-2.4c0-1.7,0.1-3.4,0.1-5.1C397.1,449.4,397.1,447.8,397,446.3z"/><path fill="#FEBF10" d="M439.2,220.3c-1.1-0.3-2.1-1-2.9-1.8c-2,1.1-4.5,1.1-6.2,0.1c-0.5,0.1-1.1,0.1-1.6,0c-2.6-0.3-5.2-0.4-7.9-0.4c-4.9,0.1-9.8,0.4-14.7,0.4c-3.3,0-6.6,0-9.8,0c0,7.8,0.1,15.6,0.6,23.3c13.9-1.9,27.7-4.6,41.7-5.2c0.2-2.8,0.5-5.5,0.6-8.3C439.1,226.1,439.4,223.1,439.2,220.3z"/><path fill="#D6E5E5" d="M378.6,431.6c-1.3-19.2-4.4-38.2-6.3-57.4c-1.9-19.7-6.5-39.2-7.2-59c-6.8,4.1-14.8,6.1-23,5.4c-1-0.1-2-0.2-3-0.4c0.7,20.8,3.5,41.6,5.8,62.2c1.2,11.2,2.7,22.4,3.5,33.7c0.5,6.9,0.7,14,2,20.8c0.1,0.1,0.2,0.2,0.4,0.3c8.8-0.1,18.3-0.1,27.9-0.6C377.6,434.9,377.8,433.1,378.6,431.6z"/><path fill="#14B6B9" d="M289.7 257.2c-.7-3.3-5.1-3.7-8.5-2.6-2.1.7-3.7 1.4-4.9 3.1-.6.8-.6 1.5.4 3.5 1.8 3.6-.8 6.4-4 6.8 1.2 3.8 3.6 7 7.9 6.4C287.3 273.6 290.9 263 289.7 257.2zM249 286c-5.7-.7-11.4-1.3-17.1-1.4 0 0 0 0 0 0-.6 21.2.8 42.3 1.1 63.4 0 .2 0 .4 0 .7v1.2c2.2-.2 4.6.8 5.7 3.4-.7-1.6 1.1-.3 2.4-.2 2 .2 4.1 0 6.1-.2 1.7-.2 3.4-.4 5.1-.8C249.2 330.3 249 308.1 249 286z"/><path fill="#010101" d="M294.1 191c-3.8-3.9-7.4-7.9-11.2-11.7-1.4-1.4-3.2-2.6-4.3-4.2-1-1.5-1.8-2.6-3.4-3.6-1.7-1-4.2-.7-5.9.6-1.9-1.5-4.9-1.8-6.9-.5-11.9 7.9-26.4 16.7-33.5 29.6-2.4 2.4-2.8 7 1.2 8.9 6.9 3.4 10.1 14.4 13.3 20.9 1.2 2.5 4 4.7 7 3.4 8.9-3.8 15.9-10.2 23.1-16.5 7.5-6.6 16.4-11.8 22-20.2C296.8 195.5 295.7 192.6 294.1 191zM267.3 208.7c-5.2 4.5-10.3 9.5-16.2 13-2.9-6.3-6-13.2-11-17.8 5.7-8.4 15.5-14.8 24.2-20.4 1.3.1 2.7-.3 4-1.4.7.7 1.8 1.2 2.9 1.3 1.3 1.5 3 2.8 4.5 4.2 2.7 2.5 5.2 5.3 7.7 8C278.8 200.6 272.2 204.4 267.3 208.7zM300.6 256.4c-2.7-18.7-29.1-15.1-34.8-2.6-2.3 0-4.4 1.3-4.7 4.3-1.4 13 4.7 27.5 19.6 27.5C294.2 285.6 302.3 268 300.6 256.4zM280.6 274.6c-4.3.6-6.8-2.6-7.9-6.4 3.2-.5 5.8-3.2 4-6.8-1-2.1-1-2.8-.4-3.5 1.2-1.7 2.8-2.4 4.9-3.1 3.3-1.1 7.8-.7 8.5 2.6C290.9 263 287.3 273.6 280.6 274.6z"/><path fill="#010101" d="M466,298.5c-1.9-15.3-4-30.5-5.4-45.8c-1-11.7-1.3-23.5-1.8-35.3c-1-22.9-3.3-46.6-15-66.8c-22.5-38.9-71.6-37.9-112.2-33.9c0.2-3.4-0.4-7-1.1-9.9c-2-8.5-9.6-13.1-17.7-14.6c-0.1-0.8-0.4-1.5-0.9-2.2c-12.2-16.4-28.1-30.5-45.9-40.5c-8-4.5-17.2-8.3-26.5-8.9c-8-0.6-15.9,0-23.8,1.2c-30.6,5-67.3,23.4-67.8,58.7c0,0.7,0.1,1.3,0.3,1.8c-0.7,0.1-1.5,0.2-2.2,0.3c-7,0.8-13.7,1.8-18.8,7.1c-4,4.2-4.9,10.4-5.1,16.2c-12.9,0.4-25.7,2-38,6c-7.5,2.5-14.7,6.2-21.1,10.9c-6.7,5-11.1,11.5-15.9,18.1c-3.2-0.5-6.7,1.5-6,5.6c5.4,30.8,8.1,61.9,8.2,93.1c0.1,28-3.1,55.7-3.9,83.7c-0.7,22.2,1.4,45.3,10.8,65.7c10.3,22.4,29.5,38.1,52.2,46.8c7.1,2.7,14.3,4.7,21.5,6.2c0.2,2.2,0.6,4.3,1,6.2c1.2,6,3,11.8,4.5,17.7c0.8,3.1,4.3,4.1,7,3.4c11.5-3.1,24.8-0.2,35.7-5.9c2.9-1.5,3.4-4.6,3.6-7.5c0.2-3.9,0.9-7.8,1.3-11.7c29.7-2.3,59.7-8.8,88.3-11.7c23.8-2.4,47.7-3.5,71.7-4.2c1.9,1.7,4.9,1.4,6.9-0.2c5.8-0.1,11.6-0.3,17.4-0.4c0.6,0,1.3,0,1.9,0c0,0.3,0,0.5,0,0.8c0,0.8,0.1,1.5,0.4,2.1c0.1,0.5,0.1,0.9,0.1,1c0.2,1.9,0.3,3.8,0.4,5.7c0.2,3.7,1.1,7.8,3,11c2.2,3.7,6.7,3.6,10.3,2.7c6.8-1.8,12.5-4.3,19.7-4.4c3.2-0.1,5-3.1,5.1-5.9c0-4.1,0.9-10.4,0.4-16.1c8.1-1.5,16-3.8,23.5-7.3c19.9-9.3,32-26.8,36-48.2C473.5,359.4,469.7,328.3,466,298.5z M340.3,126.9c-1.9,5.7,0,14.7,0.5,19.3c1.1,9.9,2.5,19.7,3.6,29.6c1.7,15.7,2.9,31.5,4.8,47.2c1,7.8,2.2,15.5,3.2,23.3c0.8,5.6,2,11.1,2.5,16.8c-1.7,1.3-2.6,3.4-1.7,5.9c2.8,7.7,0.1,17.2-9,18.6c-9.1,1.4-13.1-5.9-15.4-13.3c-0.1-0.8-0.3-1.4-0.6-2c-0.3-1-0.5-2-0.7-2.9c-0.2-0.9-0.5-1.6-1-2.1c-1.1-7.6-1.2-15.5-2.2-23.1c-1.8-13.4-2.7-26.9-4.5-40.3c-0.8-6.1-0.9-12.3-1.6-18.5c-0.8-6.3-1.7-12.5-2.6-18.7c-1.8-12.2-3.4-24.4-3.7-36.6C321.4,128.8,330.9,127.7,340.3,126.9z M366,270.7c0.1-1.7,0.1-3.5,0.1-5.3c5.5,9.2,6.8,21.8,2.3,31.1c-4.6,9.5-16,14.3-26.1,13.1c-12.7-1.5-19.7-11.5-22.5-23.2c-0.5-1.9-0.9-3.9-1.2-6c0.4,1.1,1.1,1.9,1.9,2.4c1.4,3.3,3.3,6.4,5.9,9.3c4.9,5.4,13.2,7.2,20.2,6.2c12.3-1.9,19.1-12.8,18.9-24.1c0.3-0.6,0.5-1.2,0.6-2C365.9,271.7,365.9,271.2,366,270.7L366,270.7C366,270.7,366,270.7,366,270.7z M356.2,182.2c-1-8.6-1.9-17.1-3-25.7c0.4,0,0.7-0.1,1.1-0.2c8.6-2.1,13.4,5.1,14,12.9c0.6,8.3-4.1,14.4-11.8,15.3C356.3,183.7,356.3,183,356.2,182.2z M318.6,106.8c1.2,1.5,1.7,3.6,1.9,5.4c0.2,1.1,0.2,2.3,0.2,3.4c0,1.9-1.1,2.1,0.9,1.3c-0.7,0.3-1.2,0.6-1.7,1c-1.6,0.2-3.1,0.3-4.6,0.5c-7.3,0.8-14.5,1.6-21.8,2.3c-0.8-3.9-2.2-7.8-1.5-11.7c0.8-4.1,9.3-5.6,12.5-6.1C309.2,102.2,315.4,102.9,318.6,106.8z M159,99.7c0.4-29.5,35.5-43.5,59.9-47.3c6.1-0.9,12.4-1.4,18.6-1.1c8.5,0.5,16.4,4,23.7,8c14.4,7.8,27.6,19.3,38,32.2c-0.1,0.4-0.1,0.8-0.1,1.1c-2.2,0.5-4.3,1.2-6.3,2.1c-3.9-5.8-11.6-11.6-14.7-13.9c-14.3-10.3-32.7-11.1-49.6-9.9c-19.5,1.5-56.2,5.8-58.5,30.4c-3.7-0.7-7.4-0.6-11.2-0.3C158.9,100.7,159,100.2,159,99.7z M282.7,121.9c-21.3,2-42.7,3.5-64.1,4.3c-10,0.4-19.9,0.5-29.8,0.5c0.1-0.7,0.1-1.5-0.1-2.3c-0.9-3.5-1-7.2-2.1-10.7c-0.9-3.1-3.1-5.5-5.6-7.4c0-0.2,0-0.3,0-0.5c-1.8-19.4,30.9-22.1,44.1-23.4c13.3-1.3,26.4-1.5,39.1,3.5c4.7,1.9,7.9,4,11.8,7.2c2.1,1.7,4.1,3.5,6,5.4c0.6,0.6,1.1,1.3,1.7,2c-0.2,0.7-0.3,1.3-0.2,2C279.5,108.6,281.8,114.9,282.7,121.9z M135.5,117c2.8-3.5,9.2-3.2,13.2-3.6c7.5-0.8,15.5-3.1,22.8-0.2c5.9,2.4,5.5,7.9,6.5,13.2c-15-0.2-30-0.5-45-0.7C133.1,122.7,133.5,119.4,135.5,117z M151.5,137.3c2.3,0.1,4.7,0.1,7.1,0.2c-2.2,15.7,2.7,31.3,3.9,46.9c1.6,19.6,4.3,39.1,6.3,58.6c0.9,8.6,1.5,17.2,2.4,25.7c0.6,5.9,2.3,12.7,0.1,18.4c-2.8,7.3-19.5,7.6-20.3-0.6c0-0.3,0.1-0.6,0.1-1v-3c0-1.8-0.7-3.1-1.8-3.9c-1.8-8.7-1.5-17.9-2-26.8c-0.6-12.6-2.6-25.1-3.9-37.7c-2.6-25.9-7.2-51.7-10.3-77.6C139.1,136.9,145.3,137.1,151.5,137.3z M181.5,291c0.7-1.9,1.2-3.8,1.4-5.8c2,6.6,2,13.8-0.5,20.3c-4.1,10.7-15.6,15.9-26.4,11.5c-14.8-6-21.6-26.5-18.6-43c0.5,4.4,1.2,8.8,2.6,13.2c1.2,11.9,13.7,17.9,25.4,16.3C172.8,302.4,178.9,298,181.5,291z M140.4,452.5c-1.6-1.8-4.2-2.6-6.7-1c-15.3-2.7-30.1-8-43-17.1c-18.9-13.3-28.9-34.2-32.5-56.5c-3.8-23.4-1.1-46.9,0.4-70.3c2.1-31,2.3-62.1-0.3-93c-1.2-14.4-3-28.8-5.4-43.1c4.2-5.5,7.7-11.9,12.8-16.6c4.4-4.1,9.9-7.4,15.4-9.9c10.8-4.9,22.8-6.8,34.5-7.6c2.1-0.2,4.2-0.2,6.3-0.3c0,0.2,0,0.4,0,0.6c3.1,25.9,7.9,51.7,10.3,77.6c1.1,12.2,3,24.3,3.8,36.5c-0.3,0.2-0.5,0.5-0.8,0.8c-16.5,20.2-10.9,58.7,12,72.3c-0.8,0.9-1.3,2.2-1.3,3.7c0.2,42.3,15.8,83,16.1,125.2C154.9,453.8,147.6,453.4,140.4,452.5z M170.8,473.8c0,0.2,0,0.4,0,0.7c0,0,0,0-0.1,0c-8.6,2.2-17.5,1.9-26.2,3.3c-0.7-2.5-1.4-5-2-7.5c-0.5-2.1-0.9-4.3-1.3-6.4c7.3,0.9,14.7,1.3,22.2,1.3c1.9,1.9,5.4,1.8,7.6-0.1c0.3,0,0.6,0,0.9,0C171.6,467.9,171,470.8,170.8,473.8z M173.1,453.5c-0.2-42.1-15.6-82.6-16.1-124.8c7.8,1.8,15.5,0.5,22-3.3c0,0,0,0,0,0.1c0.1,23.8,4.7,47.5,8.3,70.9c1.8,11.7,3.6,23.4,5.4,35.1c0.6,3.8,1.6,7.5,2.6,11.3c0.6,2.3,1.9,5.7,1.8,8.6C189.1,452.4,181.1,453.2,173.1,453.5z M247.4,444.3c-13.2,1.8-26.3,3.9-39.5,5.7c-0.3-4.9-2-10-3.3-14.5c-3.1-11.6-4-24.1-5.8-36c-3.8-24.7-8.8-49.8-8.9-74.9c0-2.8-1.8-4.4-3.9-4.8c2.3-2.5,4.3-5.4,5.8-8.6c6.3-13.7,3.9-31.8-5.8-43.2c-1.2-1.4-2.7-2.1-4.2-2.2c-2.4-21.5-4.1-43.1-6.7-64.6c-1.3-11.3-2-22.6-3.9-33.8c-1.6-9.7-3.4-19.8-1.7-29.6c8.9,0.1,17.7,0.1,26.6,0c32.4-0.5,64.8-2.5,97.1-5.7c2.6-0.3,5.2-0.5,7.8-0.8c0.3,12.2,1.9,24.2,3.7,36.2c1.9,13,2.8,26.1,4.5,39.1c1.4,10.6,2.3,21.2,3.5,31.8c-0.1,0.1-0.1,0.2-0.2,0.3c-7.2,16-7.1,35.9-3,52.6c2.6,10.7,9.3,19.9,18.5,25c0.4,22.4,3.6,44.7,5.9,67c1.2,11.2,2.6,22.4,3.5,33.7c0.5,6.8,0.8,13.7,1.9,20.5C308.6,438.5,277.9,440.2,247.4,444.3z M378.6,436.7c-9.6,0.4-19.1,0.5-27.9,0.6c-0.1-0.1-0.2-0.2-0.4-0.3c-1.3-6.8-1.5-13.9-2-20.8c-0.8-11.3-2.3-22.5-3.5-33.7c-2.2-20.6-5.1-41.4-5.8-62.2c1,0.2,2,0.3,3,0.4c8.2,0.7,16.2-1.3,23-5.4c0.8,19.8,5.3,39.3,7.2,59c1.9,19.2,5,38.2,6.3,57.4C377.8,433.1,377.6,434.9,378.6,436.7z M397.1,456c-3.7,0.4-7.3,1.2-10.9,2.4c-1.6,0.5-3.2,1.1-4.7,1.7c-1-4.1-0.6-8.4-1.3-12.6c5.6-0.2,11.3-0.6,16.9-1.2c0.1,1.5,0.1,3.1,0.1,4.6C397.2,452.6,397.1,454.3,397.1,456z M456.5,390.1c-5.9,28.4-27.4,39.5-52.4,44c-0.4-0.3-0.8-0.6-1.2-0.8c-3-1.7-5.7-0.2-6.9,2.1c-2,0.2-4,0.5-6.1,0.7c-1.1-20.3-4.3-40.5-6.4-60.7c-2.3-21.8-7.4-43.5-7.5-65.5c0-1.4-0.4-2.4-1.1-3.2c1.4-1.9,2.7-3.9,3.8-6c7.9-16.2,1.9-40.7-12.5-51.4c-0.6-0.4-1.2-0.7-1.8-0.9c-1.1-6.9-2.4-13.8-3.4-20.5c-1.5-10.7-2.4-21.4-3.4-32.1c14.1-1.2,22.6-13.9,21.7-28c-1-14.8-12.9-24.8-27.4-21.9c-0.3-2.7-0.6-5.3-0.7-8c-0.1-1.9-0.2-3.8-0.2-5.7c0-0.9,0-0.6,0.1-1.4c0-0.1,0-0.1,0-0.1c1.3-1.4,1.5-2.9,1.1-4.3c6-0.3,12-0.4,18.1-0.3c23.1,0.6,47.5,6.9,61.7,26.5c11.9,16.4,14.5,37.8,15.6,57.8c-0.1-0.3-0.3-0.7-0.4-1c-2.1-4.2-7.2-2.6-9.2,0.5c-1.2-1.4-3.1-2.3-5.2-2.2c-6.1,0.4-12.2-0.3-18.3-0.1c-6.9,0.2-13.8,0.3-20.7,0.3c-2.1,0-3.6,1-4.3,2.4c-2.3,0.6-4.3,2.5-4.3,5.5c0,11,0.1,22,1,33c0.2,2.9,2.9,5.4,5.9,5.1c17.4-2,34.5-5.9,52-6c3,0,4.7-2.7,5-5.3c0.2,3.7,0.4,7.5,0.8,11.2c1.3,15.3,3.4,30.6,5.4,45.8C458.8,329.1,462.6,360.3,456.5,390.1z M438.9,228.5c-0.2,2.8-0.4,5.5-0.6,8.3c-14,0.6-27.8,3.3-41.7,5.2c-0.5-7.8-0.6-15.5-0.6-23.3c3.3,0,6.6,0,9.8,0c4.9,0,9.8-0.4,14.7-0.4c2.6,0,5.3,0.1,7.9,0.4c0.5,0,1,0,1.6,0c1.8,1,4.3,1.1,6.2-0.1c0.8,0.9,1.8,1.5,2.9,1.8C439.4,223.1,439.1,226.1,438.9,228.5z"/><path fill="#010101" d="M264,355.7c-4-24.8-4-50-4-75c0-2.3-2.2-4.7-4.4-5c-8.1-1-16.3-2-24.5-2.1c-2.6,0-4.1,1.4-4.6,3.2c-2.7,0.3-5.3,2.3-5.4,5.7c-0.9,23.7,0.9,47.3,1,71c0,4.2,3.8,5.6,6.9,4.6c5.6,9.5,22.8,6.4,31.4,3.2C262.5,360.5,264.4,358.2,264,355.7z M247.2,353c-2,0.2-4.1,0.4-6.1,0.2c-1.4-0.1-3.2-1.5-2.4,0.2c-1.1-2.6-3.5-3.5-5.7-3.4v-1.2c0-0.2,0-0.4,0-0.7c-0.2-21.1-1.7-42.3-1.1-63.4c0,0,0,0,0,0c5.7,0.1,11.4,0.7,17.1,1.4c0,22.1,0.2,44.3,3.3,66.2C250.6,352.5,248.9,352.8,247.2,353z"/></svg>