<svg xmlns="http://www.w3.org/2000/svg" viewBox="0 0 100 100"><path fill="#c7ede6" d="M87.215,56.71C88.35,54.555,89,52.105,89,49.5c0-6.621-4.159-12.257-10.001-14.478 C78.999,35.015,79,35.008,79,35c0-11.598-9.402-21-21-21c-9.784,0-17.981,6.701-20.313,15.757C36.211,29.272,34.638,29,33,29 c-7.692,0-14.023,5.793-14.89,13.252C12.906,43.353,9,47.969,9,53.5C9,59.851,14.149,65,20.5,65c0.177,0,0.352-0.012,0.526-0.022 C21.022,65.153,21,65.324,21,65.5C21,76.822,30.178,86,41.5,86c6.437,0,12.175-2.972,15.934-7.614C59.612,80.611,62.64,82,66,82 c4.65,0,8.674-2.65,10.666-6.518C77.718,75.817,78.837,76,80,76c6.075,0,11-4.925,11-11C91,61.689,89.53,58.727,87.215,56.71z"/><path fill="#fdfcef" d="M72,61h-5.75c-2.485,0.75-4.5-1.265-4.5-3.75c0-2.333,1.782-4.229,4.055-4.455 c-0.022-0.181-0.055-0.358-0.055-0.545c0-2.485,2.015-4.5,4.5-4.5c1.438,0,2.703,0.686,3.527,1.736 c0.14-2.636,2.302-4.736,4.973-4.736c2.761,0,5,2.239,5,5c0,0.446-0.077,0.87-0.187,1.282c0.642-0.777,1.6-1.282,2.687-1.282 c1.781,0,3.234,1.335,3.455,3.055c0.181-0.022,0.358-0.055,0.545-0.055c2.485,0,4.5,2.015,4.5,4.5s-2.015,4.5-4.5,3.75h-9.5H75v1 h-3V61z"/><path fill="#472b29" d="M78.5,44c3.033,0,5.5,2.467,5.5,5.5c0,0.016,0,0.031,0,0.047C84.602,49.192,85.29,49,86,49 c1.831,0,3.411,1.261,3.858,3.005C89.905,52.002,89.952,52,90,52c3.099,0,5.549,2.834,4.893,6.047 C94.413,60.398,92.204,62,89.804,62l-14.679,0c-0.276,0-0.5-0.224-0.5-0.5s0.224-0.5,0.5-0.5l14.718,0 c1.92,0,3.687-1.282,4.071-3.163C94.439,55.267,92.479,53,90,53c-0.117,0-0.23,0.017-0.343,0.032l-0.141,0.019 c-0.021,0.003-0.041,0.004-0.062,0.004c-0.246,0-0.462-0.185-0.495-0.437C88.768,51.125,87.496,50,86,50 c-0.885,0-1.723,0.401-2.301,1.1c-0.098,0.118-0.241,0.182-0.386,0.182c-0.078,0-0.156-0.018-0.228-0.056 c-0.209-0.107-0.314-0.346-0.254-0.573c0.16-0.6,0.202-1.069,0.147-1.549c-0.24-2.127-1.959-3.909-4.092-4.088 c-2.551-0.215-4.725,1.728-4.859,4.246c-0.011,0.208-0.15,0.387-0.349,0.45c-0.05,0.016-0.101,0.024-0.152,0.024 c-0.15,0-0.296-0.069-0.392-0.192C72.362,48.563,71.221,48,70,48c-2.206,0-4,1.794-4,4c0,0.117,0.017,0.23,0.032,0.343 l0.019,0.141c0.016,0.134-0.022,0.268-0.106,0.373c-0.084,0.105-0.207,0.172-0.34,0.185c-2.352,0.234-4.042,2.429-3.504,4.865 C62.509,59.76,64.275,61,66.173,61l5.952,0c0.276,0,0.5,0.224,0.5,0.5s-0.224,0.5-0.5,0.5l-5.938,0 c-2.467,0-4.708-1.704-5.115-4.138c-0.462-2.763,1.344-5.22,3.931-5.74C65.001,52.082,65,52.041,65,52c0-2.757,2.243-5,5-5 c1.176,0,2.293,0.416,3.183,1.164C73.781,45.76,75.945,44,78.5,44L78.5,44z"/><path fill="#472b29" d="M80.25 51.25c1.403 0 2.609.999 2.913 2.341.367-.222.786-.341 1.212-.341 1.202 0 2.198.897 2.353 2.068.203-.045.396-.068.585-.068 1.529 0 2.811 1.2 2.918 2.732.009.138-.094.257-.232.267-.006 0-.012 0-.018 0-.13 0-.24-.101-.249-.232-.089-1.271-1.151-2.268-2.419-2.268-.229 0-.47.042-.738.127-.022.007-.045.01-.067.01-.055 0-.11-.02-.156-.054-.064-.047-.102-.129-.102-.209 0-1.034-.841-1.875-1.875-1.875-.447 0-.885.168-1.231.473-.047.041-.106.063-.165.063-.032 0-.063-.006-.093-.019-.088-.035-.148-.117-.155-.212-.102-1.292-1.191-2.305-2.479-2.305-.208 0-.425.034-.682.107-.023.007-.047.01-.07.01-.109 0-.207-.073-.239-.182-.038-.133.039-.271.172-.309C79.733 51.29 79.994 51.25 80.25 51.25L80.25 51.25zM66.367 52.75c1.326 0 2.508.897 2.874 2.182.038.133-.039.271-.172.309-.023.007-.046.01-.068.01-.109 0-.209-.072-.24-.182-.305-1.071-1.289-1.818-2.393-1.818-.117 0-.23.014-.342.029-.012.002-.023.003-.035.003-.121 0-.229-.092-.246-.217-.019-.137.077-.263.214-.281C66.092 52.766 66.228 52.75 66.367 52.75L66.367 52.75z"/><path fill="#fff" d="M27.405 64H17.5c-.276 0-.5-.224-.5-.5s.224-.5.5-.5h9.905c.276 0 .5.224.5.5S27.682 64 27.405 64zM30.5 64h-1c-.276 0-.5-.224-.5-.5s.224-.5.5-.5h1c.276 0 .5.224.5.5S30.777 64 30.5 64zM35.491 66H26.5c-.276 0-.5-.224-.5-.5s.224-.5.5-.5h8.991c.276 0 .5.224.5.5S35.767 66 35.491 66zM24.5 66h-1c-.276 0-.5-.224-.5-.5s.224-.5.5-.5h1c.276 0 .5.224.5.5S24.777 66 24.5 66zM21.5 66h-2c-.276 0-.5-.224-.5-.5s.224-.5.5-.5h2c.276 0 .5.224.5.5S21.777 66 21.5 66zM27.5 68h-2c-.276 0-.5-.224-.5-.5s.224-.5.5-.5h2c.276 0 .5.224.5.5S27.776 68 27.5 68zM30.5 59c-.177 0-.823 0-1 0-.276 0-.5.224-.5.5 0 .276.224.5.5.5.177 0 .823 0 1 0 .276 0 .5-.224.5-.5C31 59.224 30.776 59 30.5 59zM30.5 61c-.177 0-4.823 0-5 0-.276 0-.5.224-.5.5 0 .276.224.5.5.5.177 0 4.823 0 5 0 .276 0 .5-.224.5-.5C31 61.224 30.776 61 30.5 61zM35.5 63c-.177 0-2.823 0-3 0-.276 0-.5.224-.5.5 0 .276.224.5.5.5.177 0 2.823 0 3 0 .276 0 .5-.224.5-.5C36 63.224 35.776 63 35.5 63z"/><g><path fill="#fff" d="M69 21H59c-.276 0-.5-.224-.5-.5S58.724 20 59 20h10c.276 0 .5.224.5.5S69.276 21 69 21zM73 21h-2c-.276 0-.5-.224-.5-.5S70.724 20 71 20h2c.276 0 .5.224.5.5S73.276 21 73 21zM78 23H68c-.276 0-.5-.224-.5-.5S67.724 22 68 22h10c.276 0 .5.224.5.5S78.277 23 78 23zM66 23h-1c-.276 0-.5-.224-.5-.5S64.724 22 65 22h1c.276 0 .5.224.5.5S66.276 23 66 23zM62.875 23H61c-.276 0-.5-.224-.5-.5S60.724 22 61 22h1.875c.276 0 .5.224.5.5S63.151 23 62.875 23zM72 19h-5c-.276 0-.5-.224-.5-.5S66.724 18 67 18h5c.276 0 .5.224.5.5S72.277 19 72 19zM69 25h-2c-.276 0-.5-.224-.5-.5S66.724 24 67 24h2c.276 0 .5.224.5.5S69.276 25 69 25z"/></g><g><path fill="#fdfcef" d="M32.25,29.5c0,0-1.567,0-3.5,0s-3.5-1.567-3.5-3.5c0-1.781,1.335-3.234,3.055-3.455 C28.277,22.366,28.25,22.187,28.25,22c0-1.933,1.567-3.5,3.5-3.5c1.032,0,1.95,0.455,2.59,1.165 c0.384-1.808,1.987-3.165,3.91-3.165c2.209,0,4,1.791,4,4c0,0.191-0.03,0.374-0.056,0.558c0.428-0.344,0.965-0.558,1.556-0.558 c1.228,0,2.245,0.887,2.455,2.055c0.179-0.028,0.358-0.055,0.545-0.055c1.933,0,3.5,1.567,3.5,3.5s-1.567,3.5-3.5,3.5 s-7.5,0-7.5,0V30h-7V29.5z"/><path fill="#472b29" d="M30.5 25c.138 0 .25-.112.25-.25 0-1.223-.995-2.218-2.218-2.218-.034.009-.737-.001-1.244.136-.133.036-.212.173-.176.306.036.134.173.213.306.176.444-.12 1.1-.12 1.113-.118.948 0 1.719.771 1.719 1.718C30.25 24.888 30.362 25 30.5 25zM37.25 29A.5.5 0 1 0 37.25 30 .5.5 0 1 0 37.25 29z"/><path fill="#472b29" d="M28.75,30h3.5c0.276,0,0.5-0.224,0.5-0.5s-0.224-0.5-0.5-0.5h-3.5c-1.654,0-3-1.346-3-3 c0-1.496,1.125-2.768,2.618-2.959c0.134-0.018,0.255-0.088,0.336-0.196s0.115-0.244,0.094-0.377 C28.775,22.314,28.75,22.16,28.75,22c0-1.654,1.346-3,3-3c0.85,0,1.638,0.355,2.219,1c0.125,0.139,0.321,0.198,0.5,0.148 c0.182-0.049,0.321-0.195,0.36-0.379C35.17,18.165,36.609,17,38.25,17c1.93,0,3.5,1.57,3.5,3.5c0,0.143-0.021,0.28-0.041,0.418 c-0.029,0.203,0.063,0.438,0.242,0.54c0.179,0.102,0.396,0.118,0.556-0.01C42.872,21.155,43.301,21,43.75,21 c0.966,0,1.792,0.691,1.963,1.644c0.048,0.267,0.296,0.446,0.569,0.405C46.436,23.025,46.59,23,46.75,23c1.654,0,3,1.346,3,3 s-1.346,3-3,3h-7.5c-0.276,0-0.5,0.224-0.5,0.5s0.224,0.5,0.5,0.5h7.5c2.206,0,4-1.794,4-4s-1.794-4-4-4 c-0.059,0-0.116,0.002-0.174,0.006C46.162,20.82,45.039,20,43.75,20c-0.349,0-0.689,0.061-1.011,0.18 C42.574,17.847,40.624,16,38.25,16c-1.831,0-3.466,1.127-4.153,2.774C33.417,18.276,32.595,18,31.75,18c-2.206,0-4,1.794-4,4 c0,0.048,0.001,0.095,0.004,0.142C26.011,22.59,24.75,24.169,24.75,26C24.75,28.206,26.544,30,28.75,30z"/><path fill="#472b29" d="M34.25,29c0.159,0,0.841,0,1,0c0.276,0,0.5,0.224,0.5,0.5c0,0.276-0.224,0.5-0.5,0.5 c-0.159,0-0.841,0-1,0c-0.276,0-0.5-0.224-0.5-0.5C33.75,29.224,33.974,29,34.25,29z"/></g><g><path fill="#88cdd7" d="M35.952 37.904L50.659 45.54 64.605 39.429 40.75 35.25z"/><path fill="#472b29" d="M50.634,46.315l-16.163-8.393l6.157-3.405l26.381,4.623L50.634,46.315z M37.434,37.884 l13.251,6.881L62.2,39.719l-21.328-3.736L37.434,37.884z"/><path fill="#88cdd7" d="M71.875,30.375c-4.25-0.875-7.125,0.375-9.375,1.25s-27.25,16.75-27.25,16.75l-8.625-2.625 L23.5,47.875c0,0,6.75,6.625,8.625,6.625c1.839,0,13.167-3.845,16.317-5.055l-3.4,16.805l7-4.25l8.956-19.242 c2.665-1.52,5.232-3.012,7.128-4.133c5.5-3.25,5.75-4.375,5.75-4.375S76.125,31.25,71.875,30.375z"/><path fill="#472b29" d="M44.039,67.678l3.468-17.14C43.51,51.983,33.957,55.2,32.125,55.2 c-2.005,0-7.484-5.225-9.115-6.825L22.4,47.776l4.108-2.794l8.638,2.629c2.861-1.814,24.915-15.789,27.1-16.639l0.317-0.124 c2.193-0.858,5.195-2.037,9.453-1.159c1.61,0.332,2.619,1.006,2.997,2.004c0.484,1.278-0.302,2.572-0.524,2.899 c-0.273,0.575-1.424,1.926-6.008,4.635c-1.854,1.096-4.345,2.545-6.943,4.027l-8.951,19.233L44.039,67.678z M49.381,48.335 l-3.336,16.487l5.453-3.311l8.96-19.252l0.193-0.11c2.661-1.518,5.225-3.008,7.118-4.127c4.847-2.864,5.43-3.972,5.452-4.018 l0.033-0.147l0.062-0.027c0.185-0.252,0.619-1.043,0.388-1.646c-0.248-0.645-1.208-0.967-1.97-1.124 c-3.847-0.791-6.516,0.253-8.659,1.092l-0.32,0.125c-1.794,0.697-20.191,12.283-27.129,16.688l-0.271,0.173l-8.612-2.621 l-2.138,1.453c3.035,2.907,6.603,5.829,7.521,5.829c1.589,0,12.415-3.605,16.066-5.008L49.381,48.335z"/><path fill="#ef9922" d="M57.152,42.798c0.674-0.13,1.267-0.137,1.848-0.111"/><path fill="#472b29" d="M57.152,43.049c-0.117,0-0.223-0.083-0.245-0.202c-0.026-0.136,0.062-0.267,0.197-0.293 c0.743-0.145,1.381-0.138,1.907-0.116c0.138,0.007,0.244,0.123,0.238,0.262c-0.006,0.138-0.13,0.25-0.262,0.238 c-0.496-0.022-1.098-0.028-1.788,0.106C57.184,43.048,57.168,43.049,57.152,43.049z"/><path fill="#ef9922" d="M53.75,44.25c0.704-0.433,1.324-0.751,1.883-0.984"/><path fill="#472b29" d="M53.75,44.5c-0.084,0-0.166-0.042-0.213-0.119c-0.072-0.117-0.036-0.271,0.082-0.344 c0.687-0.423,1.314-0.75,1.918-1.001c0.127-0.054,0.273,0.006,0.326,0.135c0.054,0.127-0.007,0.273-0.135,0.326 c-0.579,0.241-1.184,0.557-1.848,0.966C53.84,44.488,53.795,44.5,53.75,44.5z"/><path fill="#ef9922" d="M48.562,49.438c0,0,2.113-2.482,4.146-4.313"/><path fill="#472b29" d="M48.563 49.688c-.058 0-.115-.02-.162-.06-.105-.09-.118-.247-.028-.353.021-.024 2.147-2.516 4.169-4.336.103-.093.26-.084.353.019s.084.261-.019.353c-1.997 1.799-4.101 4.265-4.122 4.289C48.704 49.657 48.633 49.688 48.563 49.688zM62.273 36.564A.894.894 0 1 0 62.273 38.352.894.894 0 1 0 62.273 36.564zM58.697 38.352000000000004A.894.894 0 1 0 58.697 40.14.894.894 0 1 0 58.697 38.352000000000004z"/><g><path fill="#472b29" d="M55.121 40.14A0.894 0.894 0 1 0 55.121 41.928A0.894 0.894 0 1 0 55.121 40.14Z"/></g><g><path fill="#472b29" d="M51.545 41.928000000000004A0.894 0.894 0 1 0 51.545 43.716A0.894 0.894 0 1 0 51.545 41.928000000000004Z"/></g><g><path fill="#472b29" d="M47.97 43.716A0.894 0.894 0 1 0 47.97 45.504A0.894 0.894 0 1 0 47.97 43.716Z"/></g><g><path fill="#472b29" d="M44.394 45.504000000000005A0.894 0.894 0 1 0 44.394 47.292A0.894 0.894 0 1 0 44.394 45.504000000000005Z"/></g><g><path fill="#88cdd7" d="M66.31,33.592c1.394-1.019,2.352-2.133,2.838-3.35"/><path fill="#472b29" d="M66.312,34.292c-0.216,0-0.429-0.1-0.566-0.287c-0.228-0.312-0.16-0.75,0.152-0.979 c1.3-0.95,2.174-1.975,2.6-3.043c0.144-0.358,0.549-0.535,0.909-0.392c0.359,0.143,0.534,0.55,0.392,0.909 c-0.524,1.317-1.559,2.547-3.074,3.656C66.6,34.248,66.454,34.292,66.312,34.292z"/></g></g><g><path fill="#472b29" d="M71.5,73h-27c-0.276,0-0.5-0.224-0.5-0.5s0.224-0.5,0.5-0.5h27c0.276,0,0.5,0.224,0.5,0.5 S71.776,73,71.5,73z"/></g><g><path fill="#472b29" d="M41.5,73h-5c-0.276,0-0.5-0.224-0.5-0.5s0.224-0.5,0.5-0.5h5c0.276,0,0.5,0.224,0.5,0.5 S41.776,73,41.5,73z"/></g><g><path fill="#472b29" d="M33.5,73h-3c-0.276,0-0.5-0.224-0.5-0.5s0.224-0.5,0.5-0.5h3c0.276,0,0.5,0.224,0.5,0.5 S33.776,73,33.5,73z"/></g></svg>