<svg xmlns="http://www.w3.org/2000/svg" viewBox="0 0 100 100"><path fill="#c7ede6" d="M87.215,56.71C88.35,54.555,89,52.105,89,49.5c0-6.621-4.159-12.257-10.001-14.478 C78.999,35.015,79,35.008,79,35c0-11.598-9.402-21-21-21c-9.784,0-17.981,6.701-20.313,15.757C36.211,29.272,34.638,29,33,29 c-7.692,0-14.023,5.793-14.89,13.252C12.906,43.353,9,47.969,9,53.5C9,59.851,14.149,65,20.5,65c0.177,0,0.352-0.012,0.526-0.022 C21.022,65.153,21,65.324,21,65.5C21,76.822,30.178,86,41.5,86c6.437,0,12.175-2.972,15.934-7.614C59.612,80.611,62.64,82,66,82 c4.65,0,8.674-2.65,10.666-6.518C77.718,75.817,78.837,76,80,76c6.075,0,11-4.925,11-11C91,61.689,89.53,58.727,87.215,56.71z"/><path fill="#fdfcef" d="M70,39h-5.75c-2.485,0.75-4.5-1.265-4.5-3.75c0-2.333,1.782-4.229,4.055-4.455 c-0.022-0.181-0.055-0.358-0.055-0.545c0-2.485,2.015-4.5,4.5-4.5c1.438,0,2.703,0.686,3.527,1.736 c0.14-2.636,2.302-4.736,4.973-4.736c2.761,0,5,2.239,5,5c0,0.446-0.077,0.87-0.187,1.282c0.642-0.777,1.6-1.282,2.687-1.282 c1.781,0,3.234,1.335,3.455,3.055c0.181-0.022,0.358-0.055,0.545-0.055c2.485,0,4.5,2.015,4.5,4.5s-2.015,4.5-4.5,3.75h-9.5H73v1 h-3V39z"/><path fill="#472b29" d="M76.5,22c3.033,0,5.5,2.467,5.5,5.5c0,0.016,0,0.031,0,0.047C82.602,27.192,83.29,27,84,27 c1.831,0,3.411,1.261,3.858,3.005C87.905,30.002,87.952,30,88,30c3.099,0,5.549,2.834,4.893,6.047 C92.413,38.398,90.204,40,87.804,40l-14.679,0c-0.276,0-0.5-0.224-0.5-0.5s0.224-0.5,0.5-0.5l14.718,0 c1.92,0,3.687-1.282,4.071-3.163C92.439,33.267,90.479,31,88,31c-0.117,0-0.23,0.017-0.343,0.032l-0.141,0.019 c-0.021,0.003-0.041,0.004-0.062,0.004c-0.246,0-0.462-0.185-0.495-0.437C86.768,29.125,85.496,28,84,28 c-0.885,0-1.723,0.401-2.301,1.1c-0.098,0.118-0.241,0.182-0.386,0.182c-0.078,0-0.156-0.018-0.228-0.056 c-0.209-0.107-0.314-0.346-0.254-0.573c0.16-0.6,0.202-1.069,0.147-1.549c-0.24-2.127-1.959-3.909-4.092-4.088 c-2.551-0.215-4.725,1.728-4.859,4.246c-0.011,0.208-0.15,0.387-0.349,0.45c-0.05,0.016-0.101,0.024-0.152,0.024 c-0.15,0-0.296-0.069-0.392-0.192C70.362,26.563,69.221,26,68,26c-2.206,0-4,1.794-4,4c0,0.117,0.017,0.23,0.032,0.343 l0.019,0.141c0.016,0.134-0.022,0.268-0.106,0.373c-0.084,0.105-0.207,0.172-0.34,0.185c-2.352,0.234-4.042,2.429-3.504,4.865 C60.509,37.76,62.275,39,64.173,39l5.952,0c0.276,0,0.5,0.224,0.5,0.5s-0.224,0.5-0.5,0.5l-5.938,0 c-2.467,0-4.708-1.704-5.115-4.138c-0.462-2.763,1.344-5.22,3.931-5.74C63.001,30.082,63,30.041,63,30c0-2.757,2.243-5,5-5 c1.176,0,2.293,0.416,3.183,1.164C71.781,23.76,73.945,22,76.5,22L76.5,22z"/><path fill="#472b29" d="M78.25 29.25c1.403 0 2.609.999 2.913 2.341.367-.222.786-.341 1.212-.341 1.202 0 2.198.897 2.353 2.068.203-.045.396-.068.585-.068 1.529 0 2.811 1.2 2.918 2.732.009.138-.094.257-.232.267-.006 0-.012 0-.018 0-.13 0-.24-.101-.249-.232-.089-1.271-1.151-2.268-2.419-2.268-.229 0-.47.042-.738.127-.022.007-.045.01-.067.01-.055 0-.11-.02-.156-.054-.064-.047-.102-.129-.102-.209 0-1.034-.841-1.875-1.875-1.875-.447 0-.885.168-1.231.473-.047.041-.106.063-.165.063-.032 0-.063-.006-.093-.019-.088-.035-.148-.117-.155-.212-.102-1.292-1.191-2.305-2.479-2.305-.208 0-.425.034-.682.107-.023.007-.047.01-.07.01-.109 0-.207-.073-.239-.182-.038-.133.039-.271.172-.309C77.733 29.29 77.994 29.25 78.25 29.25L78.25 29.25zM64.367 30.75c1.326 0 2.508.897 2.874 2.182.038.133-.039.271-.172.309-.023.007-.046.01-.068.01-.109 0-.209-.072-.24-.182-.305-1.071-1.289-1.818-2.393-1.818-.117 0-.23.014-.342.029-.012.002-.023.003-.035.003-.121 0-.229-.092-.246-.217-.019-.137.077-.263.214-.281C64.092 30.766 64.228 30.75 64.367 30.75L64.367 30.75z"/><path fill="#fff" d="M15.405 51H5.5C5.224 51 5 50.776 5 50.5S5.224 50 5.5 50h9.905c.276 0 .5.224.5.5S15.682 51 15.405 51zM18.5 51h-1c-.276 0-.5-.224-.5-.5s.224-.5.5-.5h1c.276 0 .5.224.5.5S18.777 51 18.5 51zM23.491 53H14.5c-.276 0-.5-.224-.5-.5s.224-.5.5-.5h8.991c.276 0 .5.224.5.5S23.767 53 23.491 53zM12.5 53h-1c-.276 0-.5-.224-.5-.5s.224-.5.5-.5h1c.276 0 .5.224.5.5S12.777 53 12.5 53zM9.5 53h-2C7.224 53 7 52.776 7 52.5S7.224 52 7.5 52h2c.276 0 .5.224.5.5S9.777 53 9.5 53zM15.5 55h-2c-.276 0-.5-.224-.5-.5s.224-.5.5-.5h2c.276 0 .5.224.5.5S15.776 55 15.5 55zM18.5 46c-.177 0-.823 0-1 0-.276 0-.5.224-.5.5 0 .276.224.5.5.5.177 0 .823 0 1 0 .276 0 .5-.224.5-.5C19 46.224 18.776 46 18.5 46zM18.5 48c-.177 0-4.823 0-5 0-.276 0-.5.224-.5.5 0 .276.224.5.5.5.177 0 4.823 0 5 0 .276 0 .5-.224.5-.5C19 48.224 18.776 48 18.5 48zM23.5 50c-.177 0-2.823 0-3 0-.276 0-.5.224-.5.5 0 .276.224.5.5.5.177 0 2.823 0 3 0 .276 0 .5-.224.5-.5C24 50.224 23.776 50 23.5 50zM83 66H73c-.276 0-.5-.224-.5-.5S72.724 65 73 65h10c.276 0 .5.224.5.5S83.276 66 83 66zM87 66h-2c-.276 0-.5-.224-.5-.5S84.724 65 85 65h2c.276 0 .5.224.5.5S87.276 66 87 66zM92 68H82c-.276 0-.5-.224-.5-.5S81.724 67 82 67h10c.276 0 .5.224.5.5S92.277 68 92 68zM80 68h-1c-.276 0-.5-.224-.5-.5S78.724 67 79 67h1c.276 0 .5.224.5.5S80.276 68 80 68zM76.875 68H75c-.276 0-.5-.224-.5-.5S74.724 67 75 67h1.875c.276 0 .5.224.5.5S77.151 68 76.875 68zM86 64h-5c-.276 0-.5-.224-.5-.5S80.724 63 81 63h5c.276 0 .5.224.5.5S86.277 64 86 64zM83 70h-2c-.276 0-.5-.224-.5-.5S80.724 69 81 69h2c.276 0 .5.224.5.5S83.276 70 83 70z"/><g><path fill="#472b29" d="M50.254,30.4c3.499,0,6.346,2.847,6.346,6.346v0.508c0,3.499-2.847,6.346-6.346,6.346h-0.508 c-3.499,0-6.346-2.847-6.346-6.346v-0.508c0-3.499,2.847-6.346,6.346-6.346H50.254 M50.254,29h-0.508 C45.486,29,42,32.486,42,36.746v0.508C42,41.514,45.486,45,49.746,45h0.508C54.514,45,58,41.514,58,37.254v-0.508 C58,32.486,54.514,29,50.254,29L50.254,29z"/></g><g><path fill="#be7841" d="M30,72.3c-1.82,0-3.3-1.48-3.3-3.3V39c0-1.819,1.48-3.3,3.3-3.3h40c1.82,0,3.3,1.48,3.3,3.3v30 c0,1.819-1.48,3.3-3.3,3.3H30z"/><path fill="#472b29" d="M70,36.4c1.434,0,2.6,1.166,2.6,2.6v30c0,1.434-1.166,2.6-2.6,2.6H30c-1.434,0-2.6-1.166-2.6-2.6 V39c0-1.434,1.166-2.6,2.6-2.6H70 M70,35H30c-2.209,0-4,1.791-4,4v30c0,2.209,1.791,4,4,4h40c2.209,0,4-1.791,4-4V39 C74,36.791,72.209,35,70,35L70,35z"/></g><g><path fill="#be7841" d="M34.642,53.3c-4.379,0-7.942-3.563-7.942-7.942V39c0-1.819,1.48-3.3,3.3-3.3h40 c1.82,0,3.3,1.48,3.3,3.3v6.357c0,4.38-3.563,7.942-7.942,7.942H34.642z"/><path fill="#472b29" d="M70,36.4c1.434,0,2.6,1.166,2.6,2.6v6.358c0,3.993-3.249,7.242-7.242,7.242H34.642 c-3.993,0-7.242-3.249-7.242-7.242V39c0-1.434,1.166-2.6,2.6-2.6H70 M70,35H30c-2.209,0-4,1.791-4,4v6.358 C26,50.131,29.869,54,34.642,54h30.716C70.131,54,74,50.131,74,45.358V39C74,36.791,72.209,35,70,35L70,35z"/></g><g><path fill="#f1bc19" d="M37.098,56.3c-0.771,0-1.398-0.627-1.398-1.398v-3.803c0-0.771,0.627-1.398,1.398-1.398h1.804 c0.771,0,1.398,0.627,1.398,1.398v3.803c0,0.771-0.627,1.398-1.398,1.398H37.098z"/><path fill="#472b29" d="M38.902,50.4c0.385,0,0.698,0.313,0.698,0.698v3.804c0,0.385-0.313,0.698-0.698,0.698h-1.804 c-0.385,0-0.698-0.313-0.698-0.698v-3.804c0-0.385,0.313-0.698,0.698-0.698H38.902 M38.902,49h-1.804 C35.939,49,35,49.939,35,51.098v3.804C35,56.061,35.939,57,37.098,57h1.804C40.061,57,41,56.061,41,54.902v-3.804 C41,49.939,40.061,49,38.902,49L38.902,49z"/></g><g><path fill="#f1bc19" d="M61.098,56.3c-0.771,0-1.398-0.627-1.398-1.398v-3.803c0-0.771,0.627-1.398,1.398-1.398h1.804 c0.771,0,1.398,0.627,1.398,1.398v3.803c0,0.771-0.627,1.398-1.398,1.398H61.098z"/><path fill="#472b29" d="M62.902,50.4c0.385,0,0.698,0.313,0.698,0.698v3.804c0,0.385-0.313,0.698-0.698,0.698h-1.804 c-0.385,0-0.698-0.313-0.698-0.698v-3.804c0-0.385,0.313-0.698,0.698-0.698H62.902 M62.902,49h-1.804 C59.939,49,59,49.939,59,51.098v3.804C59,56.061,59.939,57,61.098,57h1.804C64.061,57,65,56.061,65,54.902v-3.804 C65,49.939,64.061,49,62.902,49L62.902,49z"/></g><g><path fill="#472b29" d="M65,39.938h-3c-0.276,0-0.5-0.224-0.5-0.5s0.224-0.5,0.5-0.5h3c0.276,0,0.5,0.224,0.5,0.5 S65.276,39.938,65,39.938z"/></g><g><path fill="#472b29" d="M58.941,39.938H30.469c-0.276,0-0.5-0.224-0.5-0.5s0.224-0.5,0.5-0.5h28.472 c0.276,0,0.5,0.224,0.5,0.5S59.217,39.938,58.941,39.938z"/></g><g><path fill="#472b29" d="M30.5,46c-0.276,0-0.5-0.224-0.5-0.5v-6.094c0-0.276,0.224-0.5,0.5-0.5s0.5,0.224,0.5,0.5V45.5 C31,45.776,30.776,46,30.5,46z"/></g><g><path fill="#472b29" d="M30.5,70.5c-0.276,0-0.5-0.224-0.5-0.5v-8.5c0-0.276,0.224-0.5,0.5-0.5s0.5,0.224,0.5,0.5V70 C31,70.276,30.776,70.5,30.5,70.5z"/></g><g><path fill="#472b29" d="M30.5,59.938c-0.276,0-0.5-0.224-0.5-0.5v-2.625c0-0.276,0.224-0.5,0.5-0.5s0.5,0.224,0.5,0.5v2.625 C31,59.714,30.776,59.938,30.5,59.938z"/></g><g><path fill="#472b29" d="M69.938,39.938h-2c-0.276,0-0.5-0.224-0.5-0.5s0.224-0.5,0.5-0.5h2c0.276,0,0.5,0.224,0.5,0.5 S70.214,39.938,69.938,39.938z"/></g><g><path fill="#fdfcef" d="M20.25,77.5c0,0-1.567,0-3.5,0s-3.5-1.567-3.5-3.5c0-1.781,1.335-3.234,3.055-3.455 C16.277,70.366,16.25,70.187,16.25,70c0-1.933,1.567-3.5,3.5-3.5c1.032,0,1.95,0.455,2.59,1.165 c0.384-1.808,1.987-3.165,3.91-3.165c2.209,0,4,1.791,4,4c0,0.191-0.03,0.374-0.056,0.558c0.428-0.344,0.965-0.558,1.556-0.558 c1.228,0,2.245,0.887,2.455,2.055c0.179-0.028,0.358-0.055,0.545-0.055c1.933,0,3.5,1.567,3.5,3.5s-1.567,3.5-3.5,3.5 s-7.5,0-7.5,0V78h-7V77.5z"/><path fill="#472b29" d="M18.5 73c.138 0 .25-.112.25-.25 0-1.223-.995-2.218-2.218-2.218-.034.009-.737-.001-1.244.136-.133.036-.212.173-.176.306.036.134.173.213.306.176.444-.12 1.1-.12 1.113-.118.948 0 1.719.771 1.719 1.718C18.25 72.888 18.362 73 18.5 73zM25.25 77A.5.5 0 1 0 25.25 78 .5.5 0 1 0 25.25 77z"/><path fill="#472b29" d="M16.75,78h3.5c0.276,0,0.5-0.224,0.5-0.5s-0.224-0.5-0.5-0.5h-3.5c-1.654,0-3-1.346-3-3 c0-1.496,1.125-2.768,2.618-2.959c0.134-0.018,0.255-0.088,0.336-0.196s0.115-0.244,0.094-0.377 C16.775,70.314,16.75,70.16,16.75,70c0-1.654,1.346-3,3-3c0.85,0,1.638,0.355,2.219,1c0.125,0.139,0.321,0.198,0.5,0.148 c0.182-0.049,0.321-0.195,0.36-0.379C23.17,66.165,24.609,65,26.25,65c1.93,0,3.5,1.57,3.5,3.5c0,0.143-0.021,0.28-0.041,0.418 c-0.029,0.203,0.063,0.438,0.242,0.54c0.179,0.102,0.396,0.118,0.556-0.01C30.872,69.155,31.301,69,31.75,69 c0.966,0,1.792,0.691,1.963,1.644c0.048,0.267,0.296,0.446,0.569,0.405C34.436,71.025,34.59,71,34.75,71c1.654,0,3,1.346,3,3 s-1.346,3-3,3h-7.5c-0.276,0-0.5,0.224-0.5,0.5s0.224,0.5,0.5,0.5h7.5c2.206,0,4-1.794,4-4s-1.794-4-4-4 c-0.059,0-0.116,0.002-0.174,0.006C34.162,68.82,33.039,68,31.75,68c-0.349,0-0.689,0.061-1.011,0.18 C30.574,65.847,28.624,64,26.25,64c-1.831,0-3.466,1.127-4.153,2.774C21.417,66.276,20.595,66,19.75,66c-2.206,0-4,1.794-4,4 c0,0.048,0.001,0.095,0.004,0.142C14.011,70.59,12.75,72.169,12.75,74C12.75,76.206,14.544,78,16.75,78z"/><path fill="#472b29" d="M22.25,77c0.159,0,0.841,0,1,0c0.276,0,0.5,0.224,0.5,0.5c0,0.276-0.224,0.5-0.5,0.5 c-0.159,0-0.841,0-1,0c-0.276,0-0.5-0.224-0.5-0.5C21.75,77.224,21.974,77,22.25,77z"/></g></svg>