<svg xmlns="http://www.w3.org/2000/svg" baseProfile="basic" viewBox="0 0 100 100"><path fill="#c7ede6" d="M87.215,56.71C88.35,54.555,89,52.105,89,49.5c0-6.621-4.159-12.257-10.001-14.478C78.999,35.015,79,35.008,79,35c0-11.598-9.402-21-21-21c-9.784,0-17.981,6.701-20.313,15.757C36.211,29.272,34.638,29,33,29c-7.692,0-14.023,5.793-14.89,13.252C12.906,43.353,9,47.969,9,53.5C9,59.851,14.149,65,20.5,65c0.177,0,0.352-0.012,0.526-0.022C21.022,65.153,21,65.324,21,65.5C21,76.822,30.178,86,41.5,86c6.437,0,12.175-2.972,15.934-7.614C59.612,80.611,62.64,82,66,82c4.65,0,8.674-2.65,10.666-6.518C77.718,75.817,78.837,76,80,76c6.075,0,11-4.925,11-11C91,61.689,89.53,58.727,87.215,56.71z"/><path fill="#fdfcef" d="M68.125,47.5c0,0-3.64,0-6.125,0s-4.5-2.015-4.5-4.5c0-2.333,1.782-4.229,4.055-4.455C61.533,38.364,61.5,38.187,61.5,38c0-2.485,2.015-4.5,4.5-4.5c1.438,0,2.703,0.686,3.527,1.736C69.667,32.6,71.829,30.5,74.5,30.5c2.761,0,5,2.239,5,5c0,0.446-0.077,0.87-0.187,1.282c0.642-0.777,1.6-1.282,2.687-1.282c1.781,0,3.234,1.335,3.455,3.055C85.636,38.533,85.813,38.5,86,38.5c2.485,0,4.5,2.015,4.5,4.5s-2.015,4.5-4.5,4.5s-9.5,0-9.5,0h-5.375V48h-3V47.5z"/><path fill="#472b29" d="M74.5,30c3.033,0,5.5,2.467,5.5,5.5c0,0.016,0,0.031,0,0.047C80.602,35.192,81.29,35,82,35c1.831,0,3.411,1.261,3.858,3.005C85.905,38.002,85.952,38,86,38c2.757,0,5,2.243,5,5s-2.243,5-5,5H71.125c-0.276,0-0.5-0.224-0.5-0.5s0.224-0.5,0.5-0.5H86c2.206,0,4-1.794,4-4s-1.794-4-4-4c-0.117,0-0.23,0.017-0.343,0.032l-0.141,0.019c-0.021,0.003-0.041,0.004-0.062,0.004c-0.246,0-0.462-0.185-0.495-0.437C84.768,37.125,83.496,36,82,36c-0.885,0-1.723,0.401-2.301,1.1c-0.098,0.118-0.241,0.182-0.386,0.182c-0.078,0-0.156-0.018-0.228-0.056c-0.209-0.107-0.314-0.346-0.254-0.573C78.946,36.218,79,35.852,79,35.5c0-2.481-2.019-4.5-4.5-4.5c-2.381,0-4.347,1.872-4.474,4.263c-0.011,0.208-0.15,0.387-0.349,0.45c-0.05,0.016-0.101,0.024-0.152,0.024c-0.15,0-0.296-0.069-0.392-0.192C68.362,34.563,67.221,34,66,34c-2.206,0-4,1.794-4,4c0,0.117,0.017,0.23,0.032,0.343l0.019,0.141c0.016,0.134-0.022,0.268-0.106,0.373s-0.207,0.172-0.34,0.185C59.549,39.247,58,40.949,58,43c0,2.206,1.794,4,4,4h6.125c0.276,0,0.5,0.224,0.5,0.5s-0.224,0.5-0.5,0.5H62c-2.757,0-5-2.243-5-5c0-2.397,1.689-4.413,4.003-4.877C61.001,38.082,61,38.041,61,38c0-2.757,2.243-5,5-5c1.176,0,2.293,0.416,3.183,1.164C69.781,31.76,71.945,30,74.5,30L74.5,30z"/><path fill="#472b29" d="M76,37c1.403,0,2.609,0.999,2.913,2.341C79.28,39.119,79.699,39,80.125,39c1.202,0,2.198,0.897,2.353,2.068C82.681,41.022,82.874,41,83.063,41c1.529,0,2.811,1.2,2.918,2.732C85.99,43.87,85.886,43.99,85.749,44c-0.006,0-0.012,0-0.018,0c-0.13,0-0.24-0.101-0.249-0.232c-0.089-1.271-1.151-2.268-2.419-2.268c-0.229,0-0.47,0.042-0.738,0.127c-0.022,0.007-0.045,0.01-0.067,0.01c-0.055,0-0.11-0.02-0.156-0.054C82.038,41.537,82,41.455,82,41.375c0-1.034-0.841-1.875-1.875-1.875c-0.447,0-0.885,0.168-1.231,0.473c-0.047,0.041-0.106,0.063-0.165,0.063c-0.032,0-0.063-0.006-0.093-0.019c-0.088-0.035-0.148-0.117-0.155-0.212C78.377,38.512,77.288,37.5,76,37.5c-0.208,0-0.425,0.034-0.682,0.107c-0.023,0.007-0.047,0.01-0.07,0.01c-0.109,0-0.207-0.073-0.239-0.182c-0.038-0.133,0.039-0.271,0.172-0.309C75.483,37.04,75.744,37,76,37L76,37z M62.117,38.5c1.326,0,2.508,0.897,2.874,2.182c0.038,0.133-0.039,0.271-0.172,0.309C64.795,40.997,64.772,41,64.75,41c-0.109,0-0.209-0.072-0.24-0.182C64.205,39.748,63.221,39,62.117,39c-0.117,0-0.23,0.014-0.342,0.029c-0.012,0.002-0.023,0.003-0.035,0.003c-0.121,0-0.229-0.092-0.246-0.217c-0.019-0.137,0.077-0.263,0.214-0.281C61.842,38.516,61.978,38.5,62.117,38.5L62.117,38.5z"/><path fill="#fff" d="M15.405,51H5.5C5.224,51,5,50.776,5,50.5S5.224,50,5.5,50h9.905c0.276,0,0.5,0.224,0.5,0.5S15.682,51,15.405,51z M18.5,51h-1c-0.276,0-0.5-0.224-0.5-0.5s0.224-0.5,0.5-0.5h1c0.276,0,0.5,0.224,0.5,0.5S18.777,51,18.5,51z M23.491,53H14.5c-0.276,0-0.5-0.224-0.5-0.5s0.224-0.5,0.5-0.5h8.991c0.276,0,0.5,0.224,0.5,0.5S23.767,53,23.491,53z M12.5,53h-1c-0.276,0-0.5-0.224-0.5-0.5s0.224-0.5,0.5-0.5h1c0.276,0,0.5,0.224,0.5,0.5S12.777,53,12.5,53z M9.5,53h-2C7.224,53,7,52.776,7,52.5S7.224,52,7.5,52h2c0.276,0,0.5,0.224,0.5,0.5S9.777,53,9.5,53z M15.5,55h-2c-0.276,0-0.5-0.224-0.5-0.5s0.224-0.5,0.5-0.5h2c0.276,0,0.5,0.224,0.5,0.5S15.776,55,15.5,55z M18.5,46c-0.177,0-0.823,0-1,0c-0.276,0-0.5,0.224-0.5,0.5s0.224,0.5,0.5,0.5c0.177,0,0.823,0,1,0c0.276,0,0.5-0.224,0.5-0.5S18.776,46,18.5,46z M18.5,48c-0.177,0-4.823,0-5,0c-0.276,0-0.5,0.224-0.5,0.5s0.224,0.5,0.5,0.5c0.177,0,4.823,0,5,0c0.276,0,0.5-0.224,0.5-0.5S18.776,48,18.5,48z M23.5,50c-0.177,0-2.823,0-3,0c-0.276,0-0.5,0.224-0.5,0.5s0.224,0.5,0.5,0.5c0.177,0,2.823,0,3,0c0.276,0,0.5-0.224,0.5-0.5S23.776,50,23.5,50z M87.5,65h-10c-0.276,0-0.5-0.224-0.5-0.5s0.224-0.5,0.5-0.5h10c0.276,0,0.5,0.224,0.5,0.5S87.776,65,87.5,65z M91.5,65h-2c-0.276,0-0.5-0.224-0.5-0.5s0.224-0.5,0.5-0.5h2c0.276,0,0.5,0.224,0.5,0.5S91.776,65,91.5,65z M96.5,67h-10c-0.276,0-0.5-0.224-0.5-0.5s0.224-0.5,0.5-0.5h10c0.276,0,0.5,0.224,0.5,0.5S96.777,67,96.5,67z M84.5,67h-1c-0.276,0-0.5-0.224-0.5-0.5s0.224-0.5,0.5-0.5h1c0.276,0,0.5,0.224,0.5,0.5S84.776,67,84.5,67z M81.375,67H79.5c-0.276,0-0.5-0.224-0.5-0.5s0.224-0.5,0.5-0.5h1.875c0.276,0,0.5,0.224,0.5,0.5S81.651,67,81.375,67z M90.5,63h-5c-0.276,0-0.5-0.224-0.5-0.5s0.224-0.5,0.5-0.5h5c0.276,0,0.5,0.224,0.5,0.5S90.777,63,90.5,63z M87.5,69h-2c-0.276,0-0.5-0.224-0.5-0.5s0.224-0.5,0.5-0.5h2c0.276,0,0.5,0.224,0.5,0.5S87.776,69,87.5,69z"/><path fill="#fefdef" d="M38.153,74.3c-2.456,0-4.453-1.967-4.453-4.385v-35.83c0-2.418,1.998-4.385,4.453-4.385h18.61L68.3,41.083v28.832c0,2.418-1.998,4.385-4.453,4.385H38.153z"/><path fill="#472b29" d="M56.477,30.4l4.155,4.099l6.968,6.876v28.54c0,2.032-1.684,3.684-3.753,3.684H38.153c-2.07,0-3.753-1.653-3.753-3.684V34.084c0-2.032,1.684-3.684,3.753-3.684h0.748h1.672h5.373H56.477 M57.051,29H45.947h-5.373h-1.672h-0.748C35.319,29,33,31.288,33,34.084v35.831C33,72.712,35.319,75,38.153,75h25.693c2.835,0,5.153-2.288,5.153-5.084V40.79H69C64.353,36.205,61.698,33.585,57.051,29L57.051,29z"/><path fill="#fef6aa" d="M56.5,30.125v6.62c0,2.616,1.991,4.755,4.424,4.755h7.201L56.5,30.125z"/><path fill="#472b29" d="M68.125,42h-7.201C58.209,42,56,39.643,56,36.744v-6.619h1v6.619C57,39.091,58.76,41,60.924,41h7.201V42z M63.1,72H38.917C37.308,72,36,70.715,36,69.136V35.348c0-1.57,1.301-2.848,2.9-2.848h1.6c0.276,0,0.5,0.224,0.5,0.5s-0.224,0.5-0.5,0.5h-1.6c-1.048,0-1.9,0.829-1.9,1.848v33.788C37,70.164,37.86,71,38.917,71H63.1c1.048,0,1.9-0.829,1.9-1.848V55.289c0-0.276,0.224-0.5,0.5-0.5s0.5,0.224,0.5,0.5v13.863C66,70.723,64.699,72,63.1,72z M65.5,53c-0.276,0-0.5-0.224-0.5-0.5v-4c0-0.276,0.224-0.5,0.5-0.5s0.5,0.224,0.5,0.5v4C66,52.776,65.776,53,65.5,53z M65.5,47c-0.276,0-0.5-0.224-0.5-0.5v-3c0-0.276,0.224-0.5,0.5-0.5s0.5,0.224,0.5,0.5v3C66,46.776,65.776,47,65.5,47z"/><path fill="#fdfcef" d="M37.5,78.5c0,0,1.567,0,3.5,0s3.5-1.567,3.5-3.5c0-1.781-1.335-3.234-3.055-3.455C41.473,71.366,41.5,71.187,41.5,71c0-1.933-1.567-3.5-3.5-3.5c-1.032,0-1.95,0.455-2.59,1.165c-0.384-1.808-1.987-3.165-3.91-3.165c-2.209,0-4,1.791-4,4c0,0.191,0.03,0.374,0.056,0.558C27.128,69.714,26.592,69.5,26,69.5c-1.228,0-2.245,0.887-2.455,2.055C23.366,71.527,23.187,71.5,23,71.5c-1.933,0-3.5,1.567-3.5,3.5s1.567,3.5,3.5,3.5s7.5,0,7.5,0V79h7V78.5z"/><path fill="#472b29" d="M39.25,74C39.112,74,39,73.888,39,73.75c0-1.223,0.995-2.218,2.218-2.218c0.034,0.009,0.737-0.001,1.244,0.136c0.133,0.036,0.212,0.173,0.176,0.306c-0.036,0.134-0.173,0.213-0.306,0.176c-0.444-0.12-1.1-0.12-1.113-0.118c-0.948,0-1.719,0.771-1.719,1.718C39.5,73.888,39.388,74,39.25,74z"/><path fill="#472b29" d="M32.5,78c-0.276,0-0.5,0.224-0.5,0.5s0.224,0.5,0.5,0.5s0.5-0.224,0.5-0.5S32.776,78,32.5,78z"/><path fill="#472b29" d="M41,79h-3.5c-0.276,0-0.5-0.224-0.5-0.5s0.224-0.5,0.5-0.5H41c1.654,0,3-1.346,3-3 c0-1.496-1.125-2.768-2.618-2.959c-0.134-0.018-0.255-0.088-0.336-0.196s-0.115-0.244-0.094-0.377C40.975,71.314,41,71.16,41,71 c0-1.654-1.346-3-3-3c-0.85,0-1.638,0.355-2.219,1c-0.125,0.139-0.321,0.198-0.5,0.148c-0.182-0.049-0.321-0.195-0.36-0.379 C34.58,67.165,33.141,66,31.5,66c-1.93,0-3.5,1.57-3.5,3.5c0,0.143,0.021,0.28,0.041,0.418c0.029,0.203-0.063,0.438-0.242,0.54 s-0.396,0.118-0.556-0.01C26.878,70.155,26.449,70,26,70c-0.966,0-1.792,0.691-1.963,1.644c-0.048,0.267-0.296,0.446-0.569,0.405 C23.314,72.025,23.16,72,23,72c-1.654,0-3,1.346-3,3s1.346,3,3,3h7.5c0.276,0,0.5,0.224,0.5,0.5S30.776,79,30.5,79H23 c-2.206,0-4-1.794-4-4s1.794-4,4-4c0.059,0,0.116,0.002,0.174,0.006C23.588,69.82,24.711,69,26,69c0.349,0,0.689,0.061,1.011,0.18 C27.176,66.847,29.126,65,31.5,65c1.831,0,3.466,1.127,4.153,2.774C36.333,67.276,37.155,67,38,67c2.206,0,4,1.794,4,4 c0,0.048-0.001,0.095-0.004,0.142C43.739,71.59,45,73.169,45,75C45,77.206,43.206,79,41,79z"/><path fill="#472b29" d="M35.5,78c-0.159,0-0.841,0-1,0c-0.276,0-0.5,0.224-0.5,0.5s0.224,0.5,0.5,0.5c0.159,0,0.841,0,1,0 c0.276,0,0.5-0.224,0.5-0.5S35.776,78,35.5,78z"/><circle cx="51" cy="53" r="8.75" fill="#78a0cf"/><path fill="#fef6aa" d="M51,44.354V53h8.646C59.646,48.225,55.775,44.354,51,44.354z"/><path fill="#f26b79" d="M51,53l6.114,6.114c1.688-1.688,2.532-3.901,2.532-6.114H51z"/><path fill="#472b29" d="M51,62c-4.963,0-9-4.038-9-9s4.037-9,9-9s9,4.038,9,9S55.963,62,51,62z M51,44.5c-4.687,0-8.5,3.813-8.5,8.5s3.813,8.5,8.5,8.5s8.5-3.813,8.5-8.5S55.687,44.5,51,44.5z"/><rect width="8.75" height=".5" x="51" y="52.75" fill="#472b29"/><path fill="#472b29" d="M57.011,59.364l-6.188-6.187C50.776,53.13,50.75,53.066,50.75,53v-8.75h0.5v8.646l6.114,6.114L57.011,59.364z"/></svg>