<svg xmlns="http://www.w3.org/2000/svg" viewBox="0 0 100 100"><path fill="#c7ede6" d="M87.215,56.71C88.35,54.555,89,52.105,89,49.5c0-6.621-4.159-12.257-10.001-14.478 C78.999,35.015,79,35.008,79,35c0-11.598-9.402-21-21-21c-9.784,0-17.981,6.701-20.313,15.757C36.211,29.272,34.638,29,33,29 c-7.692,0-14.023,5.793-14.89,13.252C12.906,43.353,9,47.969,9,53.5C9,59.851,14.149,65,20.5,65c0.177,0,0.352-0.012,0.526-0.022 C21.022,65.153,21,65.324,21,65.5C21,76.822,30.178,86,41.5,86c6.437,0,12.175-2.972,15.934-7.614C59.612,80.611,62.64,82,66,82 c4.65,0,8.674-2.65,10.666-6.518C77.718,75.817,78.837,76,80,76c6.075,0,11-4.925,11-11C91,61.689,89.53,58.727,87.215,56.71z"/><path fill="#fdfcef" d="M37,37h5.75c2.485,0.75,4.5-1.265,4.5-3.75c0-2.333-1.782-4.229-4.055-4.455 c0.022-0.181,0.055-0.358,0.055-0.545c0-2.485-2.015-4.5-4.5-4.5c-1.438,0-2.703,0.686-3.527,1.736 c-0.14-2.636-2.302-4.736-4.973-4.736c-2.761,0-5,2.239-5,5c0,0.446,0.077,0.87,0.187,1.282c-0.642-0.777-1.6-1.282-2.687-1.282 c-1.781,0-3.234,1.335-3.455,3.055c-0.181-0.022-0.358-0.055-0.545-0.055c-2.485,0-4.5,2.015-4.5,4.5s2.015,4.5,4.5,3.75h9.5H34v1 h3V37z"/><path fill="#472b29" d="M30.5,20c-3.033,0-5.5,2.467-5.5,5.5c0,0.016,0,0.031,0,0.047C24.398,25.192,23.71,25,23,25 c-1.831,0-3.411,1.261-3.858,3.005C19.095,28.002,19.048,28,19,28c-3.099,0-5.549,2.834-4.893,6.047 C14.587,36.398,16.796,38,19.196,38l14.679,0c0.276,0,0.5-0.224,0.5-0.5s-0.224-0.5-0.5-0.5l-14.718,0 c-1.92,0-3.687-1.282-4.071-3.163C14.561,31.267,16.521,29,19,29c0.117,0,0.23,0.017,0.343,0.032l0.141,0.019 c0.021,0.003,0.041,0.004,0.062,0.004c0.246,0,0.462-0.185,0.495-0.437C20.232,27.125,21.504,26,23,26 c0.885,0,1.723,0.401,2.301,1.1c0.098,0.118,0.241,0.182,0.386,0.182c0.078,0,0.156-0.018,0.228-0.056 c0.209-0.107,0.314-0.346,0.254-0.573c-0.16-0.6-0.202-1.069-0.147-1.549c0.24-2.127,1.959-3.909,4.092-4.088 c2.551-0.215,4.725,1.728,4.859,4.246c0.011,0.208,0.15,0.387,0.349,0.45c0.05,0.016,0.101,0.024,0.152,0.024 c0.15,0,0.296-0.069,0.392-0.192C36.638,24.563,37.779,24,39,24c2.206,0,4,1.794,4,4c0,0.117-0.017,0.23-0.032,0.343l-0.019,0.141 c-0.016,0.134,0.022,0.268,0.106,0.373c0.084,0.105,0.207,0.172,0.34,0.185c2.352,0.234,4.042,2.429,3.504,4.865 C46.491,35.76,44.725,37,42.827,37l-5.952,0c-0.276,0-0.5,0.224-0.5,0.5s0.224,0.5,0.5,0.5l5.938,0 c2.467,0,4.708-1.704,5.115-4.138c0.462-2.763-1.344-5.22-3.931-5.74C43.999,28.082,44,28.041,44,28c0-2.757-2.243-5-5-5 c-1.176,0-2.293,0.416-3.183,1.164C35.219,21.76,33.055,20,30.5,20L30.5,20z"/><path fill="#472b29" d="M28.75 27.25c-1.403 0-2.609.999-2.913 2.341-.367-.222-.786-.341-1.212-.341-1.202 0-2.198.897-2.353 2.068-.203-.045-.396-.068-.585-.068-1.529 0-2.811 1.2-2.918 2.732-.009.138.094.257.232.267.006 0 .012 0 .018 0 .13 0 .24-.101.249-.232.089-1.271 1.151-2.268 2.419-2.268.229 0 .47.042.738.127.022.007.045.01.067.01.055 0 .11-.02.156-.054.064-.047.102-.129.102-.209 0-1.034.841-1.875 1.875-1.875.447 0 .885.168 1.231.473.047.041.106.063.165.063.032 0 .063-.006.093-.019.088-.035.148-.117.155-.212.102-1.292 1.191-2.305 2.479-2.305.208 0 .425.034.682.107.023.007.047.01.07.01.109 0 .207-.073.239-.182.038-.133-.039-.271-.172-.309C29.267 27.29 29.006 27.25 28.75 27.25L28.75 27.25zM42.633 28.75c-1.326 0-2.508.897-2.874 2.182-.038.133.039.271.172.309.023.007.046.01.068.01.109 0 .209-.072.24-.182.305-1.071 1.289-1.818 2.393-1.818.117 0 .23.014.342.029.012.002.023.003.035.003.121 0 .229-.092.246-.217.019-.137-.077-.263-.214-.281C42.908 28.766 42.772 28.75 42.633 28.75L42.633 28.75z"/><path fill="#fff" d="M18.405 50H8.5C8.224 50 8 49.776 8 49.5S8.224 49 8.5 49h9.905c.276 0 .5.224.5.5S18.682 50 18.405 50zM21.5 50h-1c-.276 0-.5-.224-.5-.5s.224-.5.5-.5h1c.276 0 .5.224.5.5S21.777 50 21.5 50zM26.491 52H17.5c-.276 0-.5-.224-.5-.5s.224-.5.5-.5h8.991c.276 0 .5.224.5.5S26.767 52 26.491 52zM15.5 52h-1c-.276 0-.5-.224-.5-.5s.224-.5.5-.5h1c.276 0 .5.224.5.5S15.777 52 15.5 52zM12.5 52h-2c-.276 0-.5-.224-.5-.5s.224-.5.5-.5h2c.276 0 .5.224.5.5S12.777 52 12.5 52zM18.5 54h-2c-.276 0-.5-.224-.5-.5s.224-.5.5-.5h2c.276 0 .5.224.5.5S18.776 54 18.5 54zM21.5 45c-.177 0-.823 0-1 0-.276 0-.5.224-.5.5 0 .276.224.5.5.5.177 0 .823 0 1 0 .276 0 .5-.224.5-.5C22 45.224 21.776 45 21.5 45zM21.5 47c-.177 0-4.823 0-5 0-.276 0-.5.224-.5.5 0 .276.224.5.5.5.177 0 4.823 0 5 0 .276 0 .5-.224.5-.5C22 47.224 21.776 47 21.5 47zM26.5 49c-.177 0-2.823 0-3 0-.276 0-.5.224-.5.5 0 .276.224.5.5.5.177 0 2.823 0 3 0 .276 0 .5-.224.5-.5C27 49.224 26.776 49 26.5 49zM68 22H58c-.276 0-.5-.224-.5-.5S57.724 21 58 21h10c.276 0 .5.224.5.5S68.276 22 68 22zM72 22h-2c-.276 0-.5-.224-.5-.5S69.724 21 70 21h2c.276 0 .5.224.5.5S72.276 22 72 22zM77 24H67c-.276 0-.5-.224-.5-.5S66.724 23 67 23h10c.276 0 .5.224.5.5S77.277 24 77 24zM65 24h-1c-.276 0-.5-.224-.5-.5S63.724 23 64 23h1c.276 0 .5.224.5.5S65.276 24 65 24zM61.875 24H60c-.276 0-.5-.224-.5-.5S59.724 23 60 23h1.875c.276 0 .5.224.5.5S62.151 24 61.875 24zM71 20h-5c-.276 0-.5-.224-.5-.5S65.724 19 66 19h5c.276 0 .5.224.5.5S71.277 20 71 20zM68 26h-2c-.276 0-.5-.224-.5-.5S65.724 25 66 25h2c.276 0 .5.224.5.5S68.276 26 68 26z"/><g><path fill="#fdfcef" d="M71.25,72.5c0,0-1.567,0-3.5,0s-3.5-1.567-3.5-3.5c0-1.781,1.335-3.234,3.055-3.455 C67.277,65.366,67.25,65.187,67.25,65c0-1.933,1.567-3.5,3.5-3.5c1.032,0,1.95,0.455,2.59,1.165 c0.384-1.808,1.987-3.165,3.91-3.165c2.209,0,4,1.791,4,4c0,0.191-0.03,0.374-0.056,0.558c0.428-0.344,0.965-0.558,1.556-0.558 c1.228,0,2.245,0.887,2.455,2.055c0.179-0.028,0.358-0.055,0.545-0.055c1.933,0,3.5,1.567,3.5,3.5s-1.567,3.5-3.5,3.5 s-7.5,0-7.5,0V73h-7V72.5z"/><path fill="#472b29" d="M69.5 68c.138 0 .25-.112.25-.25 0-1.223-.995-2.218-2.218-2.218-.034.009-.737-.001-1.244.136-.133.036-.212.173-.176.306.036.134.173.213.306.176.444-.12 1.1-.12 1.113-.118.948 0 1.719.771 1.719 1.718C69.25 67.888 69.362 68 69.5 68zM76.25 72A.5.5 0 1 0 76.25 73 .5.5 0 1 0 76.25 72z"/><path fill="#472b29" d="M67.75,73h3.5c0.276,0,0.5-0.224,0.5-0.5s-0.224-0.5-0.5-0.5h-3.5c-1.654,0-3-1.346-3-3 c0-1.496,1.125-2.768,2.618-2.959c0.134-0.018,0.255-0.088,0.336-0.196s0.115-0.244,0.094-0.377 C67.775,65.314,67.75,65.16,67.75,65c0-1.654,1.346-3,3-3c0.85,0,1.638,0.355,2.219,1c0.125,0.139,0.321,0.198,0.5,0.148 c0.182-0.049,0.321-0.195,0.36-0.379C74.17,61.165,75.609,60,77.25,60c1.93,0,3.5,1.57,3.5,3.5c0,0.143-0.021,0.28-0.041,0.418 c-0.029,0.203,0.063,0.438,0.242,0.54c0.179,0.102,0.396,0.118,0.556-0.01C81.872,64.155,82.301,64,82.75,64 c0.966,0,1.792,0.691,1.963,1.644c0.048,0.267,0.296,0.446,0.569,0.405C85.436,66.025,85.59,66,85.75,66c1.654,0,3,1.346,3,3 s-1.346,3-3,3h-7.5c-0.276,0-0.5,0.224-0.5,0.5s0.224,0.5,0.5,0.5h7.5c2.206,0,4-1.794,4-4s-1.794-4-4-4 c-0.059,0-0.116,0.002-0.174,0.006C85.162,63.82,84.039,63,82.75,63c-0.349,0-0.689,0.061-1.011,0.18 C81.574,60.847,79.624,59,77.25,59c-1.831,0-3.466,1.127-4.153,2.774C72.417,61.276,71.595,61,70.75,61c-2.206,0-4,1.794-4,4 c0,0.048,0.001,0.095,0.004,0.142C65.011,65.59,63.75,67.169,63.75,69C63.75,71.206,65.544,73,67.75,73z"/><path fill="#472b29" d="M73.25,72c0.159,0,0.841,0,1,0c0.276,0,0.5,0.224,0.5,0.5c0,0.276-0.224,0.5-0.5,0.5 c-0.159,0-0.841,0-1,0c-0.276,0-0.5-0.224-0.5-0.5C72.75,72.224,72.974,72,73.25,72z"/></g><g><path fill="#c0d078" d="M53.659,67.729c-0.33,0-0.646-0.125-0.889-0.35l-10.587-9.829 c-0.262-0.242-0.409-0.572-0.418-0.929c-0.008-0.356,0.125-0.692,0.375-0.947L62.6,34.881c0.248-0.251,0.579-0.39,0.933-0.39 c0.331,0,0.646,0.124,0.889,0.349l10.588,9.829c0.262,0.242,0.409,0.572,0.418,0.929c0.008,0.356-0.125,0.692-0.375,0.947 l-20.46,20.795C54.344,67.591,54.013,67.729,53.659,67.729L53.659,67.729z"/><path fill="#472b29" d="M63.532,35.191c0.109,0,0.269,0.028,0.413,0.162l10.588,9.829 c0.164,0.152,0.192,0.336,0.194,0.432c0.002,0.096-0.018,0.281-0.174,0.44L54.093,66.848c-0.155,0.158-0.338,0.181-0.433,0.181 c-0.154,0-0.3-0.058-0.413-0.162L42.66,57.038c-0.164-0.152-0.192-0.336-0.194-0.432c-0.002-0.096,0.018-0.281,0.174-0.44 l20.458-20.795C63.254,35.214,63.437,35.191,63.532,35.191 M63.532,33.791c-0.52,0-1.039,0.201-1.431,0.6L41.642,55.185 c-0.794,0.807-0.764,2.109,0.065,2.879l10.587,9.829c0.386,0.358,0.876,0.536,1.366,0.536c0.52,0,1.039-0.201,1.431-0.6 L75.55,47.035c0.794-0.807,0.764-2.11-0.065-2.879l-10.588-9.829C64.511,33.969,64.021,33.791,63.532,33.791L63.532,33.791z"/></g><g><path fill="#c0d078" d="M56.908,67.942c-0.255,0-0.506-0.069-0.728-0.199l-13.361-7.846 c-0.332-0.195-0.567-0.507-0.665-0.88c-0.097-0.373-0.042-0.76,0.152-1.092l15.584-26.537c0.258-0.439,0.734-0.711,1.245-0.711 c0.254,0,0.506,0.069,0.728,0.199l13.36,7.846c0.685,0.402,0.915,1.287,0.513,1.972L58.152,67.23 C57.895,67.669,57.418,67.942,56.908,67.942z"/><path fill="#472b29" d="M59.136,31.377c0.132,0,0.257,0.034,0.373,0.102l13.361,7.846c0.352,0.207,0.47,0.662,0.264,1.014 L57.549,66.876c-0.135,0.229-0.374,0.366-0.641,0.366c-0.132,0-0.257-0.034-0.373-0.102l-13.361-7.846 c-0.171-0.1-0.292-0.261-0.342-0.452s-0.022-0.391,0.078-0.562l15.584-26.537C58.629,31.514,58.869,31.377,59.136,31.377 M59.135,29.977c-0.734,0-1.449,0.378-1.848,1.057L41.703,57.57c-0.599,1.019-0.258,2.331,0.762,2.93l13.361,7.846 c0.341,0.2,0.714,0.295,1.082,0.295c0.734,0,1.449-0.378,1.848-1.057L74.34,41.048c0.599-1.019,0.258-2.331-0.762-2.93 l-13.361-7.846C59.877,30.072,59.504,29.977,59.135,29.977L59.135,29.977z"/></g><g><path fill="#88ae45" d="M53.193,45.227l-7.615,12.946l7.365,4.325c1.465-1.393,3.536-1.967,5.502-1.536l9.912-16.851 c-1.273-1.506-1.745-3.555-1.241-5.476l-4.228-2.483c-1.415,1.247-3.338,1.765-5.185,1.408l-0.587,0.998L53.193,45.227z"/></g><g><path fill="#c0d078" d="M58.312 44.209A4.687 4.687 0 1 0 58.312 53.583A4.687 4.687 0 1 0 58.312 44.209Z"/><path fill="#472b29" d="M58.304,53.832c-0.849,0-1.708-0.219-2.492-0.679c-2.347-1.379-3.135-4.411-1.757-6.758l0,0 c0.668-1.137,1.738-1.946,3.015-2.278c1.276-0.331,2.605-0.146,3.743,0.521c1.137,0.667,1.946,1.738,2.278,3.015 c0.331,1.276,0.146,2.605-0.521,3.743C61.65,52.96,59.998,53.832,58.304,53.832z M54.486,46.648 c-1.238,2.11-0.53,4.834,1.579,6.073c2.11,1.239,4.834,0.531,6.072-1.579c0.601-1.021,0.768-2.216,0.469-3.363 c-0.298-1.147-1.025-2.109-2.048-2.71c-1.022-0.599-2.217-0.767-3.363-0.468C56.048,44.899,55.086,45.626,54.486,46.648 L54.486,46.648z"/></g><g><path fill="#472b29" d="M52.942,62.748c-0.044,0-0.087-0.012-0.127-0.034l-7.364-4.325 c-0.057-0.034-0.099-0.089-0.116-0.153c-0.017-0.063-0.007-0.132,0.027-0.189l7.614-12.945c0.069-0.119,0.222-0.159,0.343-0.088 c0.119,0.07,0.158,0.223,0.089,0.342L45.92,58.084l6.989,4.104c1.472-1.318,3.467-1.879,5.41-1.507l9.734-16.547 c-1.207-1.512-1.658-3.497-1.225-5.379l-3.913-2.298c-1.404,1.166-3.277,1.676-5.086,1.379l-0.498,0.848 c-0.071,0.118-0.224,0.159-0.343,0.088c-0.119-0.07-0.158-0.223-0.089-0.342l0.587-0.998c0.055-0.091,0.161-0.139,0.263-0.119 c1.77,0.341,3.627-0.164,4.974-1.35c0.081-0.072,0.197-0.083,0.292-0.028l4.228,2.482c0.097,0.057,0.144,0.171,0.115,0.279 c-0.482,1.837-0.037,3.8,1.19,5.251c0.068,0.082,0.078,0.197,0.024,0.289L58.66,61.089c-0.056,0.093-0.159,0.141-0.27,0.117 c-1.895-0.415-3.868,0.135-5.276,1.474C53.067,62.725,53.005,62.748,52.942,62.748z"/></g><g><path fill="#472b29" d="M55.144,42.162c-0.043,0-0.087-0.011-0.127-0.035c-0.119-0.07-0.158-0.223-0.089-0.342l1.12-1.904 c0.07-0.12,0.223-0.16,0.343-0.088c0.119,0.07,0.158,0.223,0.089,0.342l-1.12,1.904C55.313,42.118,55.229,42.162,55.144,42.162z"/></g><g><path fill="#fddbbc" d="M32.528,58.867l2.723-0.852l9.494-14.936c0.376-0.581,0.952-1.014,1.62-1.213l5.575-0.962 l-6.234,10.568c-0.712,1.423,0.271,3.034,1.618,3.792c0.526,0.294,1.06,0.443,1.589,0.443c0.53,0,1.064-0.149,1.588-0.442 l0.056-0.031l7.418-6.193c0.445-0.363,1.014-0.566,1.596-0.566c0.657,0,1.279,0.25,1.752,0.705 c0.948,0.908,1.049,2.369,0.235,3.399l-9.731,11.626c-1.381,1.746-3.321,2.958-5.477,3.429l-10.429,2.281L32.528,58.867z"/><path fill="#472b29" d="M50.567,41.853l-5.464,9.263l-0.025,0.043l-0.022,0.044c-0.873,1.753,0.293,3.752,1.929,4.673 c0.63,0.352,1.278,0.531,1.928,0.531c0.652,0,1.301-0.179,1.93-0.531l0.113-0.063l0.1-0.083l7.356-6.142 c0.331-0.27,0.732-0.413,1.158-0.413c0.475,0,0.926,0.181,1.269,0.511c0.685,0.657,0.758,1.714,0.194,2.429l-9.768,11.671 c-1.268,1.604-3.067,2.728-5.065,3.165l-9.799,2.143l-2.998-9.766l1.814-0.568l0.489-0.153l0.275-0.432l9.35-14.709 c0.276-0.426,0.688-0.746,1.167-0.906L50.567,41.853 M53.311,39.957l-7.147,1.239c-0.828,0.248-1.54,0.783-2.01,1.509 l-9.356,14.719l-3.143,0.984l3.785,12.329l11.059-2.418c2.319-0.507,4.391-1.802,5.864-3.664l9.743-11.641 c1.033-1.307,0.904-3.186-0.299-4.338c-0.623-0.598-1.429-0.9-2.238-0.9c-0.723,0-1.447,0.241-2.044,0.729l-7.368,6.151 c-0.436,0.245-0.85,0.353-1.245,0.353c-0.435,0-0.847-0.13-1.245-0.353c-1.041-0.586-1.862-1.818-1.359-2.827L53.311,39.957 L53.311,39.957z"/></g><g><path fill="#afabd4" d="M25.883 58.411L33.145 56.373 38.04 72.087 30.777 74.125z"/><path fill="#472b29" d="M32.678,57.23l4.479,14.377l-5.914,1.66L26.765,58.89L32.678,57.23 M33.61,55.515L25,57.932 l5.312,17.052l8.611-2.417L33.61,55.515L33.61,55.515z"/></g><g><path fill="#ecad6f" d="M57.65,51.173c0,0,0.215,0.807,0.592,1.184c0.377,0.377,1.292,0.646,1.292,0.646 s1.627-1.687,0.713-2.614C59.299,49.425,57.65,51.173,57.65,51.173z"/></g><g><path fill="#472b29" d="M32.14,63.404c-0.212,0-0.408-0.135-0.476-0.348l-0.983-3.072c-0.084-0.263,0.061-0.544,0.324-0.629 c0.264-0.082,0.544,0.061,0.628,0.324l0.983,3.072c0.084,0.263-0.061,0.544-0.324,0.629C32.241,63.396,32.19,63.404,32.14,63.404z"/></g><g><path fill="#472b29" d="M34.763,71.273c-0.21,0-0.406-0.134-0.475-0.345l-1.858-5.694c-0.086-0.263,0.058-0.545,0.32-0.631 c0.265-0.083,0.545,0.059,0.63,0.32l1.858,5.694c0.086,0.263-0.058,0.545-0.32,0.631C34.867,71.266,34.814,71.273,34.763,71.273z"/></g><g><path fill="#c0d078" d="M62.471 40A1.471 1.471 0 1 0 62.471 42.94199999999999A1.471 1.471 0 1 0 62.471 40Z"/><path fill="#472b29" d="M62.469,43.192c-0.303,0-0.602-0.081-0.869-0.238c-0.396-0.232-0.679-0.605-0.794-1.051 c-0.116-0.445-0.051-0.908,0.182-1.304c0.233-0.396,0.606-0.678,1.051-0.793c0.445-0.115,0.908-0.051,1.305,0.181 c0.817,0.481,1.092,1.538,0.612,2.355c-0.233,0.396-0.606,0.678-1.051,0.794C62.76,43.174,62.613,43.192,62.469,43.192z M62.474,40.25c-0.104,0-0.207,0.013-0.31,0.04c-0.315,0.082-0.58,0.282-0.745,0.563v0c-0.166,0.281-0.212,0.609-0.13,0.925 s0.282,0.58,0.563,0.745s0.608,0.21,0.926,0.129c0.315-0.082,0.58-0.282,0.745-0.563c0.341-0.581,0.146-1.33-0.435-1.671 C62.899,40.307,62.688,40.25,62.474,40.25z"/></g></svg>