<svg xmlns="http://www.w3.org/2000/svg" viewBox="0 0 100 100"><path fill="#c7ede6" d="M87.215,56.71C88.35,54.555,89,52.105,89,49.5c0-6.621-4.159-12.257-10.001-14.478 C78.999,35.015,79,35.008,79,35c0-11.598-9.402-21-21-21c-9.784,0-17.981,6.701-20.313,15.757C36.211,29.272,34.638,29,33,29 c-7.692,0-14.023,5.793-14.89,13.252C12.906,43.353,9,47.969,9,53.5C9,59.851,14.149,65,20.5,65c0.177,0,0.352-0.012,0.526-0.022 C21.022,65.153,21,65.324,21,65.5C21,76.822,30.178,86,41.5,86c6.437,0,12.175-2.972,15.934-7.614C59.612,80.611,62.64,82,66,82 c4.65,0,8.674-2.65,10.666-6.518C77.718,75.817,78.837,76,80,76c6.075,0,11-4.925,11-11C91,61.689,89.53,58.727,87.215,56.71z"/><path fill="#fdfcef" d="M73.5,57.5V58h-3v-0.5c0,0-4.242,0-5.5,0c-2.485,0-4.5-2.015-4.5-4.5 c0-2.333,1.782-4.229,4.055-4.455C64.533,48.364,64.5,48.187,64.5,48c0-2.485,2.015-4.5,4.5-4.5c1.438,0,2.703,0.686,3.527,1.736 C72.667,42.6,74.829,40.5,77.5,40.5c2.761,0,5,2.239,5,5c0,0.446-0.077,0.87-0.187,1.282c0.642-0.777,1.6-1.282,2.687-1.282 c1.781,0,3.234,1.335,3.455,3.055C88.636,48.533,88.813,48.5,89,48.5c2.485,0,4.5,2.015,4.5,4.5s-2.015,4.5-4.5,4.5s-9.5,0-9.5,0 H73.5z"/><path fill="#472b29" d="M77.5,40c3.033,0,5.5,2.467,5.5,5.5c0,0.016,0,0.031,0,0.047C83.602,45.192,84.29,45,85,45 c1.831,0,3.411,1.261,3.858,3.005C88.905,48.002,88.952,48,89,48c2.757,0,5,2.243,5,5s-2.243,5-5,5H73.5 c-0.276,0-0.5-0.224-0.5-0.5s0.224-0.5,0.5-0.5H89c2.206,0,4-1.794,4-4s-1.794-4-4-4c-0.117,0-0.23,0.017-0.343,0.032 l-0.141,0.019c-0.021,0.003-0.041,0.004-0.062,0.004c-0.246,0-0.462-0.185-0.495-0.437C87.768,47.125,86.496,46,85,46 c-0.885,0-1.723,0.401-2.301,1.1c-0.098,0.118-0.241,0.182-0.386,0.182c-0.078,0-0.156-0.018-0.228-0.056 c-0.209-0.107-0.314-0.346-0.254-0.573C81.946,46.218,82,45.852,82,45.5c0-2.481-2.019-4.5-4.5-4.5 c-2.381,0-4.347,1.872-4.474,4.263c-0.011,0.208-0.15,0.387-0.349,0.45c-0.05,0.016-0.101,0.024-0.152,0.024 c-0.15,0-0.296-0.069-0.392-0.192C71.362,44.563,70.221,44,69,44c-2.206,0-4,1.794-4,4c0,0.117,0.017,0.23,0.032,0.343 l0.019,0.141c0.016,0.134-0.022,0.268-0.106,0.373c-0.084,0.105-0.207,0.172-0.34,0.185C62.549,49.247,61,50.949,61,53 c0,2.206,1.794,4,4,4h5.5c0.276,0,0.5,0.224,0.5,0.5S70.776,58,70.5,58H65c-2.757,0-5-2.243-5-5c0-2.397,1.689-4.413,4.003-4.877 C64.001,48.082,64,48.041,64,48c0-2.757,2.243-5,5-5c1.176,0,2.293,0.416,3.183,1.164C72.781,41.76,74.945,40,77.5,40L77.5,40z"/><path fill="#472b29" d="M79,47c1.403,0,2.609,0.999,2.913,2.341C82.28,49.119,82.699,49,83.125,49 c1.202,0,2.198,0.897,2.353,2.068C85.681,51.022,85.874,51,86.063,51c1.529,0,2.811,1.2,2.918,2.732 C88.99,53.87,88.886,53.99,88.749,54c-0.006,0-0.012,0-0.018,0c-0.13,0-0.24-0.101-0.249-0.232 c-0.089-1.271-1.151-2.268-2.419-2.268c-0.229,0-0.47,0.042-0.738,0.127c-0.022,0.007-0.045,0.01-0.067,0.01 c-0.055,0-0.11-0.02-0.156-0.054C85.038,51.537,85,51.455,85,51.375c0-1.034-0.841-1.875-1.875-1.875 c-0.447,0-0.885,0.168-1.231,0.473c-0.047,0.041-0.106,0.063-0.165,0.063c-0.032,0-0.063-0.006-0.093-0.019 c-0.088-0.035-0.148-0.117-0.155-0.212C81.377,48.512,80.288,47.5,79,47.5c-0.208,0-0.425,0.034-0.682,0.107 c-0.023,0.007-0.047,0.01-0.07,0.01c-0.109,0-0.207-0.073-0.239-0.182c-0.038-0.133,0.039-0.271,0.172-0.309 C78.483,47.04,78.744,47,79,47L79,47z"/><path fill="#472b29" d="M65.117,48.5c1.326,0,2.508,0.897,2.874,2.182c0.038,0.133-0.039,0.271-0.172,0.309 C67.795,50.997,67.772,51,67.75,51c-0.109,0-0.209-0.072-0.24-0.182C67.205,49.748,66.221,49,65.117,49 c-0.117,0-0.23,0.014-0.342,0.029c-0.012,0.002-0.023,0.003-0.035,0.003c-0.121,0-0.229-0.092-0.246-0.217 c-0.019-0.137,0.077-0.263,0.214-0.281C64.842,48.516,64.978,48.5,65.117,48.5L65.117,48.5z"/><path fill="#fff" d="M46.5,21h-10c-0.276,0-0.5-0.224-0.5-0.5s0.224-0.5,0.5-0.5h10c0.276,0,0.5,0.224,0.5,0.5 S46.777,21,46.5,21z"/><path fill="#fff" d="M49.5,21h-1c-0.276,0-0.5-0.224-0.5-0.5s0.224-0.5,0.5-0.5h1c0.276,0,0.5,0.224,0.5,0.5 S49.777,21,49.5,21z"/><path fill="#fff" d="M54.491,23H45.5c-0.276,0-0.5-0.224-0.5-0.5s0.224-0.5,0.5-0.5h8.991c0.276,0,0.5,0.224,0.5,0.5 S54.767,23,54.491,23z"/><path fill="#fff" d="M43.5,23h-1c-0.276,0-0.5-0.224-0.5-0.5s0.224-0.5,0.5-0.5h1c0.276,0,0.5,0.224,0.5,0.5 S43.777,23,43.5,23z"/><path fill="#fff" d="M40.5,23h-2c-0.276,0-0.5-0.224-0.5-0.5s0.224-0.5,0.5-0.5h2c0.276,0,0.5,0.224,0.5,0.5 S40.777,23,40.5,23z"/><path fill="#fff" d="M46.5,25h-2c-0.276,0-0.5-0.224-0.5-0.5s0.224-0.5,0.5-0.5h2c0.276,0,0.5,0.224,0.5,0.5 S46.776,25,46.5,25z"/><path fill="#fff" d="M49.5,16c-0.177,0-0.823,0-1,0c-0.276,0-0.5,0.224-0.5,0.5c0,0.276,0.224,0.5,0.5,0.5 c0.177,0,0.823,0,1,0c0.276,0,0.5-0.224,0.5-0.5C50,16.224,49.776,16,49.5,16z"/><path fill="#fff" d="M49.5,18c-0.177,0-4.823,0-5,0c-0.276,0-0.5,0.224-0.5,0.5c0,0.276,0.224,0.5,0.5,0.5 c0.177,0,4.823,0,5,0c0.276,0,0.5-0.224,0.5-0.5C50,18.224,49.776,18,49.5,18z"/><path fill="#fff" d="M54.5,20c-0.177,0-2.823,0-3,0c-0.276,0-0.5,0.224-0.5,0.5c0,0.276,0.224,0.5,0.5,0.5 c0.177,0,2.823,0,3,0c0.276,0,0.5-0.224,0.5-0.5C55,20.224,54.776,20,54.5,20z"/><g><path fill="#fff" d="M88.5,65h-10c-0.276,0-0.5-0.224-0.5-0.5s0.224-0.5,0.5-0.5h10c0.276,0,0.5,0.224,0.5,0.5 S88.776,65,88.5,65z"/><path fill="#fff" d="M92.5,65h-2c-0.276,0-0.5-0.224-0.5-0.5s0.224-0.5,0.5-0.5h2c0.276,0,0.5,0.224,0.5,0.5 S92.776,65,92.5,65z"/><path fill="#fff" d="M97.5,67h-10c-0.276,0-0.5-0.224-0.5-0.5s0.224-0.5,0.5-0.5h10c0.276,0,0.5,0.224,0.5,0.5 S97.777,67,97.5,67z"/><path fill="#fff" d="M85.5,67h-1c-0.276,0-0.5-0.224-0.5-0.5s0.224-0.5,0.5-0.5h1c0.276,0,0.5,0.224,0.5,0.5 S85.776,67,85.5,67z"/><path fill="#fff" d="M82.47,67H80.5c-0.276,0-0.5-0.224-0.5-0.5s0.224-0.5,0.5-0.5h1.97c0.276,0,0.5,0.224,0.5,0.5 S82.746,67,82.47,67z"/><path fill="#fff" d="M91.5,63h-5c-0.276,0-0.5-0.224-0.5-0.5s0.224-0.5,0.5-0.5h5c0.276,0,0.5,0.224,0.5,0.5 S91.777,63,91.5,63z"/><path fill="#fff" d="M88.5,69h-2c-0.276,0-0.5-0.224-0.5-0.5s0.224-0.5,0.5-0.5h2c0.276,0,0.5,0.224,0.5,0.5 S88.776,69,88.5,69z"/></g><g><path fill="#78a0cf" d="M33.5,74.8c-2.923,0-5.3-2.378-5.3-5.3s2.377-5.3,5.3-5.3h36c2.923,0,5.3,2.378,5.3,5.3 s-2.377,5.3-5.3,5.3H33.5z"/><path fill="#472b29" d="M69.5,64.9c2.536,0,4.6,2.063,4.6,4.6s-2.064,4.6-4.6,4.6h-36c-2.536,0-4.6-2.063-4.6-4.6 s2.064-4.6,4.6-4.6H69.5 M69.5,63.5h-36c-3.314,0-6,2.687-6,6s2.686,6,6,6h36c3.314,0,6-2.687,6-6S72.814,63.5,69.5,63.5 L69.5,63.5z"/><path fill="#472b29" d="M69.513,70.5H33.487c-0.545,0-0.987-0.442-0.987-0.987v-0.026c0-0.545,0.442-0.987,0.987-0.987 h36.026c0.545,0,0.987,0.442,0.987,0.987v0.026C70.5,70.058,70.058,70.5,69.513,70.5z"/><path fill="#472b29" d="M69.513,71H33.487C32.667,71,32,70.333,32,69.513C32,68.667,32.667,68,33.487,68h36.025 C70.333,68,71,68.667,71,69.487C71,70.333,70.333,71,69.513,71z M33.487,69C33.219,69,33,69.219,33,69.487 C33,69.781,33.219,70,33.487,70h36.025C69.781,70,70,69.781,70,69.513C70,69.219,69.781,69,69.513,69H33.487z"/><polygon fill="#fff" points="65.282,34 61.782,29.613 58.282,34 54.782,29.613 51.282,34 47.782,29.613 44.282,34 40.782,29.613 37.282,34 34.5,30.513 34.5,69.5 68.5,69.5 68.5,29.966"/><path fill="#472b29" d="M68.5,70h-34c-0.276,0-0.5-0.224-0.5-0.5V30.513c0-0.212,0.134-0.402,0.335-0.472 c0.198-0.07,0.423-0.006,0.556,0.16l2.392,2.997l3.109-3.897c0.189-0.238,0.592-0.238,0.781,0l3.109,3.897l3.109-3.897 c0.189-0.238,0.592-0.238,0.781,0l3.109,3.897l3.109-3.897c0.189-0.238,0.592-0.238,0.781,0l3.109,3.897l3.109-3.897 c0.189-0.238,0.592-0.238,0.781,0l3.109,3.897l2.827-3.544c0.132-0.167,0.357-0.23,0.556-0.16c0.2,0.07,0.335,0.259,0.335,0.472 V69.5C69,69.776,68.776,70,68.5,70z M35,69h33V31.395l-2.327,2.917c-0.189,0.238-0.592,0.238-0.781,0l-3.109-3.897l-3.109,3.897 c-0.189,0.238-0.592,0.238-0.781,0l-3.109-3.897l-3.109,3.897c-0.189,0.238-0.592,0.238-0.781,0l-3.109-3.897l-3.109,3.897 c-0.189,0.238-0.592,0.238-0.781,0l-3.109-3.897l-3.109,3.897c-0.189,0.238-0.592,0.238-0.781,0L35,31.941V69z"/><path fill="#472b29" d="M54.5,40h-15c-0.276,0-0.5-0.224-0.5-0.5s0.224-0.5,0.5-0.5h15c0.276,0,0.5,0.224,0.5,0.5 S54.776,40,54.5,40z"/><path fill="#472b29" d="M64.5,40h-7c-0.276,0-0.5-0.224-0.5-0.5s0.224-0.5,0.5-0.5h7c0.276,0,0.5,0.224,0.5,0.5 S64.776,40,64.5,40z"/><path fill="#472b29" d="M59.5,53c-0.276,0-0.5-0.224-0.5-0.5v-2c0-0.276,0.224-0.5,0.5-0.5s0.5,0.224,0.5,0.5v2 C60,52.776,59.776,53,59.5,53z"/><path fill="#472b29" d="M59.5,64c-0.276,0-0.5-0.224-0.5-0.5v-2c0-0.276,0.224-0.5,0.5-0.5s0.5,0.224,0.5,0.5v2 C60,63.776,59.776,64,59.5,64z"/><path fill="#472b29" d="M51.5,43h-7c-0.276,0-0.5-0.224-0.5-0.5s0.224-0.5,0.5-0.5h7c0.276,0,0.5,0.224,0.5,0.5 S51.776,43,51.5,43z"/><path fill="#472b29" d="M42.5,43h-3c-0.276,0-0.5-0.224-0.5-0.5s0.224-0.5,0.5-0.5h3c0.276,0,0.5,0.224,0.5,0.5 S42.776,43,42.5,43z"/><path fill="#472b29" d="M51.5,53h-12c-0.276,0-0.5-0.224-0.5-0.5s0.224-0.5,0.5-0.5h12c0.276,0,0.5,0.224,0.5,0.5 S51.776,53,51.5,53z"/><path fill="#472b29" d="M51.5,56h-12c-0.276,0-0.5-0.224-0.5-0.5s0.224-0.5,0.5-0.5h12c0.276,0,0.5,0.224,0.5,0.5 S51.776,56,51.5,56z"/><g><path fill="#472b29" d="M51.5,59h-12c-0.276,0-0.5-0.224-0.5-0.5s0.224-0.5,0.5-0.5h12c0.276,0,0.5,0.224,0.5,0.5 S51.776,59,51.5,59z"/></g><g><path fill="#472b29" d="M51.5,62h-12c-0.276,0-0.5-0.224-0.5-0.5s0.224-0.5,0.5-0.5h12c0.276,0,0.5,0.224,0.5,0.5 S51.776,62,51.5,62z"/></g><g><path fill="#472b29" d="M60.974,59.278c0-2.386-4.381-1.456-4.381-4.69c0-1.994,1.671-2.588,3.113-2.588 c0.876,0,2.453,0.229,2.453,0.97c0,0.27-0.189,0.768-0.593,0.768c-0.364,0-0.714-0.512-1.86-0.512 c-0.983,0-1.684,0.377-1.684,1.226c0,1.995,4.38,1.092,4.38,4.677c0,1.927-1.294,2.871-3.073,2.871 c-1.751,0-2.978-0.916-2.978-1.59c0-0.323,0.283-0.768,0.62-0.768c0.485,0,0.809,1.065,2.304,1.065 C60.245,60.706,60.974,60.248,60.974,59.278z"/></g></g><g><path fill="#fdfcef" d="M19.5,50.5c0,0-1.567,0-3.5,0s-3.5-1.567-3.5-3.5c0-1.781,1.335-3.234,3.055-3.455 C15.527,43.366,15.5,43.187,15.5,43c0-1.933,1.567-3.5,3.5-3.5c1.032,0,1.95,0.455,2.59,1.165c0.384-1.808,1.987-3.165,3.91-3.165 c2.209,0,4,1.791,4,4c0,0.191-0.03,0.374-0.056,0.558C29.872,41.714,30.408,41.5,31,41.5c1.228,0,2.245,0.887,2.455,2.055 C33.634,43.527,33.813,43.5,34,43.5c1.933,0,3.5,1.567,3.5,3.5s-1.567,3.5-3.5,3.5s-7.5,0-7.5,0V51h-7V50.5z"/><path fill="#472b29" d="M17.75,46c0.138,0,0.25-0.112,0.25-0.25c0-1.223-0.995-2.218-2.218-2.218 c-0.034,0.009-0.737-0.001-1.244,0.136c-0.133,0.036-0.212,0.173-0.176,0.306c0.036,0.134,0.173,0.213,0.306,0.176 c0.444-0.12,1.1-0.12,1.113-0.118c0.948,0,1.719,0.771,1.719,1.718C17.5,45.888,17.612,46,17.75,46z"/><circle cx="24.5" cy="50.5" r=".5" fill="#472b29"/><path fill="#472b29" d="M16,51h3.5c0.276,0,0.5-0.224,0.5-0.5S19.776,50,19.5,50H16c-1.654,0-3-1.346-3-3 c0-1.496,1.125-2.768,2.618-2.959c0.134-0.018,0.255-0.088,0.336-0.196s0.115-0.244,0.094-0.377C16.025,43.314,16,43.16,16,43 c0-1.654,1.346-3,3-3c0.85,0,1.638,0.355,2.219,1c0.125,0.139,0.321,0.198,0.5,0.148c0.182-0.049,0.321-0.195,0.36-0.379 C22.42,39.165,23.859,38,25.5,38c1.93,0,3.5,1.57,3.5,3.5c0,0.143-0.021,0.28-0.041,0.418c-0.029,0.203,0.063,0.438,0.242,0.54 c0.179,0.102,0.396,0.118,0.556-0.01C30.122,42.155,30.551,42,31,42c0.966,0,1.792,0.691,1.963,1.644 c0.048,0.267,0.296,0.446,0.569,0.405C33.686,44.025,33.84,44,34,44c1.654,0,3,1.346,3,3s-1.346,3-3,3h-7.5 c-0.276,0-0.5,0.224-0.5,0.5s0.224,0.5,0.5,0.5H34c2.206,0,4-1.794,4-4s-1.794-4-4-4c-0.059,0-0.116,0.002-0.174,0.006 C33.412,41.82,32.289,41,31,41c-0.349,0-0.689,0.061-1.011,0.18C29.824,38.847,27.874,37,25.5,37 c-1.831,0-3.466,1.127-4.153,2.774C20.667,39.276,19.845,39,19,39c-2.206,0-4,1.794-4,4c0,0.048,0.001,0.095,0.004,0.142 C13.261,43.59,12,45.169,12,47C12,49.206,13.794,51,16,51z"/><path fill="#472b29" d="M21.5,50c0.159,0,0.841,0,1,0c0.276,0,0.5,0.224,0.5,0.5c0,0.276-0.224,0.5-0.5,0.5 c-0.159,0-0.841,0-1,0c-0.276,0-0.5-0.224-0.5-0.5C21,50.224,21.224,50,21.5,50z"/></g></svg>