<svg xmlns="http://www.w3.org/2000/svg" viewBox="0 0 100 100"><path fill="#c7ede6" d="M87.215,56.71C88.35,54.555,89,52.105,89,49.5c0-6.621-4.159-12.257-10.001-14.478 C78.999,35.015,79,35.008,79,35c0-11.598-9.402-21-21-21c-9.784,0-17.981,6.701-20.313,15.757C36.211,29.272,34.638,29,33,29 c-7.692,0-14.023,5.793-14.89,13.252C12.906,43.353,9,47.969,9,53.5C9,59.851,14.149,65,20.5,65c0.177,0,0.352-0.012,0.526-0.022 C21.022,65.153,21,65.324,21,65.5C21,76.822,30.178,86,41.5,86c6.437,0,12.175-2.972,15.934-7.614C59.612,80.611,62.64,82,66,82 c4.65,0,8.674-2.65,10.666-6.518C77.718,75.817,78.837,76,80,76c6.075,0,11-4.925,11-11C91,61.689,89.53,58.727,87.215,56.71z"/><path fill="#fdfcef" d="M39.5,39.5V40h3v-0.5c0,0,4.242,0,5.5,0c2.485,0,4.5-2.015,4.5-4.5 c0-2.333-1.782-4.229-4.055-4.455C48.467,30.364,48.5,30.187,48.5,30c0-2.485-2.015-4.5-4.5-4.5c-1.438,0-2.703,0.686-3.527,1.736 C40.333,24.6,38.171,22.5,35.5,22.5c-2.761,0-5,2.239-5,5c0,0.446,0.077,0.87,0.187,1.282C30.045,28.005,29.086,27.5,28,27.5 c-1.781,0-3.234,1.335-3.455,3.055C24.364,30.533,24.187,30.5,24,30.5c-2.485,0-4.5,2.015-4.5,4.5s2.015,4.5,4.5,4.5s9.5,0,9.5,0 H39.5z"/><path fill="#472b29" d="M35.5,22c-3.033,0-5.5,2.467-5.5,5.5c0,0.016,0,0.031,0,0.047C29.398,27.192,28.71,27,28,27 c-1.831,0-3.411,1.261-3.858,3.005C24.095,30.002,24.048,30,24,30c-2.757,0-5,2.243-5,5s2.243,5,5,5h15.5 c0.276,0,0.5-0.224,0.5-0.5S39.776,39,39.5,39H24c-2.206,0-4-1.794-4-4s1.794-4,4-4c0.117,0,0.23,0.017,0.343,0.032l0.141,0.019 c0.021,0.003,0.041,0.004,0.062,0.004c0.246,0,0.462-0.185,0.495-0.437C25.232,29.125,26.504,28,28,28 c0.885,0,1.723,0.401,2.301,1.1c0.098,0.118,0.241,0.182,0.386,0.182c0.078,0,0.156-0.018,0.228-0.056 c0.209-0.107,0.314-0.346,0.254-0.573C31.054,28.218,31,27.852,31,27.5c0-2.481,2.019-4.5,4.5-4.5 c2.381,0,4.347,1.872,4.474,4.263c0.011,0.208,0.15,0.387,0.349,0.45c0.05,0.016,0.101,0.024,0.152,0.024 c0.15,0,0.296-0.069,0.392-0.192C41.638,26.563,42.779,26,44,26c2.206,0,4,1.794,4,4c0,0.117-0.017,0.23-0.032,0.343l-0.019,0.141 c-0.016,0.134,0.022,0.268,0.106,0.373c0.084,0.105,0.207,0.172,0.34,0.185C50.451,31.247,52,32.949,52,35c0,2.206-1.794,4-4,4 h-5.5c-0.276,0-0.5,0.224-0.5,0.5s0.224,0.5,0.5,0.5H48c2.757,0,5-2.243,5-5c0-2.397-1.689-4.413-4.003-4.877 C48.999,30.082,49,30.041,49,30c0-2.757-2.243-5-5-5c-1.176,0-2.293,0.416-3.183,1.164C40.219,23.76,38.055,22,35.5,22L35.5,22z"/><path fill="#472b29" d="M34,29c-1.403,0-2.609,0.999-2.913,2.341C30.72,31.119,30.301,31,29.875,31 c-1.202,0-2.198,0.897-2.353,2.068C27.319,33.022,27.126,33,26.937,33c-1.529,0-2.811,1.2-2.918,2.732 C24.01,35.87,24.114,35.99,24.251,36c0.006,0,0.012,0,0.018,0c0.13,0,0.24-0.101,0.249-0.232c0.089-1.271,1.151-2.268,2.419-2.268 c0.229,0,0.47,0.042,0.738,0.127c0.022,0.007,0.045,0.01,0.067,0.01c0.055,0,0.11-0.02,0.156-0.054 C27.962,33.537,28,33.455,28,33.375c0-1.034,0.841-1.875,1.875-1.875c0.447,0,0.885,0.168,1.231,0.473 c0.047,0.041,0.106,0.063,0.165,0.063c0.032,0,0.063-0.006,0.093-0.019c0.088-0.035,0.148-0.117,0.155-0.212 C31.623,30.512,32.712,29.5,34,29.5c0.208,0,0.425,0.034,0.682,0.107c0.023,0.007,0.047,0.01,0.07,0.01 c0.109,0,0.207-0.073,0.239-0.182c0.038-0.133-0.039-0.271-0.172-0.309C34.517,29.04,34.256,29,34,29L34,29z"/><path fill="#472b29" d="M47.883,30.5c-1.326,0-2.508,0.897-2.874,2.182c-0.038,0.133,0.039,0.271,0.172,0.309 C45.205,32.997,45.228,33,45.25,33c0.109,0,0.209-0.072,0.24-0.182C45.795,31.748,46.779,31,47.883,31 c0.117,0,0.23,0.014,0.342,0.029c0.012,0.002,0.023,0.003,0.035,0.003c0.121,0,0.229-0.092,0.246-0.217 c0.019-0.137-0.077-0.263-0.214-0.281C48.158,30.516,48.022,30.5,47.883,30.5L47.883,30.5z"/><path fill="#fff" d="M34.5,79h-10c-0.276,0-0.5-0.224-0.5-0.5s0.224-0.5,0.5-0.5h10c0.276,0,0.5,0.224,0.5,0.5 S34.777,79,34.5,79z"/><path fill="#fff" d="M37.5,79h-1c-0.276,0-0.5-0.224-0.5-0.5s0.224-0.5,0.5-0.5h1c0.276,0,0.5,0.224,0.5,0.5 S37.777,79,37.5,79z"/><path fill="#fff" d="M42.491,81H33.5c-0.276,0-0.5-0.224-0.5-0.5s0.224-0.5,0.5-0.5h8.991c0.276,0,0.5,0.224,0.5,0.5 S42.767,81,42.491,81z"/><path fill="#fff" d="M31.5,81h-1c-0.276,0-0.5-0.224-0.5-0.5s0.224-0.5,0.5-0.5h1c0.276,0,0.5,0.224,0.5,0.5 S31.777,81,31.5,81z"/><path fill="#fff" d="M28.5,81h-2c-0.276,0-0.5-0.224-0.5-0.5s0.224-0.5,0.5-0.5h2c0.276,0,0.5,0.224,0.5,0.5 S28.777,81,28.5,81z"/><path fill="#fff" d="M34.5,83h-2c-0.276,0-0.5-0.224-0.5-0.5s0.224-0.5,0.5-0.5h2c0.276,0,0.5,0.224,0.5,0.5 S34.776,83,34.5,83z"/><path fill="#fff" d="M37.5,74c-0.177,0-0.823,0-1,0c-0.276,0-0.5,0.224-0.5,0.5c0,0.276,0.224,0.5,0.5,0.5 c0.177,0,0.823,0,1,0c0.276,0,0.5-0.224,0.5-0.5C38,74.224,37.776,74,37.5,74z"/><path fill="#fff" d="M37.5,76c-0.177,0-4.823,0-5,0c-0.276,0-0.5,0.224-0.5,0.5c0,0.276,0.224,0.5,0.5,0.5 c0.177,0,4.823,0,5,0c0.276,0,0.5-0.224,0.5-0.5C38,76.224,37.776,76,37.5,76z"/><path fill="#fff" d="M42.5,78c-0.177,0-2.823,0-3,0c-0.276,0-0.5,0.224-0.5,0.5c0,0.276,0.224,0.5,0.5,0.5 c0.177,0,2.823,0,3,0c0.276,0,0.5-0.224,0.5-0.5C43,78.224,42.776,78,42.5,78z"/><g><path fill="#fff" d="M69.5,23h-10c-0.276,0-0.5-0.224-0.5-0.5s0.224-0.5,0.5-0.5h10c0.276,0,0.5,0.224,0.5,0.5 S69.776,23,69.5,23z"/><path fill="#fff" d="M73.5,23h-2c-0.276,0-0.5-0.224-0.5-0.5s0.224-0.5,0.5-0.5h2c0.276,0,0.5,0.224,0.5,0.5 S73.776,23,73.5,23z"/><path fill="#fff" d="M78.5,25h-10c-0.276,0-0.5-0.224-0.5-0.5s0.224-0.5,0.5-0.5h10c0.276,0,0.5,0.224,0.5,0.5 S78.777,25,78.5,25z"/><path fill="#fff" d="M66.5,25h-1c-0.276,0-0.5-0.224-0.5-0.5s0.224-0.5,0.5-0.5h1c0.276,0,0.5,0.224,0.5,0.5 S66.776,25,66.5,25z"/><path fill="#fff" d="M63.47,25H61.5c-0.276,0-0.5-0.224-0.5-0.5s0.224-0.5,0.5-0.5h1.97c0.276,0,0.5,0.224,0.5,0.5 S63.746,25,63.47,25z"/><path fill="#fff" d="M72.5,21h-5c-0.276,0-0.5-0.224-0.5-0.5s0.224-0.5,0.5-0.5h5c0.276,0,0.5,0.224,0.5,0.5 S72.777,21,72.5,21z"/><path fill="#fff" d="M69.5,27h-2c-0.276,0-0.5-0.224-0.5-0.5s0.224-0.5,0.5-0.5h2c0.276,0,0.5,0.224,0.5,0.5 S69.776,27,69.5,27z"/></g><g><path fill="#88ae45" d="M65.127,70.3c-0.255,0-0.497-0.123-0.646-0.329L61.375,65.7H71.3v3.8c0,0.441-0.358,0.8-0.8,0.8 H65.127z"/><path fill="#472b29" d="M70.6,66.4v3.1c0,0.055-0.045,0.1-0.1,0.1h-5.373c-0.032,0-0.062-0.016-0.081-0.041L62.749,66.4 H70.6 M72,65H60l3.914,5.382C64.196,70.771,64.647,71,65.127,71H70.5c0.828,0,1.5-0.671,1.5-1.5V65L72,65z"/><path fill="#88ae45" d="M30.5,70.3c-0.441,0-0.8-0.358-0.8-0.8v-3.8h9.925l-3.106,4.27 c-0.149,0.207-0.392,0.33-0.646,0.33H30.5z"/><path fill="#472b29" d="M38.25,66.4l-2.297,3.159c-0.019,0.025-0.049,0.041-0.081,0.041H30.5c-0.055,0-0.1-0.045-0.1-0.1 v-3.1H38.25 M41,65H29v4.5c0,0.829,0.672,1.5,1.5,1.5h5.372c0.48,0,0.931-0.229,1.213-0.618L41,65L41,65z"/><path fill="#c0d078" d="M29.139,65.3c-2.447,0-4.438-1.991-4.438-4.438V42.139c0-2.447,1.991-4.438,4.438-4.438h43.723 c2.447,0,4.438,1.991,4.438,4.438v18.723c0,2.447-1.991,4.438-4.438,4.438H29.139z"/><path fill="#472b29" d="M72.862,38.4c2.061,0,3.738,1.677,3.738,3.738v18.724c0,2.061-1.677,3.738-3.738,3.738H29.138 c-2.061,0-3.738-1.677-3.738-3.738V42.138c0-2.061,1.677-3.738,3.738-3.738H72.862 M72.862,37H29.138C26.3,37,24,39.3,24,42.138 v18.724C24,63.7,26.3,66,29.138,66h43.724C75.7,66,78,63.7,78,60.862V42.138C78,39.3,75.7,37,72.862,37L72.862,37z"/><circle cx="38.5" cy="51.5" r="10.8" fill="#fdfcef"/><path fill="#472b29" d="M38.5,41.4c5.569,0,10.1,4.531,10.1,10.1s-4.531,10.1-10.1,10.1s-10.1-4.531-10.1-10.1 S32.931,41.4,38.5,41.4 M38.5,40C32.149,40,27,45.149,27,51.5S32.149,63,38.5,63S50,57.851,50,51.5S44.851,40,38.5,40L38.5,40z"/><path fill="#472b29" d="M30.636,50.277c-0.015,0-0.03-0.001-0.046-0.004c-0.136-0.025-0.226-0.156-0.2-0.291 c0.312-1.678,1.127-3.197,2.357-4.395c0.101-0.097,0.259-0.094,0.354,0.005c0.097,0.099,0.095,0.257-0.004,0.354 c-1.157,1.126-1.923,2.553-2.215,4.129C30.859,50.193,30.754,50.277,30.636,50.277z"/><path fill="#472b29" d="M32.735,57.297c-0.065,0-0.131-0.026-0.18-0.077c-1.09-1.132-1.829-2.539-2.141-4.071 c-0.027-0.135,0.061-0.267,0.195-0.295c0.132-0.027,0.267,0.06,0.295,0.195c0.292,1.439,0.987,2.761,2.01,3.824 c0.096,0.099,0.093,0.258-0.006,0.353C32.86,57.274,32.798,57.297,32.735,57.297z"/><path fill="#472b29" d="M36.751,59.558c-0.018,0-0.036-0.002-0.055-0.006c-1.049-0.234-2.029-0.666-2.913-1.283 c-0.112-0.079-0.141-0.235-0.062-0.348c0.08-0.113,0.234-0.141,0.349-0.062c0.829,0.579,1.75,0.985,2.735,1.205 c0.135,0.03,0.22,0.164,0.189,0.298C36.969,59.479,36.866,59.558,36.751,59.558z"/><path fill="#472b29" d="M40.146,59.58c-0.116,0-0.22-0.081-0.245-0.199c-0.028-0.135,0.059-0.268,0.194-0.296 c1.516-0.317,2.891-1.077,3.975-2.197c0.096-0.099,0.254-0.102,0.354-0.006c0.1,0.096,0.102,0.254,0.006,0.354 c-1.154,1.192-2.617,2.001-4.232,2.339C40.181,59.579,40.163,59.58,40.146,59.58z"/><path fill="#472b29" d="M45.342,55.898c-0.045,0-0.089-0.012-0.13-0.036c-0.118-0.072-0.155-0.225-0.084-0.343 c0.463-0.761,0.787-1.587,0.965-2.456c0.027-0.135,0.161-0.222,0.295-0.195c0.136,0.028,0.223,0.16,0.195,0.295 c-0.189,0.926-0.535,1.806-1.027,2.616C45.509,55.856,45.426,55.898,45.342,55.898z"/><path fill="#472b29" d="M43.668,45.643c-0.058,0-0.114-0.019-0.161-0.059c-0.917-0.776-2.016-1.335-3.177-1.616 c-0.135-0.032-0.217-0.168-0.185-0.302c0.033-0.134,0.17-0.217,0.302-0.184c1.237,0.299,2.406,0.894,3.382,1.721 c0.105,0.089,0.119,0.247,0.029,0.352C43.81,45.613,43.739,45.643,43.668,45.643z"/><path fill="#472b29" d="M34.577,44.776c-0.087,0-0.172-0.046-0.218-0.127c-0.067-0.12-0.025-0.273,0.095-0.341 c0.767-0.432,1.592-0.736,2.453-0.905c0.131-0.027,0.267,0.062,0.293,0.197c0.026,0.135-0.062,0.267-0.197,0.293 c-0.809,0.158-1.583,0.444-2.303,0.85C34.661,44.766,34.619,44.776,34.577,44.776z"/><circle cx="63.5" cy="51.5" r="10.8" fill="#fdfcef"/><path fill="#472b29" d="M63.5,41.4c5.569,0,10.1,4.531,10.1,10.1s-4.531,10.1-10.1,10.1s-10.1-4.531-10.1-10.1 S57.931,41.4,63.5,41.4 M63.5,40C57.149,40,52,45.149,52,51.5S57.149,63,63.5,63S75,57.851,75,51.5S69.851,40,63.5,40L63.5,40z"/><rect width="3" height="2" x="36.5" y="35.5" fill="#e0a825"/><path fill="#472b29" d="M40,38h-4v-3h4V38z M37,37h2v-1h-2V37z"/><path fill="#fbcd59" d="M41,35.5h-6c-0.828,0-1.5-0.672-1.5-1.5l0,0c0-0.828,0.672-1.5,1.5-1.5h6 c0.828,0,1.5,0.672,1.5,1.5l0,0C42.5,34.828,41.828,35.5,41,35.5z"/><path fill="#472b29" d="M41,36h-6c-1.103,0-2-0.897-2-2s0.897-2,2-2h6c1.103,0,2,0.897,2,2S42.103,36,41,36z M35,33 c-0.552,0-1,0.449-1,1s0.448,1,1,1h6c0.552,0,1-0.449,1-1s-0.448-1-1-1H35z"/><rect width="3" height="4" x="61.5" y="33.5" fill="#e0a825"/><path fill="#472b29" d="M65,38h-4v-5h4V38z M62,37h2v-3h-2V37z"/><path fill="#fbcd59" d="M66,33.5h-6c-0.828,0-1.5-0.672-1.5-1.5v0c0-0.828,0.672-1.5,1.5-1.5h6c0.828,0,1.5,0.672,1.5,1.5 v0C67.5,32.828,66.828,33.5,66,33.5z"/><path fill="#472b29" d="M66,34h-6c-1.103,0-2-0.897-2-2s0.897-2,2-2h6c1.103,0,2,0.897,2,2S67.103,34,66,34z M60,31 c-0.552,0-1,0.449-1,1s0.448,1,1,1h6c0.552,0,1-0.449,1-1s-0.448-1-1-1H60z"/><path fill="#472b29" d="M38.5,50c-0.276,0-0.5-0.224-0.5-0.5v-6c0-0.276,0.224-0.5,0.5-0.5s0.5,0.224,0.5,0.5v6 C39,49.776,38.776,50,38.5,50z"/><path fill="#472b29" d="M63.5,59.5c-0.553,0-1-0.448-1-1v-6c0-0.552,0.447-1,1-1s1,0.448,1,1v6 C64.5,59.052,64.053,59.5,63.5,59.5z"/><path fill="#472b29" d="M38.5,60c-0.276,0-0.5-0.224-0.5-0.5v-1c0-0.276,0.224-0.5,0.5-0.5s0.5,0.224,0.5,0.5v1 C39,59.776,38.776,60,38.5,60z"/><path fill="#472b29" d="M31.5,52h-1c-0.276,0-0.5-0.224-0.5-0.5s0.224-0.5,0.5-0.5h1c0.276,0,0.5,0.224,0.5,0.5 S31.776,52,31.5,52z"/><path fill="#472b29" d="M46.5,52h-1c-0.276,0-0.5-0.224-0.5-0.5s0.224-0.5,0.5-0.5h1c0.276,0,0.5,0.224,0.5,0.5 S46.776,52,46.5,52z"/><path fill="#472b29" d="M63.5,45c-0.276,0-0.5-0.224-0.5-0.5v-1c0-0.276,0.224-0.5,0.5-0.5s0.5,0.224,0.5,0.5v1 C64,44.776,63.776,45,63.5,45z"/><path fill="#472b29" d="M62.5,52h-7c-0.276,0-0.5-0.224-0.5-0.5s0.224-0.5,0.5-0.5h7c0.276,0,0.5,0.224,0.5,0.5 S62.776,52,62.5,52z"/><path fill="#472b29" d="M49.5,41h-4c-0.276,0-0.5-0.224-0.5-0.5s0.224-0.5,0.5-0.5h4c0.276,0,0.5,0.224,0.5,0.5 S49.776,41,49.5,41z"/><path fill="#472b29" d="M31.5,41h-3c-0.276,0-0.5-0.224-0.5-0.5s0.224-0.5,0.5-0.5h3c0.276,0,0.5,0.224,0.5,0.5 S31.776,41,31.5,41z"/><path fill="#472b29" d="M73.5,41h-3c-0.276,0-0.5-0.224-0.5-0.5s0.224-0.5,0.5-0.5h3c0.276,0,0.5,0.224,0.5,0.5 S73.776,41,73.5,41z"/><path fill="#472b29" d="M56.5,41h-4c-0.276,0-0.5-0.224-0.5-0.5s0.224-0.5,0.5-0.5h4c0.276,0,0.5,0.224,0.5,0.5 S56.776,41,56.5,41z"/><path fill="#472b29" d="M49.5,63h-4c-0.276,0-0.5-0.224-0.5-0.5s0.224-0.5,0.5-0.5h4c0.276,0,0.5,0.224,0.5,0.5 S49.776,63,49.5,63z"/><path fill="#472b29" d="M31.5,63h-3c-0.276,0-0.5-0.224-0.5-0.5s0.224-0.5,0.5-0.5h3c0.276,0,0.5,0.224,0.5,0.5 S31.776,63,31.5,63z"/><path fill="#472b29" d="M73.5,63h-3c-0.276,0-0.5-0.224-0.5-0.5s0.224-0.5,0.5-0.5h3c0.276,0,0.5,0.224,0.5,0.5 S73.776,63,73.5,63z"/><path fill="#472b29" d="M56.5,63h-4c-0.276,0-0.5-0.224-0.5-0.5s0.224-0.5,0.5-0.5h4c0.276,0,0.5,0.224,0.5,0.5 S56.776,63,56.5,63z"/><path fill="#472b29" d="M71.5,52h-1c-0.276,0-0.5-0.224-0.5-0.5s0.224-0.5,0.5-0.5h1c0.276,0,0.5,0.224,0.5,0.5 S71.776,52,71.5,52z"/><path fill="#472b29" d="M40.001,52c-0.305,0-0.604-0.138-0.801-0.4c-0.332-0.442-0.242-1.069,0.2-1.4l4-3 c0.441-0.332,1.067-0.242,1.399,0.2c0.332,0.442,0.242,1.069-0.2,1.4l-4,3C40.42,51.935,40.21,52,40.001,52z"/><g><circle cx="38.5" cy="51.5" r="1.8" fill="#88ae45"/><path fill="#472b29" d="M38.5,50.4c0.607,0,1.1,0.494,1.1,1.1s-0.493,1.1-1.1,1.1s-1.1-0.494-1.1-1.1 S37.893,50.4,38.5,50.4 M38.5,49c-1.381,0-2.5,1.119-2.5,2.5s1.119,2.5,2.5,2.5s2.5-1.119,2.5-2.5S39.881,49,38.5,49L38.5,49z"/></g><g><circle cx="63.5" cy="51.5" r="1.8" fill="#88ae45"/><path fill="#472b29" d="M63.5,50.4c0.607,0,1.1,0.494,1.1,1.1s-0.493,1.1-1.1,1.1s-1.1-0.494-1.1-1.1 S62.893,50.4,63.5,50.4 M63.5,49c-1.381,0-2.5,1.119-2.5,2.5s1.119,2.5,2.5,2.5s2.5-1.119,2.5-2.5S64.881,49,63.5,49L63.5,49z"/></g><g><path fill="#472b29" d="M60.948,59.348c-2.683-0.872-4.772-3.112-5.453-5.846l0.484-0.121 c0.64,2.569,2.603,4.673,5.123,5.492L60.948,59.348z"/></g><g><path fill="#472b29" d="M65.975,59.36c-0.105,0-0.203-0.067-0.237-0.173c-0.043-0.131,0.028-0.272,0.16-0.315 c0.85-0.276,1.64-0.695,2.348-1.244c0.108-0.084,0.267-0.065,0.351,0.044c0.085,0.109,0.065,0.266-0.044,0.351 c-0.754,0.585-1.595,1.031-2.5,1.325C66.026,59.356,66,59.36,65.975,59.36z"/></g><g><path fill="#472b29" d="M69.878,56.58c-0.053,0-0.105-0.017-0.151-0.051c-0.109-0.083-0.131-0.24-0.048-0.35 c0.701-0.925,1.192-2.014,1.42-3.147c0.026-0.135,0.15-0.224,0.294-0.196c0.136,0.027,0.224,0.159,0.196,0.294 c-0.242,1.207-0.765,2.365-1.512,3.35C70.028,56.546,69.953,56.58,69.878,56.58z"/></g><g><path fill="#472b29" d="M71.217,49.634c-0.11,0-0.211-0.073-0.241-0.184c-0.221-0.811-0.573-1.576-1.045-2.277 c-0.077-0.114-0.047-0.27,0.067-0.347c0.114-0.077,0.27-0.047,0.347,0.067c0.503,0.745,0.878,1.561,1.113,2.425 c0.036,0.133-0.042,0.271-0.176,0.307C71.261,49.631,71.238,49.634,71.217,49.634z"/></g><g><path fill="#472b29" d="M68.535,45.533c-0.056,0-0.111-0.018-0.157-0.056c-0.891-0.722-1.904-1.228-3.012-1.501 c-0.135-0.033-0.216-0.169-0.184-0.303c0.033-0.134,0.173-0.216,0.303-0.183c1.18,0.292,2.259,0.829,3.207,1.598 c0.107,0.087,0.124,0.244,0.037,0.352C68.68,45.502,68.607,45.533,68.535,45.533z"/></g><g><path fill="#472b29" d="M58.263,45.702c-0.07,0-0.14-0.029-0.188-0.086c-0.091-0.104-0.079-0.262,0.024-0.353 c0.929-0.804,2.042-1.4,3.219-1.722c0.14-0.037,0.271,0.042,0.308,0.175c0.036,0.133-0.042,0.271-0.175,0.307 c-1.106,0.302-2.151,0.862-3.023,1.617C58.379,45.682,58.321,45.702,58.263,45.702z"/></g><g><path fill="#472b29" d="M55.716,49.897c-0.019,0-0.038-0.002-0.058-0.007c-0.135-0.032-0.218-0.167-0.186-0.301 c0.214-0.899,0.575-1.75,1.074-2.531c0.075-0.116,0.229-0.15,0.346-0.076s0.15,0.229,0.076,0.345 c-0.47,0.733-0.81,1.533-1.01,2.377C55.932,49.819,55.829,49.897,55.716,49.897z"/></g></g><g><path fill="#fdfcef" d="M85.5,58.5c0,0,1.567,0,3.5,0s3.5-1.567,3.5-3.5c0-1.781-1.335-3.234-3.055-3.455 C89.473,51.366,89.5,51.187,89.5,51c0-1.933-1.567-3.5-3.5-3.5c-1.032,0-1.95,0.455-2.59,1.165 c-0.384-1.808-1.987-3.165-3.91-3.165c-2.209,0-4,1.791-4,4c0,0.191,0.03,0.374,0.056,0.558C75.128,49.714,74.592,49.5,74,49.5 c-1.228,0-2.245,0.887-2.455,2.055C71.366,51.527,71.187,51.5,71,51.5c-1.933,0-3.5,1.567-3.5,3.5s1.567,3.5,3.5,3.5s7.5,0,7.5,0 V59h7V58.5z"/><path fill="#472b29" d="M87.25,54C87.112,54,87,53.888,87,53.75c0-1.223,0.995-2.218,2.218-2.218 c0.034,0.009,0.737-0.001,1.244,0.136c0.133,0.036,0.212,0.173,0.176,0.306c-0.036,0.134-0.173,0.213-0.306,0.176 c-0.444-0.12-1.1-0.12-1.113-0.118c-0.948,0-1.719,0.771-1.719,1.718C87.5,53.888,87.388,54,87.25,54z"/><circle cx="80.5" cy="58.5" r=".5" fill="#472b29"/><path fill="#472b29" d="M89,59h-3.5c-0.276,0-0.5-0.224-0.5-0.5s0.224-0.5,0.5-0.5H89c1.654,0,3-1.346,3-3 c0-1.496-1.125-2.768-2.618-2.959c-0.134-0.018-0.255-0.088-0.336-0.196s-0.115-0.244-0.094-0.377C88.975,51.314,89,51.16,89,51 c0-1.654-1.346-3-3-3c-0.85,0-1.638,0.355-2.219,1c-0.125,0.139-0.321,0.198-0.5,0.148c-0.182-0.049-0.321-0.195-0.36-0.379 C82.58,47.165,81.141,46,79.5,46c-1.93,0-3.5,1.57-3.5,3.5c0,0.143,0.021,0.28,0.041,0.418c0.029,0.203-0.063,0.438-0.242,0.54 c-0.179,0.102-0.396,0.118-0.556-0.01C74.878,50.155,74.449,50,74,50c-0.966,0-1.792,0.691-1.963,1.644 c-0.048,0.267-0.296,0.446-0.569,0.405C71.314,52.025,71.16,52,71,52c-1.654,0-3,1.346-3,3s1.346,3,3,3h7.5 c0.276,0,0.5,0.224,0.5,0.5S78.776,59,78.5,59H71c-2.206,0-4-1.794-4-4s1.794-4,4-4c0.059,0,0.116,0.002,0.174,0.006 C71.588,49.82,72.711,49,74,49c0.349,0,0.689,0.061,1.011,0.18C75.176,46.847,77.126,45,79.5,45c1.831,0,3.466,1.127,4.153,2.774 C84.333,47.276,85.155,47,86,47c2.206,0,4,1.794,4,4c0,0.048-0.001,0.095-0.004,0.142C91.739,51.59,93,53.169,93,55 C93,57.206,91.206,59,89,59z"/><path fill="#472b29" d="M83.5,58c-0.159,0-0.841,0-1,0c-0.276,0-0.5,0.224-0.5,0.5c0,0.276,0.224,0.5,0.5,0.5 c0.159,0,0.841,0,1,0c0.276,0,0.5-0.224,0.5-0.5C84,58.224,83.776,58,83.5,58z"/></g></svg>