<svg xmlns="http://www.w3.org/2000/svg" viewBox="0 0 100 100"><path fill="#c7ede6" d="M88.704,55.674c0.3-0.616,0.566-1.264,0.796-1.943c2.633-7.77-1.349-17.078-9.733-19.325C78.86,23.023,70.86,15.214,61.826,13.881c-10.341-1.525-19.814,5.044-22.966,15.485c-3.799-1.346-7.501-1.182-10.99,0.857c-1.583,0.732-3.031,1.812-4.33,3.233c-1.907,2.086-3.147,4.719-3.652,7.495c-0.748,0.118-1.483,0.236-2.176,0.484c-4.04,1.449-6.589,4.431-7.288,8.923c-0.435,2.797,0.443,5.587,0.933,6.714c1.935,4.455,6.422,6.98,10.981,6.312c0.227-0.033,0.557,0.069,0.752,0.233c0.241,7.12,3.698,13.417,8.884,17.014c8.321,5.772,19.027,3.994,25.781-3.921c2.894,2.96,6.338,4.398,10.384,3.876c4.023-0.519,7.147-2.739,9.426-6.349c1.053,0.283,2.051,0.691,3.083,0.804c4.042,0.442,7.324-1.165,9.732-4.8c0.922-1.391,1.793-3.194,1.793-6.354C92.174,60.631,90.881,57.664,88.704,55.674z"/><path fill="#fdfcef" d="M73.968,48.843c0,0,11.691,0,11.762,0c2.7,0,4.888-2.189,4.888-4.889c0-2.355-1.666-4.321-3.884-4.784c0.026-0.206,0.043-0.415,0.043-0.628c0-2.796-2.267-5.063-5.063-5.063c-1.651,0-3.113,0.794-4.037,2.017c-0.236-3.113-3.017-5.514-6.27-5.116c-2.379,0.291-4.346,2.13-4.784,4.486c-0.14,0.756-0.126,1.489,0.014,2.177c-0.638-0.687-1.546-1.119-2.557-1.119c-1.85,0-3.361,1.441-3.48,3.261c-0.84-0.186-1.754-0.174-2.717,0.188c-1.84,0.691-3.15,2.423-3.227,4.387c-0.109,2.789,2.12,5.085,4.885,5.085c0.21,0,0.948,0,1.118,0h10.151"/><path fill="#472b29" d="M85.73,49.343H73.968c-0.276,0-0.5-0.224-0.5-0.5s0.224-0.5,0.5-0.5H85.73c2.42,0,4.389-1.969,4.389-4.389c0-2.066-1.467-3.872-3.487-4.295c-0.255-0.054-0.427-0.294-0.394-0.553c0.023-0.186,0.04-0.373,0.04-0.564c0-2.517-2.047-4.563-4.563-4.563c-1.438,0-2.765,0.663-3.639,1.818c-0.125,0.165-0.342,0.235-0.539,0.178c-0.2-0.059-0.342-0.234-0.358-0.441c-0.104-1.377-0.778-2.671-1.85-3.549c-1.083-0.888-2.455-1.282-3.86-1.109c-2.165,0.265-3.955,1.943-4.354,4.082c-0.123,0.667-0.119,1.335,0.014,1.985c0.044,0.22-0.062,0.442-0.262,0.544c-0.196,0.104-0.442,0.061-0.595-0.104c-0.575-0.618-1.353-0.959-2.19-0.959c-1.568,0-2.878,1.228-2.981,2.794c-0.01,0.146-0.082,0.279-0.199,0.367c-0.116,0.087-0.268,0.117-0.407,0.088c-0.844-0.186-1.639-0.131-2.434,0.167c-1.668,0.627-2.835,2.21-2.902,3.939c-0.047,1.207,0.387,2.35,1.222,3.218s1.959,1.347,3.163,1.347h11.269c0.276,0,0.5,0.224,0.5,0.5s-0.224,0.5-0.5,0.5H59.542c-1.479,0-2.858-0.587-3.884-1.653c-1.025-1.065-1.559-2.469-1.501-3.95c0.084-2.126,1.511-4.069,3.551-4.836c0.8-0.301,1.629-0.399,2.468-0.299c0.378-1.822,1.998-3.182,3.905-3.182c0.685,0,1.354,0.18,1.944,0.51c-0.001-0.385,0.034-0.771,0.106-1.158c0.477-2.563,2.621-4.574,5.215-4.892c1.674-0.203,3.32,0.266,4.615,1.328c1.004,0.823,1.717,1.951,2.038,3.193c1.013-0.916,2.319-1.426,3.714-1.426c3.067,0,5.563,2.496,5.563,5.563c0,0.083-0.002,0.166-0.007,0.249c2.254,0.673,3.848,2.777,3.848,5.163C91.119,46.926,88.702,49.343,85.73,49.343z"/><path fill="#fdfcef" d="M71.135,38.075c-1.808-0.119-3.365,1.13-3.476,2.789c-0.014,0.206-0.005,0.409,0.025,0.606c-0.349-0.394-0.865-0.661-1.458-0.7c-1.085-0.071-2.022,0.645-2.158,1.62c-0.197-0.054-0.403-0.09-0.616-0.104c-1.582-0.104-2.944,0.989-3.042,2.441"/><path fill="#472b29" d="M60.41,44.976c-0.006,0-0.011,0-0.017-0.001c-0.138-0.009-0.242-0.128-0.232-0.266c0.106-1.586,1.579-2.786,3.308-2.674c0.136,0.009,0.272,0.026,0.408,0.053c0.274-0.968,1.243-1.648,2.366-1.567c0.426,0.027,0.824,0.16,1.163,0.382c0.001-0.019,0.002-0.037,0.004-0.056c0.119-1.795,1.806-3.153,3.741-3.021c0.138,0.009,0.242,0.128,0.232,0.266c-0.008,0.132-0.118,0.233-0.249,0.233c-0.005,0-0.011,0-0.017-0.001c-1.67-0.113-3.108,1.037-3.21,2.557c-0.012,0.187-0.004,0.372,0.023,0.552c0.017,0.109-0.041,0.218-0.141,0.265c-0.101,0.046-0.221,0.022-0.294-0.061c-0.321-0.364-0.778-0.583-1.287-0.617c-0.933-0.051-1.776,0.555-1.894,1.404c-0.011,0.071-0.051,0.135-0.11,0.175c-0.061,0.04-0.136,0.051-0.203,0.032c-0.188-0.051-0.378-0.083-0.567-0.097c-1.463-0.085-2.688,0.897-2.776,2.209C60.65,44.875,60.54,44.976,60.41,44.976z"/><path fill="#fdfcef" d="M87.709,39.743c-1.699-0.801-3.664-0.234-4.389,1.267c-0.09,0.186-0.157,0.379-0.201,0.574"/><path fill="#472b29" d="M83.12,41.834c-0.018,0-0.036-0.002-0.055-0.006c-0.135-0.03-0.22-0.164-0.189-0.299c0.049-0.217,0.123-0.428,0.221-0.628c0.783-1.62,2.899-2.241,4.72-1.384c0.125,0.06,0.179,0.208,0.12,0.333c-0.06,0.126-0.21,0.176-0.333,0.12c-1.574-0.744-3.393-0.227-4.057,1.148c-0.081,0.167-0.143,0.341-0.183,0.52C83.337,41.754,83.234,41.834,83.12,41.834z"/><path fill="#fff" d="M18.369 47.711H8.338c-.276 0-.5-.224-.5-.5s.224-.5.5-.5h10.03c.276 0 .5.224.5.5S18.645 47.711 18.369 47.711zM21.249 47.711h-1.445c-.276 0-.5-.224-.5-.5s.224-.5.5-.5h1.445c.276 0 .5.224.5.5S21.526 47.711 21.249 47.711zM25.304 47.711h-2.546c-.276 0-.5-.224-.5-.5s.224-.5.5-.5h2.546c.276 0 .5.224.5.5S25.581 47.711 25.304 47.711zM25.304 49.575h-9.616c-.276 0-.5-.224-.5-.5s.224-.5.5-.5h9.616c.276 0 .5.224.5.5S25.581 49.575 25.304 49.575zM13.956 49.575h-.58c-.276 0-.5-.224-.5-.5s.224-.5.5-.5h.58c.276 0 .5.224.5.5S14.233 49.575 13.956 49.575zM11.58 49.575h-1.456c-.276 0-.5-.224-.5-.5s.224-.5.5-.5h1.456c.276 0 .5.224.5.5S11.856 49.575 11.58 49.575zM20.715 45.845h-5.027c-.276 0-.5-.224-.5-.5s.224-.5.5-.5h5.027c.276 0 .5.224.5.5S20.992 45.845 20.715 45.845zM20.715 43.98h-1.257c-.276 0-.5-.224-.5-.5s.224-.5.5-.5h1.257c.276 0 .5.224.5.5S20.992 43.98 20.715 43.98zM17.447 51.44h-1.759c-.276 0-.5-.224-.5-.5s.224-.5.5-.5h1.759c.276 0 .5.224.5.5S17.723 51.44 17.447 51.44zM71.546 21.433h-10.03c-.276 0-.5-.224-.5-.5s.224-.5.5-.5h10.03c.276 0 .5.224.5.5S71.823 21.433 71.546 21.433zM74.427 21.433h-1.445c-.276 0-.5-.224-.5-.5s.224-.5.5-.5h1.445c.276 0 .5.224.5.5S74.704 21.433 74.427 21.433zM78.482 21.433h-2.546c-.276 0-.5-.224-.5-.5s.224-.5.5-.5h2.546c.276 0 .5.224.5.5S78.758 21.433 78.482 21.433zM76.456 17.704H66.84c-.276 0-.5-.224-.5-.5s.224-.5.5-.5h9.616c.276 0 .5.224.5.5S76.733 17.704 76.456 17.704zM65.109 17.704h-.58c-.276 0-.5-.224-.5-.5s.224-.5.5-.5h.58c.276 0 .5.224.5.5S65.385 17.704 65.109 17.704zM62.732 17.704h-1.456c-.276 0-.5-.224-.5-.5s.224-.5.5-.5h1.456c.276 0 .5.224.5.5S63.008 17.704 62.732 17.704zM73.893 19.568h-5.027c-.276 0-.5-.224-.5-.5s.224-.5.5-.5h5.027c.276 0 .5.224.5.5S74.169 19.568 73.893 19.568z"/><path fill="#fff" d="M73.893 17.704h-1.257c-.276 0-.5-.224-.5-.5s.224-.5.5-.5h1.257c.276 0 .5.224.5.5S74.169 17.704 73.893 17.704zM67.411 19.568h-1.759c-.276 0-.5-.224-.5-.5s.224-.5.5-.5h1.759c.276 0 .5.224.5.5S67.687 19.568 67.411 19.568z"/><path fill="#edf7f5" d="M73.916,28.431l2.491-0.038c0.142-5.083-5.983-4.773-5.983-4.773l-30.167-0.004c-2.314,0-4.227,2.526-4.227,4.593v26.08l-5.998-0.017c-0.005,0.217,0.003,12.478,0.022,12.673c0.392,4.033,5.651,3.582,5.651,3.582l35.105,0.025c1.892,0.176,3.107-2.082,3.107-3.336S73.916,28.431,73.916,28.431"/><path fill="#472b29" d="M35.523,68.84c-0.387,0-0.7-0.313-0.7-0.7s0.313-0.7,0.7-0.7c0.127,0,0.161-0.036,0.182-0.058c0.126-0.137,0.26-0.524,0.18-1.6l0.047-37.574c0-2.396,2.198-5.293,4.928-5.293l30.167,0.004c0.102-0.007,3.354-0.147,5.294,1.75c0.965,0.943,1.432,2.202,1.389,3.743c-0.011,0.379-0.32,0.68-0.699,0.681l-22.938,0.038h-0.001c-0.386,0-0.699-0.312-0.7-0.699c0-0.387,0.312-0.7,0.699-0.701l22.214-0.037c-0.089-0.825-0.398-1.49-0.938-2.02c-1.497-1.469-4.257-1.356-4.285-1.355l-30.201-0.003c-1.866,0-3.527,2.177-3.527,3.894l-0.049,37.522c0.068,0.892,0.058,1.945-0.553,2.603C36.423,68.666,36.005,68.84,35.523,68.84z"/><path fill="#472b29" d="M71.623 71.237c-.091 0-.182-.005-.272-.013l-34.988-.022c-1.982.17-5.975-.478-6.338-4.204-.027-.28-.027-12.623-.025-12.724.009-.381.32-.685.7-.685.001 0 .001 0 .002 0l5.33.017c.387.001.699.315.698.702-.001.386-.314.698-.7.698-.001 0-.001 0-.002 0l-4.629-.015c0 2.569.005 11.485.021 11.898.318 3.254 4.702 2.929 4.885 2.914l35.111.022c.521.045.962-.119 1.367-.488.646-.591 1.033-1.552 1.033-2.14V28.431c0-.387.313-.7.7-.7s.7.313.7.7v38.768c0 1.068-.613 2.374-1.491 3.174C73.103 70.941 72.38 71.237 71.623 71.237zM51.064 29.131h-3.007c-.387 0-.7-.313-.7-.7s.313-.7.7-.7h3.007c.387 0 .7.313.7.7S51.451 29.131 51.064 29.131zM50.763 37.526H39.939c-.207 0-.375-.168-.375-.375s.168-.375.375-.375h10.824c.207 0 .375.168.375.375S50.97 37.526 50.763 37.526z"/><path fill="#472b29" d="M72.413 37.526H52.568c-.207 0-.375-.168-.375-.375s.168-.375.375-.375h19.845c.207 0 .375.168.375.375S72.62 37.526 72.413 37.526zM72.413 43.54H53.77c-.207 0-.375-.168-.375-.375s.168-.375.375-.375h18.643c.207 0 .375.168.375.375S72.62 43.54 72.413 43.54zM72.413 47.749H53.77c-.207 0-.375-.168-.375-.375s.168-.375.375-.375h18.643c.207 0 .375.168.375.375S72.62 47.749 72.413 47.749z"/><path fill="#a8dbdb" d="M50.162 43.766L50.162 51.583 39.939 51.583 39.939 41.962 48.358 41.962"/><path fill="#472b29" d="M50.162 51.959H39.939c-.207 0-.375-.168-.375-.375v-9.622c0-.207.168-.375.375-.375h8.419c.207 0 .375.168.375.375s-.168.375-.375.375h-8.044v8.872h9.473v-7.443c0-.207.168-.375.375-.375s.375.168.375.375v7.818C50.537 51.791 50.369 51.959 50.162 51.959zM61.588 51.959H53.77c-.207 0-.375-.168-.375-.375s.168-.375.375-.375h7.818c.207 0 .375.168.375.375S61.795 51.959 61.588 51.959zM63.994 33.918h-8.419c-.207 0-.375-.168-.375-.375s.168-.375.375-.375h8.419c.207 0 .375.168.375.375S64.201 33.918 63.994 33.918zM72.413 33.918h-6.615c-.207 0-.375-.168-.375-.375s.168-.375.375-.375h6.615c.207 0 .375.168.375.375S72.62 33.918 72.413 33.918zM53.77 33.918H39.939c-.207 0-.375-.168-.375-.375s.168-.375.375-.375H53.77c.207 0 .375.168.375.375S53.977 33.918 53.77 33.918zM58.581 65.188H39.939c-.207 0-.375-.168-.375-.375s.168-.375.375-.375h18.643c.207 0 .375.168.375.375S58.789 65.188 58.581 65.188zM58.581 60.979H39.939c-.207 0-.375-.168-.375-.375s.168-.375.375-.375h18.643c.207 0 .375.168.375.375S58.789 60.979 58.581 60.979z"/><path fill="#a8dbdb" d="M61.588 64.814L61.588 56.394 71.811 56.394 71.811 66.016 63.993 66.016"/><path fill="#472b29" d="M71.811 66.391h-7.817c-.207 0-.375-.168-.375-.375s.168-.375.375-.375h7.442v-8.872h-9.473v8.044c0 .207-.168.375-.375.375s-.375-.168-.375-.375v-8.419c0-.207.168-.375.375-.375h10.223c.207 0 .375.168.375.375v9.622C72.186 66.223 72.018 66.391 71.811 66.391zM58.581 56.769H39.939c-.207 0-.375-.168-.375-.375s.168-.375.375-.375h18.643c.207 0 .375.168.375.375S58.789 56.769 58.581 56.769zM43.566 45.015c-.038 0-.075-.017-.1-.05-.042-.055-.031-.133.024-.175l3.851-2.929c.055-.04.134-.031.175.024.042.055.031.133-.024.175l-3.851 2.929C43.619 45.006 43.592 45.015 43.566 45.015z"/><path fill="#472b29" d="M43.566 45.015c-.038 0-.075-.017-.1-.05-.042-.055-.031-.133.024-.175l3.851-2.929c.055-.04.134-.031.175.024.042.055.031.133-.024.175l-3.851 2.929C43.619 45.006 43.592 45.015 43.566 45.015zM45.956 46.576c-.038 0-.075-.017-.1-.05-.042-.055-.031-.133.024-.175l3.852-2.929c.056-.04.134-.031.175.024.042.055.031.133-.024.175l-3.852 2.929C46.008 46.567 45.982 46.576 45.956 46.576zM45.05 45.632c-.038 0-.075-.017-.1-.05-.042-.055-.031-.133.024-.175l3.852-2.929c.056-.04.134-.031.175.024.042.055.031.133-.024.175l-3.852 2.929C45.103 45.624 45.077 45.632 45.05 45.632zM46.311 47.886c-.038 0-.075-.017-.1-.05-.042-.055-.031-.133.024-.175l3.851-2.929c.056-.04.134-.031.175.024.042.055.031.133-.024.175l-3.851 2.929C46.364 47.878 46.337 47.886 46.311 47.886zM46.16 49.734c-.038 0-.075-.017-.1-.05-.042-.055-.031-.133.024-.175l3.851-2.929c.055-.04.134-.031.175.024.042.055.031.133-.024.175l-3.851 2.929C46.212 49.725 46.186 49.734 46.16 49.734zM41.325 45.015c-.038 0-.075-.017-.1-.05-.042-.055-.031-.133.024-.175l3.852-2.929c.055-.04.134-.031.175.024.042.055.031.133-.024.175L41.4 44.99C41.377 45.006 41.351 45.015 41.325 45.015zM46.212 51.442c-.038 0-.075-.017-.1-.049-.042-.056-.031-.134.023-.176l3.851-2.93c.059-.04.136-.03.176.023.042.056.031.134-.023.176l-3.851 2.93C46.265 51.433 46.239 51.442 46.212 51.442zM63.138 60.988c-.038 0-.075-.017-.1-.05-.042-.055-.031-.133.024-.175l5.701-4.335c.056-.04.134-.031.175.024.042.055.031.133-.024.175l-5.701 4.335C63.191 60.979 63.164 60.988 63.138 60.988zM67.378 61.142c-.037 0-.073-.016-.098-.047-.043-.054-.034-.133.02-.176l4.282-3.415c.055-.044.134-.034.176.02.043.054.034.133-.02.176l-4.282 3.415C67.433 61.133 67.406 61.142 67.378 61.142zM64.985 61.331c-.038 0-.075-.017-.1-.05-.042-.055-.031-.133.024-.175l6.024-4.582c.056-.04.134-.032.175.024.042.055.031.133-.024.175l-6.024 4.582C65.038 61.322 65.011 61.331 64.985 61.331zM67.734 62.453c-.037 0-.073-.017-.098-.048-.043-.054-.034-.132.021-.175l4.077-3.229c.053-.044.133-.033.175.021.043.054.034.132-.021.175l-4.077 3.229C67.789 62.444 67.761 62.453 67.734 62.453zM67.581 64.3c-.038 0-.075-.017-.1-.05-.042-.055-.031-.133.024-.175l4.229-3.217c.056-.04.134-.032.175.024.042.055.031.133-.024.175l-4.229 3.217C67.634 64.292 67.608 64.3 67.581 64.3zM61.805 60.298c-.038 0-.075-.017-.1-.05-.042-.055-.031-.133.024-.175l4.793-3.646c.056-.04.134-.031.175.024.042.055.031.133-.024.175l-4.793 3.646C61.858 60.29 61.831 60.298 61.805 60.298zM67.634 66.007c-.038 0-.075-.017-.1-.05-.042-.055-.031-.133.024-.175l3.852-2.929c.056-.04.134-.031.175.024.042.055.031.133-.024.175l-3.852 2.929C67.687 65.999 67.661 66.007 67.634 66.007zM61.45 58.821c-.038 0-.075-.017-.1-.05-.042-.055-.031-.133.023-.175l3.124-2.376c.056-.04.134-.03.175.023.042.056.031.134-.023.176l-3.124 2.376C61.502 58.812 61.476 58.821 61.45 58.821z"/><g><path fill="#fdfcef" d="M41.997,72.99c1.883,0,3.517,0,3.54,0c2.11,0,3.821-1.674,3.821-3.739c0-1.802-1.302-3.305-3.035-3.66c0.02-0.158,0.034-0.317,0.034-0.48c0-2.139-1.772-3.873-3.957-3.873c-1.29,0-2.433,0.607-3.155,1.543c-0.185-2.381-2.358-4.218-4.9-3.913c-1.859,0.223-3.397,1.629-3.739,3.431c-0.11,0.578-0.098,1.139,0.011,1.665c-0.498-0.525-1.208-0.856-1.998-0.856c-1.446,0-2.627,1.102-2.72,2.494c-0.657-0.142-1.371-0.133-2.123,0.143c-1.438,0.528-2.462,1.853-2.522,3.356c-0.085,2.133,1.657,3.889,3.818,3.889c0.164,0,0.741,0,0.874,0h7.934 M35.52,72.99h0.36"/><path fill="#472b29" d="M45.538,73.49h-3.54c-0.276,0-0.5-0.224-0.5-0.5s0.224-0.5,0.5-0.5h3.54c1.831,0,3.32-1.453,3.32-3.239c0-1.524-1.108-2.857-2.636-3.169c-0.255-0.053-0.428-0.293-0.396-0.552c0.017-0.138,0.029-0.276,0.029-0.419c0-1.86-1.551-3.373-3.457-3.373c-1.092,0-2.098,0.491-2.76,1.349c-0.125,0.164-0.342,0.231-0.538,0.174c-0.198-0.06-0.34-0.234-0.355-0.44c-0.079-1.02-0.565-1.944-1.369-2.604c-0.829-0.68-1.884-0.981-2.973-0.854c-1.646,0.197-3.007,1.442-3.308,3.028c-0.094,0.496-0.091,0.99,0.009,1.471c0.046,0.219-0.06,0.441-0.258,0.545c-0.196,0.104-0.439,0.063-0.595-0.1c-0.427-0.451-1.008-0.699-1.635-0.699c-1.169,0-2.145,0.891-2.221,2.027c-0.01,0.146-0.082,0.279-0.198,0.366c-0.116,0.088-0.265,0.122-0.407,0.089c-0.637-0.137-1.241-0.098-1.844,0.125c-1.262,0.463-2.145,1.631-2.195,2.906c-0.035,0.874,0.282,1.707,0.895,2.344c0.635,0.66,1.495,1.024,2.423,1.024h8.808c0.276,0,0.5,0.224,0.5,0.5s-0.224,0.5-0.5,0.5H25.07c-1.185,0-2.33-0.485-3.144-1.332c-0.803-0.835-1.219-1.928-1.174-3.076c0.068-1.675,1.213-3.204,2.85-3.806c0.612-0.224,1.242-0.309,1.881-0.244c0.345-1.396,1.629-2.424,3.135-2.424c0.493,0,0.977,0.113,1.414,0.322c0.009-0.241,0.036-0.482,0.082-0.725c0.381-2.01,2.096-3.587,4.171-3.835c1.369-0.17,2.686,0.218,3.726,1.072c0.748,0.613,1.278,1.409,1.546,2.302c0.791-0.648,1.786-1.007,2.843-1.007c2.458,0,4.457,1.962,4.457,4.373c0,0.034-0.001,0.068-0.002,0.103c1.765,0.554,3.004,2.188,3.004,4.037C49.858,71.588,47.919,73.49,45.538,73.49z M35.879,73.49H35.52c-0.276,0-0.5-0.224-0.5-0.5s0.224-0.5,0.5-0.5h0.359c0.276,0,0.5,0.224,0.5,0.5S36.156,73.49,35.879,73.49z"/><path fill="#472b29" d="M43.83,67.687c-0.018,0-0.036-0.002-0.055-0.006c-0.135-0.03-0.22-0.164-0.189-0.299c0.037-0.164,0.094-0.325,0.169-0.479c0.606-1.225,2.274-1.677,3.723-1.007c0.126,0.058,0.181,0.206,0.122,0.331c-0.058,0.126-0.208,0.179-0.331,0.122c-1.206-0.553-2.579-0.208-3.065,0.775c-0.058,0.117-0.101,0.24-0.129,0.366C44.047,67.608,43.945,67.687,43.83,67.687z"/><g><path fill="#472b29" d="M38.671,73.49h-1.107c-0.276,0-0.5-0.224-0.5-0.5s0.224-0.5,0.5-0.5h1.107c0.276,0,0.5,0.224,0.5,0.5S38.948,73.49,38.671,73.49z"/></g></g><g><path fill="#bd977c" d="M76.744,74.863L62.991,75.56c-0.876,0.044-1.63-0.636-1.674-1.513l-0.93-18.323c-0.048-0.939,0.682-1.747,1.621-1.794l15.668-0.795c2.336-0.119,4.345,1.696,4.463,4.032l0.563,11.098C82.878,71.719,80.196,74.687,76.744,74.863z"/><path fill="#472b29" d="M62.908,76.062c-0.519,0-1.012-0.19-1.401-0.542c-0.416-0.376-0.661-0.89-0.688-1.447l-0.93-18.322c-0.062-1.217,0.878-2.258,2.095-2.319l15.668-0.795c2.572-0.159,4.855,1.889,4.988,4.507l0.562,11.098c0.092,1.804-0.528,3.539-1.747,4.888c-1.218,1.349-2.882,2.142-4.686,2.233l0,0l-13.753,0.697C62.98,76.061,62.944,76.062,62.908,76.062z M77.893,53.629c-0.063,0-0.127,0.002-0.191,0.005l-15.668,0.795c-0.321,0.017-0.617,0.158-0.835,0.399c-0.218,0.24-0.328,0.55-0.312,0.871l0.93,18.322c0.015,0.291,0.143,0.56,0.361,0.757c0.217,0.196,0.481,0.298,0.788,0.282l13.753-0.697c1.537-0.078,2.955-0.755,3.995-1.905c1.039-1.15,1.568-2.631,1.49-4.167l-0.562-11.098C81.539,55.191,79.876,53.629,77.893,53.629z M76.744,74.863h0.01H76.744z"/><path fill="#472b29" d="M62.517,65.337c-0.119,0-0.219-0.093-0.225-0.213l-0.4-7.887c-0.053-1.029,0.743-1.91,1.772-1.962l13.384-0.679c0.118-0.003,0.23,0.089,0.236,0.213c0.007,0.124-0.089,0.23-0.213,0.236l-13.384,0.679c-0.377,0.02-0.726,0.186-0.98,0.468s-0.385,0.645-0.366,1.021l0.4,7.887c0.007,0.124-0.089,0.23-0.213,0.236C62.525,65.337,62.521,65.337,62.517,65.337z"/><path fill="#f59172" d="M62.703 68.777L62.629 67.311"/><path fill="#472b29" d="M62.703 69.002c-.119 0-.219-.093-.225-.213l-.074-1.466c-.007-.124.089-.23.213-.236.122-.004.229.089.236.213l.074 1.466c.007.124-.089.23-.213.236C62.71 69.002 62.706 69.002 62.703 69.002zM64.599 74.048c-.483 0-.944-.182-1.309-.517-.387-.356-.614-.843-.641-1.369l-.135-2.641c-.007-.124.089-.23.213-.236.134-.004.23.089.236.213l.135 2.641c.021.408.197.785.497 1.062.297.274.682.411 1.078.396l13.097-.664c1.81-.093 3.205-1.671 3.111-3.519l-.339-6.686c-.007-.124.089-.23.213-.236.132-.008.23.089.236.213l.339 6.686c.106 2.096-1.48 3.886-3.537 3.991l-13.097.664C64.664 74.047 64.632 74.048 64.599 74.048z"/><path fill="#f59172" d="M80.582 59.051L80.656 60.517"/><path fill="#472b29" d="M80.657,60.742c-0.119,0-0.219-0.093-0.225-0.213l-0.075-1.466c-0.007-0.124,0.089-0.23,0.213-0.236c0.134-0.004,0.23,0.089,0.236,0.213l0.075,1.466c0.007,0.124-0.089,0.23-0.213,0.236C80.664,60.742,80.661,60.742,80.657,60.742z"/><g><path fill="#f59172" d="M80.507 57.585L80.545 58.318"/><path fill="#472b29" d="M80.544,58.543c-0.119,0-0.219-0.093-0.225-0.213l-0.037-0.732c-0.007-0.124,0.089-0.23,0.213-0.236c0.116,0.001,0.23,0.089,0.236,0.213l0.037,0.732c0.007,0.124-0.089,0.23-0.213,0.236C80.552,58.543,80.548,58.543,80.544,58.543z"/></g><g><path fill="#d6a98a" d="M84.224,66.215l-7.668,0.389c-1.411,0.072-2.624-1.024-2.696-2.435l0,0c-0.072-1.411,1.024-2.624,2.435-2.696l7.836-0.398c0.328-0.017,0.607,0.236,0.624,0.563l0.192,3.776C84.968,65.834,84.643,66.194,84.224,66.215z"/><path fill="#472b29" d="M76.422,66.983c-0.727,0-1.421-0.268-1.968-0.762c-0.585-0.528-0.929-1.25-0.969-2.032c-0.082-1.621,1.17-3.008,2.79-3.09l7.837-0.398c0.562,0,0.99,0.387,1.018,0.92l0.191,3.776c0.015,0.302-0.089,0.593-0.293,0.819c-0.204,0.226-0.482,0.358-0.785,0.373c0,0.001,0,0.001-0.001,0.001l-7.668,0.389C76.524,66.981,76.473,66.983,76.422,66.983z M84.162,61.45c-0.004,0-0.008,0-0.012,0.001l-7.836,0.397c-1.207,0.062-2.141,1.095-2.079,2.303c0.029,0.582,0.286,1.12,0.723,1.514c0.437,0.395,1.013,0.577,1.579,0.565l7.669-0.39l-0.001,0.001c0.214-0.012,0.379-0.193,0.368-0.406l-0.192-3.777c-0.003-0.059-0.028-0.112-0.071-0.151C84.268,61.47,84.216,61.45,84.162,61.45z M84.224,66.215h0.01H84.224z"/></g><g><path fill="#fdfcee" d="M77.159 63.267999999999994A0.734 0.734 0 1 0 77.159 64.73599999999999A0.734 0.734 0 1 0 77.159 63.267999999999994Z" transform="rotate(-2.922 77.091 63.985)"/><path fill="#472b29" d="M77.158,65.011c-0.533,0-0.979-0.42-1.007-0.959c-0.014-0.269,0.078-0.527,0.259-0.727c0.181-0.2,0.429-0.317,0.698-0.331c0.535-0.02,1.029,0.4,1.059,0.955v0.001c0.028,0.556-0.401,1.03-0.957,1.059C77.193,65.01,77.175,65.011,77.158,65.011z M77.159,63.544c-0.008,0-0.016,0-0.023,0c-0.122,0.007-0.235,0.06-0.317,0.151c-0.082,0.091-0.124,0.208-0.118,0.33c0.007,0.122,0.06,0.235,0.151,0.317c0.091,0.082,0.212,0.115,0.331,0.118c0.122-0.007,0.235-0.06,0.317-0.151c0.082-0.091,0.124-0.208,0.118-0.331C77.604,63.734,77.401,63.544,77.159,63.544z"/></g><g><path fill="#00a5a5" d="M75.305 51.068L74.987 49.928 61.476 53.774 77.113 50.807 77.935 52.939 61.584 53.961"/><path fill="#472b29" d="M61.583,54.286c-0.157,0-0.291-0.113-0.319-0.266c-0.051-0.043-0.088-0.102-0.104-0.171c-0.04-0.17,0.061-0.34,0.228-0.388l13.511-3.846c0.081-0.024,0.17-0.014,0.248,0.029c0.075,0.042,0.131,0.112,0.154,0.195l0.26,0.931l1.492-0.283c0.159-0.029,0.307,0.057,0.364,0.202l0.822,2.132c0.037,0.097,0.025,0.205-0.03,0.293c-0.056,0.087-0.149,0.143-0.253,0.148l-16.352,1.021C61.597,54.286,61.59,54.286,61.583,54.286z M76.907,51.177l-11.791,2.237l12.356-0.772L76.907,51.177z M74.761,50.331l-6.239,1.775l6.396-1.213L74.761,50.331z"/></g><g><path fill="#fbcd59" d="M76.433 70.025A4.782 4.782 0 1 0 76.433 79.589A4.782 4.782 0 1 0 76.433 70.025Z"/><path fill="#472b29" d="M76.433,80.088c-2.912,0-5.281-2.369-5.281-5.281s2.369-5.281,5.281-5.281c2.913,0,5.282,2.369,5.282,5.281S79.346,80.088,76.433,80.088z M76.433,70.526c-2.36,0-4.281,1.921-4.281,4.281s1.921,4.281,4.281,4.281c2.361,0,4.282-1.921,4.282-4.281S78.794,70.526,76.433,70.526z"/></g><g><path fill="#f1bc19" d="M76.433 71.681A3.126 3.126 0 1 0 76.433 77.933A3.126 3.126 0 1 0 76.433 71.681Z"/><path fill="#472b29" d="M76.433,78.184c-1.861,0-3.376-1.515-3.376-3.377c0-1.861,1.515-3.376,3.376-3.376c1.862,0,3.377,1.515,3.377,3.376C79.81,76.67,78.295,78.184,76.433,78.184z M76.433,71.931c-1.586,0-2.876,1.29-2.876,2.876s1.29,2.877,2.876,2.877s2.877-1.291,2.877-2.877S78.019,71.931,76.433,71.931z"/></g><g><path fill="#fbcd59" d="M84.405 66.009A4.782 4.782 0 1 0 84.405 75.573A4.782 4.782 0 1 0 84.405 66.009Z"/><path fill="#472b29" d="M84.405,76.073c-2.912,0-5.281-2.369-5.281-5.282c0-2.912,2.369-5.281,5.281-5.281c2.913,0,5.282,2.369,5.282,5.281C89.687,73.704,87.318,76.073,84.405,76.073z M84.405,66.509c-2.36,0-4.281,1.921-4.281,4.281c0,2.361,1.921,4.282,4.281,4.282c2.361,0,4.282-1.921,4.282-4.282C88.687,68.43,86.766,66.509,84.405,66.509z"/></g><g><path fill="#f1bc19" d="M84.405 67.66499999999999A3.126 3.126 0 1 0 84.405 73.917A3.126 3.126 0 1 0 84.405 67.66499999999999Z"/><path fill="#472b29" d="M84.405,74.168c-1.861,0-3.376-1.515-3.376-3.377c0-1.861,1.515-3.376,3.376-3.376c1.862,0,3.377,1.515,3.377,3.376C87.782,72.653,86.267,74.168,84.405,74.168z M84.405,67.915c-1.586,0-2.876,1.29-2.876,2.876s1.29,2.877,2.876,2.877s2.877-1.291,2.877-2.877S85.991,67.915,84.405,67.915z"/></g><g><path fill="#472b29" d="M83.924,71.112c0.049,0.526,0.283,0.789,0.704,0.789c0.177,0,0.319-0.049,0.425-0.148c0.106-0.099,0.167-0.241,0.183-0.425c0.01-0.118,0.059-0.177,0.146-0.177c0.105,0,0.158,0.059,0.158,0.177c0,0.236-0.085,0.434-0.256,0.593c-0.171,0.159-0.404,0.239-0.699,0.239c-0.588,0-0.922-0.349-1.004-1.047l-0.189,0.004c-0.082,0-0.123-0.037-0.123-0.111c0-0.08,0.039-0.119,0.115-0.119h0.181V70.82c0-0.077,0.001-0.133,0.004-0.169l-0.177,0.004c-0.082,0-0.123-0.037-0.123-0.112c0-0.082,0.039-0.123,0.115-0.123h0.008l0.2,0.008c0.105-0.67,0.441-1.004,1.008-1.004c0.269,0,0.48,0.1,0.631,0.3c-0.005-0.01-0.008-0.039-0.008-0.085l-0.004-0.046c0-0.01-0.001-0.018-0.004-0.023v-0.008c0-0.087,0.041-0.131,0.123-0.131c0.087,0,0.131,0.054,0.131,0.162c0,0.046-0.005,0.114-0.016,0.204c-0.01,0.087-0.015,0.154-0.015,0.2c0,0.046,0.005,0.114,0.015,0.204c0.005,0.059,0.008,0.099,0.008,0.119c0,0.115-0.046,0.173-0.139,0.173c-0.095,0-0.143-0.062-0.143-0.185c0-0.187-0.053-0.338-0.158-0.452c-0.105-0.114-0.246-0.171-0.423-0.171c-0.398,0-0.623,0.249-0.677,0.747l0.55-0.004c0.09,0,0.135,0.037,0.135,0.111c0,0.08-0.042,0.119-0.127,0.119h-0.012l-0.562-0.008v0.235l0.566,0.004c0.09,0,0.135,0.037,0.135,0.112c0,0.082-0.042,0.123-0.127,0.123h-0.012L83.924,71.112z"/></g><g><path fill="#472b29" d="M75.952,75.129c0.049,0.526,0.283,0.789,0.704,0.789c0.177,0,0.319-0.049,0.425-0.148c0.106-0.099,0.167-0.241,0.183-0.425c0.01-0.118,0.059-0.177,0.146-0.177c0.105,0,0.158,0.059,0.158,0.177c0,0.236-0.085,0.434-0.256,0.593c-0.171,0.159-0.404,0.239-0.699,0.239c-0.588,0-0.922-0.349-1.004-1.047l-0.189,0.004c-0.082,0-0.123-0.037-0.123-0.111c0-0.08,0.039-0.119,0.115-0.119h0.181v-0.065c0-0.077,0.001-0.133,0.004-0.169l-0.177,0.004c-0.082,0-0.123-0.037-0.123-0.112c0-0.082,0.039-0.123,0.115-0.123h0.008l0.2,0.008c0.105-0.67,0.441-1.004,1.008-1.004c0.269,0,0.48,0.1,0.631,0.3c-0.005-0.01-0.008-0.039-0.008-0.085l-0.004-0.046c0-0.01-0.001-0.018-0.004-0.023v-0.008c0-0.087,0.041-0.131,0.123-0.131c0.087,0,0.131,0.054,0.131,0.162c0,0.046-0.005,0.114-0.016,0.204c-0.01,0.087-0.015,0.154-0.015,0.2c0,0.046,0.005,0.114,0.015,0.204c0.005,0.059,0.008,0.099,0.008,0.119c0,0.115-0.046,0.173-0.139,0.173c-0.095,0-0.142-0.062-0.142-0.185c0-0.187-0.053-0.338-0.158-0.452c-0.105-0.114-0.246-0.171-0.423-0.171c-0.398,0-0.623,0.249-0.677,0.747l0.55-0.004c0.09,0,0.135,0.037,0.135,0.111c0,0.08-0.042,0.119-0.127,0.119h-0.012l-0.562-0.008v0.235l0.566,0.004c0.09,0,0.135,0.037,0.135,0.112c0,0.082-0.042,0.123-0.127,0.123h-0.012L75.952,75.129z"/></g></g></svg>