<svg xmlns="http://www.w3.org/2000/svg" viewBox="0 0 100 100"><path fill="#c0e5e4" d="M49.3 13.400000000000006A37.3 37.3 0 1 0 49.3 88A37.3 37.3 0 1 0 49.3 13.400000000000006Z"/><path fill="#dba179" d="M62.2,85.7c-0.2-4.3-0.5-11.6-0.5-11.6c-0.4-2.1-1.3-3.4-3.3-4c-0.1,0-0.2-0.1-0.3-0.1l-0.6-0.2 c-1.3-0.5-8.6-3.3-8.6-3.3c-0.6-0.1-1-0.5-1.2-1.1c-0.2-0.9-0.3-1.9-0.2-2.9c-1.6,0.6-3.3,1-5,1.4c-1.9,0.2-6-2.3-6-2.3 s-0.1,3-0.2,3.7c-0.2,0.6-0.7,1-1.3,1.1l-7,2.5c-0.8,0.2-1.5,0.5-2.2,0.9c-1.5,1-2.6,2.4-3.1,4.1c0,0-0.2,1.1-0.3,2.1 C32.4,87,48.2,90.8,62.2,85.7L62.2,85.7z"/><path fill="#77cbd2" d="M22.1,76.1c10.2,11,26,14.7,40.1,9.6c-0.2-4.3-0.5-11.5-0.5-11.5c-0.4-2.1-1.3-3.4-3.3-4 c-0.1,0-0.2-0.1-0.3-0.1s-0.3-0.2-0.6-0.2c-0.8-0.3-3.9-1.5-6.2-2.3h-0.1c-2.5,1.3-6.1,3.2-9.3,3.2s-6.5-1.7-9.3-3.2l-0.3,0.1 l-4.4,1.6c-0.8,0.2-1.5,0.5-2.2,0.9c-1.5,1-2.6,2.4-3.1,4.1C22.5,74.2,22.3,75.1,22.1,76.1z"/><path fill="#fff" d="M20.1 56.4A.9.9 0 1 0 20.1 58.199999999999996.9.9 0 1 0 20.1 56.4zM78.9 31.900000000000002A.7.7 0 1 0 78.9 33.300000000000004.7.7 0 1 0 78.9 31.900000000000002z"/><path fill="#f1bc19" d="M76.3 12.7A.9.9 0 1 0 76.3 14.5.9.9 0 1 0 76.3 12.7zM20.6 64A.9.9 0 1 0 20.6 65.80000000000001.9.9 0 1 0 20.6 64zM81.7 11.8A4 4 0 1 0 81.7 19.8 4 4 0 1 0 81.7 11.8z"/><path fill="#77cbd2" d="M85.7 22.900000000000002A1.9 1.9 0 1 0 85.7 26.7A1.9 1.9 0 1 0 85.7 22.900000000000002Z"/><path fill="#fbcd59" d="M76.7 75A1.9 1.9 0 1 0 76.7 78.80000000000001 1.9 1.9 0 1 0 76.7 75zM13.9 60.099999999999994A4 4 0 1 0 13.9 68.1 4 4 0 1 0 13.9 60.099999999999994z"/><path fill="#77cbd2" d="M24.1 86.19999999999999A1.9 1.9 0 1 0 24.1 90A1.9 1.9 0 1 0 24.1 86.19999999999999Z"/><path fill="#fff" d="M75.4 29.2A1.8 1.8 0 1 0 75.4 32.8 1.8 1.8 0 1 0 75.4 29.2zM17.6 49.5A2.5 2.5 0 1 0 17.6 54.5 2.5 2.5 0 1 0 17.6 49.5z"/><path fill="#00a5a5" d="M54.8,87.8c-0.2,0-0.3-0.1-0.3-0.3v-4.1c0-0.2,0.1-0.3,0.3-0.3s0.3,0.1,0.3,0.3v4.1 C55.1,87.7,55,87.8,54.8,87.8z"/><path fill="#edbc94" d="M54,47.8h-0.3c-1,0-1.2,0.3-1.2-0.3c0.1-1.1-0.1-5.3-0.1-5.5c0-4.4-4.6-8-10.4-8.3h-0.2 C36,34,31.4,37.6,31.4,42c0,0.2-0.1,4.5-0.1,5.5c0,0.6-0.2,0.2-1.2,0.3h-0.4c-1,0-1.8,0.7-2.1,1.6c0.1,0.1,0.6,3.7,1.4,5.2 c0.4,0.8,1.1,0.9,1.8,1.4c0.3,0.2,0.5,0.6,0.6,1c0.5,1.6,1.4,3,2.7,4.1c0.6,0.6,5.1,4.3,7.8,4.5c3.4-0.1,7.2-3.9,7.8-4.5 c1.2-1.1,2.2-2.5,2.7-4c0.1-0.4,0.3-0.8,0.6-1c0.7-0.5,1.4-0.6,1.8-1.4c0.8-1.4,1.3-5.1,1.4-5.2C55.9,48.5,55,47.8,54,47.8z"/><path fill="#512c2b" d="M42 54.7c.7 0 1.3-.3 1.8-.8 0 0 0-.1 0-.2 0 0 0 0 0 0l0 0c0 0-.1 0-.2 0 0 0 0 0 0 0-.9.8-2.3.8-3.2 0 0 0-.1 0-.1 0 0 0-.1 0-.1 0 0 0 0 .1 0 .2 0 0 0 0 0 0C40.7 54.4 41.3 54.7 42 54.7zM39.8 45.5l.4-.8c-1.9-.4-3.8-.4-5.7.2l.5.8C36.6 45.2 38.2 45.2 39.8 45.5zM48.9 45.5l.4-.8c-1.9-.4-3.8-.4-5.7.2l.5.8C45.8 45.2 47.4 45.2 48.9 45.5zM37.2 46.7c-.4 0-.8.3-1 .7.1 0 .1 0 .2 0 .4 0 .7.4.6.8 0 .3-.3.6-.6.6-.1 0-.2 0-.3-.1.1.6.6 1.1 1.2 1.1.9-.2 1.4-1.1 1.2-2C38.2 47.3 37.8 46.9 37.2 46.7L37.2 46.7zM46.7 46.7c-.4 0-.7.2-.9.5.1 0 .2 0 .2 0 .4 0 .7.3.7.7 0 .4-.3.7-.6.7 0 0 0 0 0 0-.2 0-.4-.1-.5-.3.2.7.9 1.1 1.6.8.7-.2 1.1-.9.8-1.6C47.7 47.1 47.3 46.7 46.7 46.7zM47.2 56.6c0 0 0-.1 0-.2 0 0 0 0 0 0l0 0c0 0-.1 0-.2 0 0 0 0 0 0 0-1.5 1-3.3 1.5-5.1 1.4-1.8.1-3.6-.4-5.1-1.4h-.1c0 0-.1 0-.1 0 0 0 0 .1 0 .2 0 0 0 0 0 0C39.9 58.7 44.1 58.7 47.2 56.6L47.2 56.6zM43.3 61.8c.1 0 .1-.1.1-.2s0-.2-.1-.2h-2.6c-.1 0-.1.1-.1.2s0 .2.1.2H43.3z"/><path fill="#895d3d" d="M54.1 52.5l-.6-.1.2-1.8-1 .4-.2-.6L54 50c.1 0 .2 0 .3 0 .1.1.1.2.1.3L54.1 52.5zM30 52.2l-.3-2.3c0-.1 0-.2.1-.3.1-.1.2-.1.3 0l1.5.6-.2.6-1-.4.2 1.8L30 52.2z"/><path fill="#472b29" d="M31.4 56.6C31.3 56.6 31.3 56.6 31.4 56.6c-.1 0-.2-.1-.2-.2l.2-8.6c0-.1.1-.2.2-.2 0 0 0 0 0 0 .1 0 .2.1.2.2l-.2 8.6C31.5 56.5 31.5 56.6 31.4 56.6zM52.6 56.6c-.1 0-.2-.1-.2-.2l-.2-8.6c0-.1.1-.2.2-.2.1 0 .2.1.2.2l.2 8.6C52.8 56.5 52.7 56.6 52.6 56.6 52.6 56.6 52.6 56.6 52.6 56.6zM42 65.7c-2.1 0-5.6-2.4-5.8-2.5-.1-.1-.1-.2-.1-.3.1-.1.2-.1.3-.1 0 0 3.9 2.6 5.7 2.4 1.9-.2 5-2.2 5-2.3.1-.1.3 0 .3.1.1.1 0 .3-.1.3-.1.1-3.2 2.1-5.2 2.3C42.2 65.7 42.1 65.7 42 65.7z"/><path fill="#fdfcef" d="M67.6,71.7c0,0.9-0.7,1.7-1.6,1.7s-1.7-0.7-1.7-1.6S65,70,65.9,70c0,0,0,0,0,0 C66.8,70,67.5,70.7,67.6,71.7C67.6,71.6,67.6,71.6,67.6,71.7z"/><path fill="#472b29" d="M65.9,73.8c-1.2,0-2.2-1-2.2-2.1c0-0.6,0.2-1.1,0.6-1.5c0.4-0.4,0.9-0.6,1.5-0.6 c1.2,0,2.2,0.9,2.2,2.1c0,0,0,0,0,0C68.1,72.8,67.1,73.8,65.9,73.8C65.9,73.8,65.9,73.8,65.9,73.8z M65.9,70.5 C65.9,70.5,65.9,70.5,65.9,70.5c-0.7,0-1.2,0.5-1.2,1.2c0,0.6,0.5,1.2,1.2,1.2c0,0,0,0,0,0c0.3,0,0.6-0.1,0.8-0.3 c0.2-0.2,0.3-0.5,0.3-0.8c0,0,0,0,0,0v0C67,71,66.5,70.5,65.9,70.5z"/><path fill="#fdfcef" d="M73.7,66.7c0,1.5-1.2,2.8-2.7,2.8s-2.8-1.2-2.8-2.7s1.2-2.8,2.7-2.8c0,0,0,0,0.1,0 C72.4,64,73.6,65.2,73.7,66.7C73.7,66.7,73.7,66.7,73.7,66.7z"/><path fill="#472b29" d="M70.9,70c-1.8,0-3.2-1.4-3.2-3.2c0-1.8,1.4-3.3,3.2-3.3c0.9,0,1.7,0.3,2.3,0.9c0.6,0.6,1,1.4,1,2.3 l-0.5,0l0.5,0C74.2,68.5,72.8,69.9,70.9,70C71,70,70.9,70,70.9,70z M71,64.5C71,64.5,70.9,64.5,71,64.5c-1.3,0-2.3,1-2.3,2.3 c0,1.2,1.1,2.2,2.3,2.2c1.2,0,2.2-1,2.2-2.3c0,0,0,0,0,0v0c0-0.6-0.2-1.1-0.7-1.5C72.1,64.7,71.5,64.5,71,64.5z"/><path fill="#fdfcef" d="M90.9,45.4c0.1-0.3,0.1-0.6,0.1-0.9c0-3.1-2.6-5.5-5.7-5.5c-2.1-3.7-6.7-5-10.4-3 c-1.3,0.7-2.4,1.9-3.1,3.2c-0.4-0.2-0.7-0.3-1.1-0.3c-1.4,0-2.6,1.1-2.6,2.5c0,0,0,0,0,0c0,0.2,0,0.4,0.1,0.6 c-0.5-0.1-1-0.1-1.4-0.1c-4.1-0.1-7.6,3.3-7.6,7.4c0,2.7,1.5,5.2,3.9,6.4c0,0,0,0.1,0,0.1c0,3.1,2.6,5.6,5.7,5.5 c1.6,0,3.1-0.7,4.2-1.8c2.8,3.2,7.7,3.5,10.9,0.7c0.5-0.4,0.9-0.8,1.2-1.3c0.9,0.4,1.9,0.5,2.8,0.5c4.1,0.1,7.6-3.3,7.6-7.4 C95.4,49.2,93.7,46.5,90.9,45.4z"/><path fill="#472b29" d="M78.7 62.7c-.2 0-.4 0-.6 0-2-.1-3.9-1-5.3-2.4-1.1 1-2.6 1.6-4.2 1.6 0 0-.1 0-.1 0-3.3 0-6-2.6-6.1-5.9-2.4-1.4-3.9-3.9-3.9-6.7.1-4.4 3.7-8 8.1-7.9.3 0 .6 0 .8 0 0 0 0 0 0 0s0 0 0 0c0-.8.3-1.6.9-2.1.6-.6 1.4-.9 2.2-.9.3 0 .6 0 .9.1.7-1.3 1.8-2.3 3.1-3 3.8-2.1 8.7-.8 10.9 2.9 3.2.1 5.8 2.7 5.9 6 0 .2 0 .4 0 .6 2.7 1.3 4.4 4 4.5 7.1-.1 4.4-3.8 8-8.1 7.9-.9 0-1.8-.1-2.6-.4-.3.4-.7.8-1.1 1.1C82.6 62 80.7 62.7 78.7 62.7zM72.9 59.1C72.9 59.1 72.9 59.1 72.9 59.1c.1 0 .3.1.4.2 1.3 1.4 3 2.3 4.9 2.4 1.9.1 3.8-.5 5.2-1.8.4-.4.8-.8 1.1-1.3.1-.2.4-.3.6-.2.9.3 1.8.5 2.7.5 3.8 0 7-3.1 7-6.9 0-2.7-1.7-5.2-4.2-6.3-.2-.1-.3-.3-.3-.6.1-.3.1-.6.1-.8 0-2.8-2.3-5-5.1-5 0 0-.1 0-.1 0-.2 0-.3-.1-.4-.3-1.9-3.5-6.3-4.7-9.7-2.8-1.3.7-2.3 1.7-2.9 3-.1.2-.4.3-.7.2-.3-.1-.6-.2-.9-.2-.5 0-1.1.2-1.5.6-.4.4-.6.9-.6 1.5 0 0 0 0 0 0 0 .2 0 .3.1.5.1.2 0 .3-.1.5s-.3.2-.5.2c-.4-.1-.9-.1-1.3-.1 0 0-.1 0-.1 0-3.8 0-7 3.1-7 6.9 0 2.5 1.4 4.8 3.6 6 .2.1.3.3.3.4v.1c0 2.8 2.3 5 5.1 5 0 0 0 0 .1 0 1.5 0 2.8-.6 3.8-1.7C72.6 59.2 72.8 59.1 72.9 59.1zM49.3 88.3c-10.3 0-20.3-4.2-27.6-12.1-.1-.1-.1-.2-.1-.3.1-.5.2-1.1.4-1.8.4-1.9 1.6-3.5 3.4-4.4.7-.4 1.5-.7 2.3-.9l7-2.6c.5-.1.9-.4 1-.9 0-.3.1-1.2.1-2-.7-.5-1.4-1-2.1-1.6-1.3-1.2-2.3-2.6-2.8-4.3-.1-.4-.2-.6-.4-.8-.2-.2-.4-.3-.6-.4-.5-.3-1-.5-1.3-1.2-.8-1.7-1.3-3.5-1.4-5.4 0-.1 0-.1 0-.1.3-1.1 1.3-1.9 2.5-1.9h.4c.3 0 .6 0 .8 0-.1-.9 0-3.8.1-5 0-.3 0-.5 0-.5 0-4.7 4.7-8.5 10.8-8.7H42c6.1.2 10.8 4 10.8 8.7 0 0 0 .2 0 .5 0 1.2.1 4 .1 5 .2 0 .5-.1.8 0l.3 0c1.2 0 2.2.8 2.5 1.9 0 0 0 .1 0 .1-.2 1.9-.6 3.6-1.4 5.3-.4.7-.8.9-1.3 1.2-.2.1-.4.2-.6.4-.2.2-.4.4-.4.7-.5 1.7-1.5 3.2-2.8 4.4-.7.6-1.5 1.2-2.3 1.8 0 .7.1 1.3.3 1.9.2.4.5.7.9.8.3.1 7.4 2.8 8.7 3.3l.9.3c2.1.6 3.2 1.9 3.6 4.3 0 .1.3 7.1.5 11.4 0 .2-.1.3-.3.4C58.1 87.6 53.7 88.3 49.3 88.3zM22.5 75.9C32.6 86.6 48 90.3 61.8 85.4c-.2-4.3-.5-11.1-.5-11.1-.4-2.1-1.2-3.1-3-3.6l-.4-.1-.6-.3C56 69.7 48.7 67 48.7 67c-.6-.2-1.2-.7-1.5-1.3-.3-.8-.3-1.6-.3-2.5 0-.1.1-.2.2-.3.8-.6 1.6-1.2 2.3-1.8 1.2-1.1 2.1-2.4 2.5-3.9 0-.4.3-.9.7-1.2.3-.2.5-.3.7-.5.4-.2.7-.4 1-.9.7-1.6 1.2-3.2 1.3-5-.2-.7-.9-1.3-1.7-1.3h-.3c-.3 0-.6 0-.8 0-.2 0-.5.1-.7-.1-.2-.2-.2-.5-.2-.6.1-.8 0-3.8-.1-5 0-.3 0-.5 0-.6 0-4.2-4.4-7.7-10-7.9h-.2c-5.6.2-10 3.7-10 7.9 0 0 0 .2 0 .5 0 1.1-.1 4.2-.1 5 0 .3 0 .5-.2.6-.2.2-.4.1-.7.1-.2 0-.4-.1-.7 0l-.4 0c-.8 0-1.4.5-1.7 1.2.2 1.7.6 3.4 1.3 5 .2.4.6.6 1 .8.2.1.5.3.7.5.4.3.7.8.7 1.3.5 1.5 1.3 2.8 2.5 3.9.7.6 1.5 1.2 2.2 1.7.1.1.2.2.2.3 0 .9-.1 2.1-.2 2.4-.2.8-.9 1.3-1.6 1.4l-7 2.6c-.8.2-1.5.5-2.1.9-1.5.8-2.6 2.2-3 3.9C22.7 74.9 22.6 75.4 22.5 75.9z"/><path fill="#472b29" d="M54.2,34.4c-0.1-0.6-0.7-0.5-1.3-0.5c-1.9,0.1-2.3-0.5-6.2-2.6c-3.2-1.8-7.3-1.6-10.3,0.5 c-11.9,2.6-4.9,18-4.9,18s0-8.1,3.6-10.5c6.2,4,12.1,4.5,15.7,2.1c1.4,3.1,1.4,8.5,1.4,8.5c1.7-3.3,2.1-7.2,1.1-10.8 C52.8,37.7,54.4,36.3,54.2,34.4L54.2,34.4z"/><path fill="#88ae45" d="M72.8,43.2l12.5,3.1c0.6,0.2,1,0.8,0.8,1.4l-1.5,5.9c-0.2,0.6-0.8,1-1.4,0.8l-12.5-3.1 c-0.6-0.2-1-0.8-0.8-1.4l1.5-5.9C71.6,43.4,72.2,43,72.8,43.2z"/><path fill="#472b29" d="M83.6,54.7c-0.1,0-0.2,0-0.3,0l-12.5-3.1c-0.8-0.2-1.2-1-1-1.7l1.5-5.9c0.1-0.4,0.3-0.7,0.6-0.9 c0.3-0.2,0.7-0.3,1.1-0.2l12.5,3.1c0.8,0.2,1.2,1,1,1.7l-1.5,5.9C84.8,54.3,84.2,54.7,83.6,54.7z M72.5,43.4c-0.2,0-0.3,0-0.4,0.1 c-0.2,0.1-0.3,0.3-0.4,0.5L70.2,50c-0.1,0.5,0.2,0.9,0.6,1.1l12.5,3.1c0.5,0.1,0.9-0.2,1-0.6l1.5-5.9c0.1-0.5-0.2-0.9-0.6-1.1 l-12.5-3.1C72.7,43.4,72.6,43.4,72.5,43.4z"/><path fill="#c0d078" d="M81.4,46.6l-8.2-2c-0.1,0.5-0.6,0.8-1.1,0.7l-1,3.9c0.5,0.1,0.8,0.6,0.6,1.1c0,0,0,0,0,0l11,2.8 c0.1-0.5,0.6-0.8,1.1-0.7c0,0,0,0,0,0l1-3.9l0,0c-0.5-0.1-0.8-0.6-0.6-1.1c0,0,0,0,0,0l-1-0.3"/><path fill="#472b29" d="M82.8,53.2C82.8,53.2,82.8,53.2,82.8,53.2l-11-2.8c0,0-0.1,0-0.1-0.1s0-0.1,0-0.1 c0.1-0.4-0.1-0.8-0.5-0.9c-0.1,0-0.1-0.1-0.1-0.2l1-3.9c0-0.1,0.1-0.1,0.2-0.1c0.4,0.1,0.8-0.2,0.9-0.6c0,0,0-0.1,0.1-0.1 c0,0,0.1,0,0.1,0l8.2,2c0.1,0,0.1,0.1,0.1,0.2c0,0.1-0.1,0.1-0.2,0.1l-8-2c-0.2,0.4-0.6,0.7-1.1,0.7l-0.9,3.6 c0.4,0.2,0.7,0.6,0.6,1.1l10.7,2.7c0.1-0.2,0.2-0.4,0.4-0.5c0.2-0.1,0.4-0.2,0.7-0.2l0.9-3.6c-0.4-0.2-0.7-0.6-0.6-1.1l-0.9-0.2 c-0.1,0-0.1-0.1-0.1-0.2c0-0.1,0.1-0.1,0.2-0.1l1,0.3c0.1,0,0.1,0.1,0.1,0.1c0,0,0,0,0,0c-0.1,0.4,0.1,0.8,0.5,0.9 c0.1,0,0.1,0.1,0.1,0.2l-1,3.9c0,0.1-0.1,0.1-0.2,0.1c-0.2,0-0.4,0-0.6,0.1c-0.2,0.1-0.3,0.3-0.3,0.5 C82.9,53.1,82.9,53.1,82.8,53.2C82.9,53.2,82.8,53.2,82.8,53.2z"/><path fill="#472b29" d="M82,46.9C82,46.9,81.9,46.9,82,46.9l-0.2-0.1c-0.1,0-0.1-0.1-0.1-0.2c0-0.1,0.1-0.1,0.2-0.1l0.2,0 c0.1,0,0.1,0.1,0.1,0.2C82.1,46.9,82,46.9,82,46.9z"/><g><path fill="#9ca74c" d="M77.9 47.1A1.8 1.8 0 1 0 77.9 50.699999999999996A1.8 1.8 0 1 0 77.9 47.1Z"/><path fill="#472b29" d="M77.9,50.8c-1.1,0-1.9-0.9-1.9-1.9s0.9-1.9,1.9-1.9c1.1,0,1.9,0.9,1.9,1.9S79,50.8,77.9,50.8z M77.9,47.3c-0.9,0-1.6,0.7-1.6,1.6s0.7,1.6,1.6,1.6s1.6-0.7,1.6-1.6S78.8,47.3,77.9,47.3z"/></g><g><path fill="#9ca74c" d="M74.7 47.4A0.6 0.6 0 1 0 74.7 48.6A0.6 0.6 0 1 0 74.7 47.4Z"/><path fill="#472b29" d="M74.7,48.7c-0.4,0-0.8-0.3-0.8-0.8s0.3-0.8,0.8-0.8s0.8,0.3,0.8,0.8S75.2,48.7,74.7,48.7z M74.7,47.5c-0.3,0-0.5,0.2-0.5,0.5s0.2,0.5,0.5,0.5s0.5-0.2,0.5-0.5S75,47.5,74.7,47.5z"/></g><g><path fill="#9ca74c" d="M81.3 49A0.6 0.6 0 1 0 81.3 50.2A0.6 0.6 0 1 0 81.3 49Z"/><path fill="#472b29" d="M81.3,50.4c-0.4,0-0.8-0.3-0.8-0.8c0-0.4,0.3-0.8,0.8-0.8c0.4,0,0.8,0.3,0.8,0.8 C82.1,50,81.8,50.4,81.3,50.4z M81.3,49.1c-0.3,0-0.5,0.2-0.5,0.5c0,0.3,0.2,0.5,0.5,0.5s0.5-0.2,0.5-0.5 C81.8,49.4,81.6,49.1,81.3,49.1z"/></g><g><path fill="#f1bc19" d="M71.1 48.3A2.7 2.7 0 1 0 71.1 53.7A2.7 2.7 0 1 0 71.1 48.3Z"/><path fill="#472b29" d="M71.1,53.9c-1.6,0-3-1.3-3-3c0-1.6,1.3-3,3-3c1.6,0,3,1.3,3,3C74.1,52.6,72.8,53.9,71.1,53.9z M71.1,48.6c-1.3,0-2.4,1.1-2.4,2.4c0,1.3,1.1,2.4,2.4,2.4c1.3,0,2.4-1.1,2.4-2.4C73.5,49.6,72.4,48.6,71.1,48.6z"/></g><g><path fill="#f1bc19" d="M74.7 50.8A2.7 2.7 0 1 0 74.7 56.2A2.7 2.7 0 1 0 74.7 50.8Z"/><path fill="#472b29" d="M74.7,56.4c-1.6,0-3-1.3-3-3c0-1.6,1.3-3,3-3c1.6,0,3,1.3,3,3C77.7,55.1,76.4,56.4,74.7,56.4z M74.7,51.1c-1.3,0-2.4,1.1-2.4,2.4c0,1.3,1.1,2.4,2.4,2.4c1.3,0,2.4-1.1,2.4-2.4C77.1,52.1,76.1,51.1,74.7,51.1z"/></g></svg>