<svg xmlns="http://www.w3.org/2000/svg" viewBox="0 0 100 100"><path fill="#c7ede6" d="M88.704,55.677c0.3-0.616,0.566-1.264,0.796-1.943c2.633-7.77-1.349-17.078-9.733-19.325 C78.86,23.026,70.86,15.216,61.826,13.884c-10.341-1.525-19.814,5.044-22.966,15.485c-3.799-1.346-7.501-1.182-10.99,0.857 c-1.583,0.732-3.031,1.812-4.33,3.233c-1.907,2.086-3.147,4.719-3.652,7.495c-0.748,0.118-1.483,0.236-2.176,0.484 c-4.04,1.449-6.589,4.431-7.288,8.923c-0.435,2.797,0.443,5.587,0.933,6.714c1.935,4.455,6.422,6.98,10.981,6.312 c0.227-0.033,0.557,0.069,0.752,0.233c0.241,7.12,3.698,13.417,8.884,17.014c8.321,5.772,19.027,3.994,25.781-3.921 c2.894,2.96,6.338,4.398,10.384,3.876c4.023-0.519,7.147-2.739,9.426-6.349c1.053,0.283,2.051,0.691,3.083,0.804 c4.042,0.442,7.324-1.165,9.732-4.8c0.922-1.391,1.793-3.194,1.793-6.354C92.174,60.634,90.88,57.667,88.704,55.677z"/><path fill="#fff" d="M83.405,49H73.5c-0.276,0-0.5-0.224-0.5-0.5s0.224-0.5,0.5-0.5h9.905c0.276,0,0.5,0.224,0.5,0.5 S83.682,49,83.405,49z M86.5,49h-1c-0.276,0-0.5-0.224-0.5-0.5s0.224-0.5,0.5-0.5h1c0.276,0,0.5,0.224,0.5,0.5S86.777,49,86.5,49z M91.491,51H82.5c-0.276,0-0.5-0.224-0.5-0.5s0.224-0.5,0.5-0.5h8.991c0.276,0,0.5,0.224,0.5,0.5S91.767,51,91.491,51z M80.5,51h-1 c-0.276,0-0.5-0.224-0.5-0.5s0.224-0.5,0.5-0.5h1c0.276,0,0.5,0.224,0.5,0.5S80.777,51,80.5,51z M77.5,51h-2 c-0.276,0-0.5-0.224-0.5-0.5s0.224-0.5,0.5-0.5h2c0.276,0,0.5,0.224,0.5,0.5S77.777,51,77.5,51z M83.5,53h-2 c-0.276,0-0.5-0.224-0.5-0.5s0.224-0.5,0.5-0.5h2c0.276,0,0.5,0.224,0.5,0.5S83.776,53,83.5,53z M86.5,44c-0.177,0-0.823,0-1,0 c-0.276,0-0.5,0.224-0.5,0.5s0.224,0.5,0.5,0.5c0.177,0,0.823,0,1,0c0.276,0,0.5-0.224,0.5-0.5S86.776,44,86.5,44z M86.5,46 c-0.177,0-4.823,0-5,0c-0.276,0-0.5,0.224-0.5,0.5s0.224,0.5,0.5,0.5c0.177,0,4.823,0,5,0c0.276,0,0.5-0.224,0.5-0.5 S86.776,46,86.5,46z M91.5,48c-0.177,0-2.823,0-3,0c-0.276,0-0.5,0.224-0.5,0.5s0.224,0.5,0.5,0.5c0.177,0,2.823,0,3,0 c0.276,0,0.5-0.224,0.5-0.5S91.776,48,91.5,48z"/><path fill="#fff" d="M31.5,74h-10c-0.276,0-0.5-0.224-0.5-0.5s0.224-0.5,0.5-0.5h10c0.276,0,0.5,0.224,0.5,0.5 S31.776,74,31.5,74z M35.5,74h-2c-0.276,0-0.5-0.224-0.5-0.5s0.224-0.5,0.5-0.5h2c0.276,0,0.5,0.224,0.5,0.5S35.776,74,35.5,74z M40.5,76h-10c-0.276,0-0.5-0.224-0.5-0.5s0.224-0.5,0.5-0.5h10c0.276,0,0.5,0.224,0.5,0.5S40.777,76,40.5,76z M28.5,76h-1 c-0.276,0-0.5-0.224-0.5-0.5s0.224-0.5,0.5-0.5h1c0.276,0,0.5,0.224,0.5,0.5S28.776,76,28.5,76z M25.375,76H23.5 c-0.276,0-0.5-0.224-0.5-0.5s0.224-0.5,0.5-0.5h1.875c0.276,0,0.5,0.224,0.5,0.5S25.651,76,25.375,76z M34.5,72h-5 c-0.276,0-0.5-0.224-0.5-0.5s0.224-0.5,0.5-0.5h5c0.276,0,0.5,0.224,0.5,0.5S34.777,72,34.5,72z M31.5,78h-2 c-0.276,0-0.5-0.224-0.5-0.5s0.224-0.5,0.5-0.5h2c0.276,0,0.5,0.224,0.5,0.5S31.776,78,31.5,78z"/><path fill="#fddbbc" d="M52.926,69.705l15.584-7.859c1.732-0.799,2.797-3.064,2.131-4.928 c-0.533-1.598-1.998-2.531-3.596-2.531c-0.533,0-0.932,0.133-1.465,0.266l-12.787,5.195"/><path fill="#472b29" d="M52.928,70.405c-0.256,0-0.503-0.141-0.626-0.385c-0.174-0.346-0.035-0.767,0.31-0.94l15.584-7.859 c1.467-0.677,2.308-2.61,1.787-4.067c-0.42-1.261-1.571-2.066-2.938-2.066c-0.349,0-0.63,0.073-1.019,0.175l-0.277,0.071 l-12.692,5.163c-0.36,0.147-0.767-0.026-0.912-0.385s0.026-0.767,0.385-0.912l13.145-5.293c0.433-0.112,0.843-0.22,1.371-0.22 c1.979,0,3.652,1.182,4.261,3.011c0.768,2.147-0.376,4.803-2.502,5.784L53.242,70.33C53.141,70.381,53.033,70.405,52.928,70.405z"/><path fill="#fddbbc" d="M56.922,71.037l15.584-7.859c1.732-0.799,2.797-3.064,2.131-4.928 c-0.533-1.598-1.998-2.531-3.596-2.531c-0.533,0-0.932,0.133-1.465,0.266L56.789,61.18"/><path fill="#472b29" d="M56.923,71.737c-0.257,0-0.503-0.141-0.626-0.385c-0.174-0.346-0.035-0.767,0.31-0.94l15.585-7.859 c1.467-0.677,2.308-2.61,1.787-4.067c-0.421-1.261-1.572-2.066-2.938-2.066c-0.349,0-0.63,0.073-1.019,0.175l-0.277,0.071 l-12.692,5.163c-0.359,0.146-0.767-0.027-0.912-0.385c-0.146-0.358,0.026-0.767,0.385-0.912l13.145-5.293 c0.433-0.112,0.843-0.22,1.371-0.22c1.979,0,3.651,1.182,4.261,3.01c0.768,2.148-0.376,4.804-2.502,5.785l-15.563,7.849 C57.136,71.713,57.028,71.737,56.923,71.737z"/><path fill="#fddbbc" d="M28.818,52.789l7.193-2.664c1.332-0.533,2.664-0.666,3.996-0.666c1.865,0,3.73,0.4,5.328,1.332 l12.654,6.66c1.598,0.799,2.131,2.797,1.332,4.396l-0.266,0.533l1.598,1.066l13.053-5.328c0.4-0.133,0.799-0.266,1.199-0.266 c1.332,0,2.531,0.799,2.93,1.998c0.533,1.465-0.266,3.33-1.732,3.996l-15.584,7.859c-0.4,0.266-1.066,0.4-1.598,0.4 s-1.066-0.133-1.598-0.4L37.21,62.381l-8.391,3.33"/><path fill="#472b29" d="M58.92,72.803c-0.639,0-1.281-0.159-1.91-0.474l-19.822-9.188l-8.112,3.219 c-0.355,0.146-0.766-0.032-0.908-0.393c-0.143-0.359,0.033-0.766,0.393-0.908l8.392-3.33c0.177-0.072,0.377-0.067,0.552,0.016 l20.113,9.324c0.452,0.225,0.884,0.334,1.304,0.334c0.456,0,0.965-0.118,1.211-0.282l15.656-7.901 c1.147-0.522,1.798-2.009,1.389-3.132c-0.304-0.912-1.235-1.536-2.271-1.536c-0.287,0-0.623,0.111-0.979,0.229l-13.009,5.313 c-0.214,0.086-0.458,0.063-0.653-0.066l-1.599-1.065c-0.293-0.195-0.396-0.579-0.237-0.896l0.267-0.533 c0.649-1.299,0.192-2.85-1.02-3.456L45.008,51.41c-1.413-0.823-3.134-1.251-5.002-1.251c-1.519,0-2.671,0.189-3.735,0.615 l-7.21,2.671c-0.361,0.136-0.766-0.05-0.899-0.413c-0.135-0.362,0.051-0.766,0.413-0.899l7.193-2.664 c1.221-0.489,2.532-0.71,4.238-0.71c2.116,0,4.08,0.494,5.681,1.428l12.628,6.645c1.883,0.942,2.622,3.322,1.642,5.308 l0.775,0.518l12.709-5.188c0.469-0.157,0.95-0.317,1.464-0.317c1.656,0,3.101,0.995,3.594,2.476 c0.657,1.806-0.305,4.037-2.105,4.855l-15.559,7.847C60.334,72.667,59.505,72.803,58.92,72.803z"/><path fill="#fddbbc" d="M47.925,59.893c-0.728-0.367-1.843-0.921-1.843-0.921"/><path fill="#472b29" d="M47.926,60.393c-0.076,0-0.152-0.017-0.225-0.054l-1.842-0.92l0.445-0.895l1.846,0.922 c0.247,0.124,0.346,0.424,0.222,0.671C48.285,60.292,48.108,60.393,47.926,60.393z"/><g><path fill="#fddbbc" d="M59.022,62.12c-0.653,1.152-2.289,2.043-4.607,0.921c-0.996-0.482-3.048-1.509-4.735-2.357"/><path fill="#472b29" d="M56.45,64.057c-0.678,0-1.436-0.17-2.254-0.565c-0.997-0.482-3.052-1.511-4.741-2.36 c-0.247-0.124-0.346-0.424-0.222-0.671c0.122-0.248,0.424-0.349,0.671-0.222c1.684,0.846,3.732,1.872,4.728,2.353 c2.055,0.996,3.415,0.234,3.955-0.717c0.136-0.243,0.442-0.329,0.681-0.188c0.24,0.136,0.325,0.44,0.188,0.681 C58.909,63.332,57.85,64.057,56.45,64.057z"/></g><g><path fill="#fdfcef" d="M87.126,79.487c1.71,0,3.194,0,3.215,0c1.916,0,3.469-1.52,3.469-3.396 c0-1.636-1.182-3.001-2.756-3.323c0.018-0.143,0.031-0.288,0.031-0.436c0-1.942-1.609-3.517-3.593-3.517 c-1.172,0-2.209,0.551-2.865,1.401c-0.168-2.162-2.141-3.83-4.45-3.554c-1.688,0.202-3.084,1.479-3.395,3.116 c-0.1,0.525-0.089,1.034,0.01,1.512c-0.453-0.477-1.097-0.777-1.814-0.777c-1.313,0-2.385,1.001-2.47,2.265 c-0.596-0.129-1.245-0.121-1.928,0.13c-1.306,0.48-2.236,1.683-2.29,3.047c-0.077,1.937,1.504,3.532,3.467,3.532 c0.149,0,0.673,0,0.794,0h7.204 M81.245,79.487h0.327"/><path fill="#472b29" d="M90.341,79.987h-3.215c-0.276,0-0.5-0.224-0.5-0.5s0.224-0.5,0.5-0.5h3.215 c1.637,0,2.969-1.299,2.969-2.896c0-1.363-0.991-2.554-2.356-2.833c-0.256-0.052-0.429-0.293-0.396-0.552 c0.016-0.123,0.027-0.247,0.027-0.374c0-1.664-1.388-3.017-3.093-3.017c-0.977,0-1.877,0.44-2.47,1.207 c-0.126,0.164-0.341,0.233-0.539,0.173c-0.198-0.059-0.339-0.234-0.355-0.44c-0.071-0.913-0.507-1.741-1.227-2.332 c-0.742-0.609-1.687-0.883-2.665-0.764c-1.475,0.177-2.694,1.292-2.963,2.712c-0.084,0.443-0.081,0.887,0.008,1.317 c0.046,0.219-0.06,0.441-0.257,0.545c-0.198,0.104-0.44,0.063-0.595-0.099c-0.38-0.401-0.896-0.622-1.452-0.622 c-1.038,0-1.903,0.79-1.971,1.799c-0.01,0.145-0.082,0.278-0.198,0.366c-0.116,0.088-0.265,0.119-0.406,0.089 c-0.573-0.125-1.111-0.087-1.65,0.111c-1.129,0.415-1.917,1.459-1.963,2.598c-0.031,0.782,0.252,1.526,0.799,2.096 c0.568,0.591,1.337,0.916,2.167,0.916h7.998c0.276,0,0.5,0.224,0.5,0.5s-0.224,0.5-0.5,0.5h-7.998 c-1.089,0-2.142-0.446-2.888-1.224c-0.737-0.767-1.12-1.771-1.078-2.828c0.061-1.538,1.113-2.943,2.617-3.496 c0.548-0.201,1.115-0.276,1.688-0.228c0.332-1.268,1.507-2.198,2.882-2.198c0.431,0,0.854,0.094,1.24,0.269 c0.011-0.199,0.035-0.397,0.073-0.597c0.35-1.844,1.924-3.291,3.827-3.519c1.249-0.149,2.462,0.2,3.418,0.984 c0.668,0.548,1.147,1.254,1.399,2.047c0.717-0.568,1.61-0.882,2.557-0.882c2.257,0,4.093,1.802,4.093,4.017c0,0.02,0,0.04,0,0.06 c1.603,0.52,2.726,2.011,2.726,3.7C94.31,78.239,92.53,79.987,90.341,79.987z M81.571,79.987h-0.327c-0.276,0-0.5-0.224-0.5-0.5 s0.224-0.5,0.5-0.5h0.327c0.276,0,0.5,0.224,0.5,0.5S81.847,79.987,81.571,79.987z"/><path fill="#472b29" d="M88.79,74.695c-0.018,0-0.036-0.002-0.055-0.006c-0.135-0.03-0.219-0.164-0.189-0.299 c0.035-0.153,0.087-0.301,0.157-0.441c0.555-1.123,2.084-1.537,3.409-0.924c0.125,0.058,0.18,0.207,0.122,0.332 s-0.206,0.179-0.332,0.122c-1.081-0.501-2.315-0.19-2.751,0.692c-0.052,0.104-0.091,0.214-0.116,0.328 C89.008,74.615,88.905,74.695,88.79,74.695z"/><path fill="#472b29" d="M84.106,79.987h-1.005c-0.276,0-0.5-0.224-0.5-0.5s0.224-0.5,0.5-0.5h1.005 c0.276,0,0.5,0.224,0.5,0.5S84.382,79.987,84.106,79.987z"/></g><g><path fill="#88ae45" d="M63.466,27H41.37l6.585,20.514c0.445,1.386,1.93,2.149,3.316,1.705L66.282,44.4 c1.386-0.445,2.15-1.93,1.705-3.316L63.466,27z"/><path fill="#472b29" d="M50.468,49.845c-1.327,0-2.563-0.849-2.989-2.178l-6.584-20.514 c-0.084-0.263,0.061-0.544,0.323-0.629c0.264-0.085,0.545,0.061,0.629,0.323l6.584,20.514c0.36,1.122,1.565,1.741,2.688,1.381 l15.011-4.818c1.122-0.36,1.741-1.566,1.381-2.688c-0.084-0.263,0.061-0.544,0.323-0.629c0.264-0.084,0.545,0.061,0.629,0.323 c0.528,1.647-0.381,3.417-2.028,3.945l-15.011,4.818C51.106,49.797,50.785,49.845,50.468,49.845z"/><path fill="#c0d078" d="M68.021,27H44.302l10.964,21.061c0.672,1.292,2.264,1.793,3.556,1.121l13.985-7.28 c1.292-0.672,1.794-2.264,1.121-3.556L68.021,27z"/><path fill="#88ae45" d="M47.611,27l8.586,16.495c0.115-0.083,0.228-0.167,0.357-0.234c1.455-0.758,3.249-0.192,4.006,1.263 c0.067,0.129,0.111,0.263,0.158,0.396l7.603-3.958c-0.082-0.115-0.167-0.228-0.234-0.356c-0.757-1.455-0.192-3.249,1.263-4.006 c0.129-0.067,0.263-0.111,0.396-0.158L64.831,27H47.611z"/><circle cx="61.5" cy="37.5" r="2" fill="#c0d078"/><path fill="#472b29" d="M61.503,39.751c-0.228,0-0.456-0.035-0.679-0.105c-0.573-0.181-1.042-0.574-1.319-1.107 c-0.278-0.533-0.331-1.142-0.15-1.715c0.181-0.573,0.574-1.042,1.107-1.319c0.533-0.278,1.142-0.331,1.715-0.15 c0.573,0.181,1.042,0.574,1.319,1.107c0.278,0.533,0.331,1.142,0.15,1.715c-0.181,0.573-0.574,1.042-1.107,1.319l0,0 C62.213,39.665,61.859,39.751,61.503,39.751z M61.498,35.75c-0.278,0-0.553,0.067-0.806,0.198c-0.415,0.216-0.72,0.58-0.86,1.026 c-0.141,0.446-0.099,0.919,0.117,1.334c0.216,0.415,0.58,0.72,1.026,0.861c0.446,0.141,0.919,0.099,1.334-0.117l0,0 c0.415-0.216,0.72-0.58,0.86-1.026c0.141-0.446,0.099-0.919-0.117-1.334c-0.216-0.415-0.58-0.72-1.026-0.861 C61.853,35.777,61.675,35.75,61.498,35.75z"/><path fill="#472b29" d="M60.624,45.219c-0.031,0-0.063-0.006-0.092-0.017c-0.067-0.027-0.12-0.081-0.144-0.15 c-0.054-0.154-0.09-0.261-0.144-0.364c-0.692-1.33-2.336-1.85-3.669-1.156c-0.104,0.054-0.196,0.122-0.289,0.189 c-0.059,0.042-0.153,0.07-0.222,0.054c-0.071-0.017-0.149-0.05-0.182-0.115l-8.542-16.41c-0.064-0.122-0.016-0.273,0.106-0.337 c0.121-0.063,0.273-0.017,0.337,0.106l8.411,16.158c0.05-0.032,0.099-0.061,0.15-0.088c1.574-0.82,3.522-0.206,4.344,1.369 c0.027,0.052,0.051,0.105,0.073,0.159l7.099-3.695c-0.033-0.05-0.062-0.099-0.088-0.15c-0.82-1.575-0.206-3.524,1.37-4.343 c0.052-0.027,0.105-0.051,0.158-0.073l-1.603-3.079c-0.064-0.122-0.016-0.273,0.106-0.337c0.122-0.063,0.273-0.017,0.337,0.106 l1.734,3.331c0.034,0.064,0.038,0.14,0.011,0.207c-0.027,0.067-0.081,0.12-0.15,0.144c-0.149,0.052-0.258,0.089-0.363,0.144 c-1.331,0.693-1.85,2.338-1.157,3.669c0.054,0.103,0.121,0.194,0.187,0.286c0.042,0.059,0.071,0.153,0.055,0.224 c-0.017,0.071-0.049,0.15-0.114,0.184l-7.603,3.958C60.703,45.209,60.663,45.219,60.624,45.219z"/><path fill="#472b29" d="M57.607,49.982c-0.317,0-0.636-0.049-0.947-0.147c-0.799-0.252-1.452-0.8-1.838-1.543 L43.858,27.231c-0.127-0.245-0.032-0.547,0.212-0.674c0.246-0.128,0.548-0.032,0.674,0.213L55.709,47.83 c0.264,0.506,0.708,0.879,1.252,1.051s1.123,0.121,1.629-0.143l13.984-7.28c0.506-0.264,0.88-0.708,1.052-1.253 c0.171-0.544,0.121-1.123-0.143-1.629l-5.907-11.347c-0.127-0.245-0.032-0.547,0.212-0.674c0.246-0.128,0.547-0.032,0.674,0.213 l5.907,11.347c0.387,0.743,0.461,1.592,0.209,2.391c-0.252,0.799-0.8,1.452-1.543,1.839l-13.984,7.28 C58.598,49.862,58.105,49.982,57.607,49.982z"/><path fill="#c0d078" d="M52.264,27c-0.433,1.271-0.375,2.706,0.294,3.99c1.298,2.494,4.373,3.464,6.867,2.165 c2.263-1.178,3.251-3.813,2.449-6.155H52.264z"/><path fill="#472b29" d="M55.051,33.65c-0.032,0-0.063-0.006-0.095-0.019c-1.167-0.477-2.13-1.357-2.714-2.477 c-0.679-1.304-0.792-2.789-0.321-4.182c0.044-0.131,0.187-0.201,0.317-0.157c0.131,0.044,0.201,0.186,0.157,0.317 c-0.428,1.263-0.325,2.609,0.291,3.79c0.529,1.015,1.402,1.813,2.46,2.245c0.128,0.052,0.189,0.198,0.137,0.326 C55.243,33.592,55.149,33.65,55.051,33.65z"/><path fill="#472b29" d="M56.982,34.031c-0.036,0-0.072,0-0.108-0.001c-0.138-0.003-0.248-0.117-0.245-0.255 c0.003-0.136,0.114-0.245,0.25-0.245c0.025,0,0.068,0.001,0.103,0.001c0.773,0,1.543-0.189,2.233-0.548 c2.108-1.097,3.117-3.617,2.347-5.861c-0.045-0.131,0.024-0.273,0.155-0.318c0.13-0.045,0.272,0.025,0.317,0.155 c0.85,2.476-0.263,5.256-2.589,6.467C58.686,33.823,57.836,34.031,56.982,34.031z"/><g><path fill="#472b29" d="M66.546,30.775c-0.09,0-0.177-0.049-0.222-0.135l-1.827-3.509 c-0.064-0.122-0.016-0.273,0.106-0.337c0.121-0.063,0.273-0.017,0.337,0.106l1.827,3.509c0.064,0.122,0.016,0.273-0.106,0.337 C66.625,30.766,66.585,30.775,66.546,30.775z"/></g></g><g><path fill="#fdfcef" d="M30.875,45.5c0,0,3.64,0,6.125,0s4.5-2.015,4.5-4.5c0-2.333-1.782-4.229-4.055-4.455 C37.467,36.364,37.5,36.187,37.5,36c0-2.485-2.015-4.5-4.5-4.5c-1.438,0-2.703,0.686-3.527,1.736 C29.333,30.6,27.171,28.5,24.5,28.5c-2.761,0-5,2.239-5,5c0,0.446,0.077,0.87,0.187,1.282C19.045,34.005,18.086,33.5,17,33.5 c-1.781,0-3.234,1.335-3.455,3.055C13.364,36.533,13.187,36.5,13,36.5c-2.485,0-4.5,2.015-4.5,4.5s2.015,4.5,4.5,4.5s9.5,0,9.5,0 h5.375V46h3V45.5z"/><path fill="#472b29" d="M24.5,28c-3.033,0-5.5,2.467-5.5,5.5c0,0.016,0,0.031,0,0.047C18.398,33.192,17.71,33,17,33 c-1.831,0-3.411,1.261-3.858,3.005C13.095,36.002,13.048,36,13,36c-2.757,0-5,2.243-5,5s2.243,5,5,5h14.875 c0.276,0,0.5-0.224,0.5-0.5s-0.224-0.5-0.5-0.5H13c-2.206,0-4-1.794-4-4s1.794-4,4-4c0.117,0,0.23,0.017,0.343,0.032l0.141,0.019 c0.021,0.003,0.041,0.004,0.062,0.004c0.246,0,0.462-0.185,0.495-0.437C14.232,35.125,15.504,34,17,34 c0.885,0,1.723,0.401,2.301,1.1c0.098,0.118,0.241,0.182,0.386,0.182c0.078,0,0.156-0.018,0.228-0.056 c0.209-0.107,0.314-0.346,0.254-0.573C20.054,34.218,20,33.852,20,33.5c0-2.481,2.019-4.5,4.5-4.5 c2.381,0,4.347,1.872,4.474,4.263c0.011,0.208,0.15,0.387,0.349,0.45c0.05,0.016,0.101,0.024,0.152,0.024 c0.15,0,0.296-0.069,0.392-0.192C30.638,32.563,31.779,32,33,32c2.206,0,4,1.794,4,4c0,0.117-0.017,0.23-0.032,0.343l-0.019,0.141 c-0.016,0.134,0.022,0.268,0.106,0.373c0.084,0.105,0.207,0.172,0.34,0.185C39.451,37.247,41,38.949,41,41c0,2.206-1.794,4-4,4 h-6.125c-0.276,0-0.5,0.224-0.5,0.5s0.224,0.5,0.5,0.5H37c2.757,0,5-2.243,5-5c0-2.397-1.689-4.413-4.003-4.877 C37.999,36.082,38,36.041,38,36c0-2.757-2.243-5-5-5c-1.176,0-2.293,0.416-3.183,1.164C29.219,29.76,27.055,28,24.5,28L24.5,28z"/><path fill="#472b29" d="M23,35c-1.403,0-2.609,0.999-2.913,2.341C19.72,37.119,19.301,37,18.875,37 c-1.202,0-2.198,0.897-2.353,2.068C16.319,39.022,16.126,39,15.937,39c-1.529,0-2.811,1.2-2.918,2.732 C13.01,41.87,13.114,41.99,13.251,42c0.006,0,0.012,0,0.018,0c0.13,0,0.24-0.101,0.249-0.232c0.089-1.271,1.151-2.268,2.419-2.268 c0.229,0,0.47,0.042,0.738,0.127c0.022,0.007,0.045,0.01,0.067,0.01c0.055,0,0.11-0.02,0.156-0.054 C16.962,39.537,17,39.455,17,39.375c0-1.034,0.841-1.875,1.875-1.875c0.447,0,0.885,0.168,1.231,0.473 c0.047,0.041,0.106,0.063,0.165,0.063c0.032,0,0.063-0.006,0.093-0.019c0.088-0.035,0.148-0.117,0.155-0.212 C20.623,36.512,21.712,35.5,23,35.5c0.208,0,0.425,0.034,0.682,0.107c0.023,0.007,0.047,0.01,0.07,0.01 c0.109,0,0.207-0.073,0.239-0.182c0.038-0.133-0.039-0.271-0.172-0.309C23.517,35.04,23.256,35,23,35L23,35z"/><path fill="#472b29" d="M36.883,36.5c-1.326,0-2.508,0.897-2.874,2.182c-0.038,0.133,0.039,0.271,0.172,0.309 C34.205,38.997,34.228,39,34.25,39c0.109,0,0.209-0.072,0.24-0.182C34.795,37.748,35.779,37,36.883,37 c0.117,0,0.23,0.014,0.342,0.029c0.012,0.002,0.023,0.003,0.035,0.003c0.121,0,0.229-0.092,0.246-0.217 c0.019-0.137-0.077-0.263-0.214-0.281C37.158,36.516,37.022,36.5,36.883,36.5L36.883,36.5z"/></g></svg>